<?xml version="1.0" encoding="UTF-8"?>
<!DOCTYPE svg PUBLIC "-//W3C//DTD SVG 1.1//EN" "http://www.w3.org/Graphics/SVG/1.1/DTD/svg11.dtd">
<svg width="160mm" height="90mm" viewBox="0 0 16000 9000" version="1.1" xmlns="http://www.w3.org/2000/svg" xmlns:xlink="http://www.w3.org/1999/xlink" stroke-width="28.222" stroke-linejoin="round" xml:space="preserve">
 <path fill="rgb(255,255,255)" stroke="none" d="M 8000,9003 L 0,9003 0,0 16000,0 16000,9003 8000,9003 Z"/>
 <path fill="none" stroke="rgb(179,179,179)" stroke-linejoin="round" d="M 8909,8176 L 2138,8176 2138,1660 15680,1660 15680,8176 8909,8176 Z"/>
 <path fill="none" stroke="rgb(179,179,179)" stroke-linejoin="round" d="M 15680,8175 L 2138,8175"/>
 <path fill="none" stroke="rgb(179,179,179)" stroke-linejoin="round" d="M 15680,7523 L 2138,7523"/>
 <path fill="none" stroke="rgb(179,179,179)" stroke-linejoin="round" d="M 15680,6871 L 2138,6871"/>
 <path fill="none" stroke="rgb(179,179,179)" stroke-linejoin="round" d="M 15680,6219 L 2138,6219"/>
 <path fill="none" stroke="rgb(179,179,179)" stroke-linejoin="round" d="M 15680,5568 L 2138,5568"/>
 <path fill="none" stroke="rgb(179,179,179)" stroke-linejoin="round" d="M 15680,4916 L 2138,4916"/>
 <path fill="none" stroke="rgb(179,179,179)" stroke-linejoin="round" d="M 15680,4265 L 2138,4265"/>
 <path fill="none" stroke="rgb(179,179,179)" stroke-linejoin="round" d="M 15680,3614 L 2138,3614"/>
 <path fill="none" stroke="rgb(179,179,179)" stroke-linejoin="round" d="M 15680,2962 L 2138,2962"/>
 <path fill="none" stroke="rgb(179,179,179)" stroke-linejoin="round" d="M 15680,2310 L 2138,2310"/>
 <path fill="none" stroke="rgb(179,179,179)" stroke-linejoin="round" d="M 15680,1659 L 2138,1659"/>
 <path fill="none" stroke="rgb(179,179,179)" stroke-linejoin="round" d="M 2138,8325 L 2138,8175"/>
 <path fill="none" stroke="rgb(179,179,179)" stroke-linejoin="round" d="M 2138,8325 L 2138,8175"/>
 <path fill="none" stroke="rgb(179,179,179)" stroke-linejoin="round" d="M 6652,8325 L 6652,8175"/>
 <path fill="none" stroke="rgb(179,179,179)" stroke-linejoin="round" d="M 6652,8325 L 6652,8175"/>
 <path fill="none" stroke="rgb(179,179,179)" stroke-linejoin="round" d="M 11165,8325 L 11165,8175"/>
 <path fill="none" stroke="rgb(179,179,179)" stroke-linejoin="round" d="M 11165,8325 L 11165,8175"/>
 <path fill="none" stroke="rgb(179,179,179)" stroke-linejoin="round" d="M 15680,8325 L 15680,8175"/>
 <path fill="none" stroke="rgb(179,179,179)" stroke-linejoin="round" d="M 15680,8325 L 15680,8175"/>
 <path fill="none" stroke="rgb(179,179,179)" stroke-linejoin="round" d="M 2138,8175 L 15680,8175"/>
 <path fill="none" stroke="rgb(179,179,179)" stroke-linejoin="round" d="M 1988,8175 L 2288,8175"/>
 <path fill="none" stroke="rgb(179,179,179)" stroke-linejoin="round" d="M 1988,8175 L 2288,8175"/>
 <path fill="none" stroke="rgb(179,179,179)" stroke-linejoin="round" d="M 1988,7523 L 2288,7523"/>
 <path fill="none" stroke="rgb(179,179,179)" stroke-linejoin="round" d="M 1988,7523 L 2288,7523"/>
 <path fill="none" stroke="rgb(179,179,179)" stroke-linejoin="round" d="M 1988,6871 L 2288,6871"/>
 <path fill="none" stroke="rgb(179,179,179)" stroke-linejoin="round" d="M 1988,6871 L 2288,6871"/>
 <path fill="none" stroke="rgb(179,179,179)" stroke-linejoin="round" d="M 1988,6219 L 2288,6219"/>
 <path fill="none" stroke="rgb(179,179,179)" stroke-linejoin="round" d="M 1988,6219 L 2288,6219"/>
 <path fill="none" stroke="rgb(179,179,179)" stroke-linejoin="round" d="M 1988,5568 L 2288,5568"/>
 <path fill="none" stroke="rgb(179,179,179)" stroke-linejoin="round" d="M 1988,5568 L 2288,5568"/>
 <path fill="none" stroke="rgb(179,179,179)" stroke-linejoin="round" d="M 1988,4916 L 2288,4916"/>
 <path fill="none" stroke="rgb(179,179,179)" stroke-linejoin="round" d="M 1988,4916 L 2288,4916"/>
 <path fill="none" stroke="rgb(179,179,179)" stroke-linejoin="round" d="M 1988,4265 L 2288,4265"/>
 <path fill="none" stroke="rgb(179,179,179)" stroke-linejoin="round" d="M 1988,4265 L 2288,4265"/>
 <path fill="none" stroke="rgb(179,179,179)" stroke-linejoin="round" d="M 1988,3614 L 2288,3614"/>
 <path fill="none" stroke="rgb(179,179,179)" stroke-linejoin="round" d="M 1988,3614 L 2288,3614"/>
 <path fill="none" stroke="rgb(179,179,179)" stroke-linejoin="round" d="M 1988,2962 L 2288,2962"/>
 <path fill="none" stroke="rgb(179,179,179)" stroke-linejoin="round" d="M 1988,2962 L 2288,2962"/>
 <path fill="none" stroke="rgb(179,179,179)" stroke-linejoin="round" d="M 1988,2310 L 2288,2310"/>
 <path fill="none" stroke="rgb(179,179,179)" stroke-linejoin="round" d="M 1988,2310 L 2288,2310"/>
 <path fill="none" stroke="rgb(179,179,179)" stroke-linejoin="round" d="M 1988,1659 L 2288,1659"/>
 <path fill="none" stroke="rgb(179,179,179)" stroke-linejoin="round" d="M 1988,1659 L 2288,1659"/>
 <path fill="none" stroke="rgb(179,179,179)" stroke-linejoin="round" d="M 2138,8175 L 2138,1659"/>
 <path fill="rgb(255,211,32)" stroke="none" d="M 11447,8175 L 12012,8175 12012,5701 11447,5701 11447,8175 Z"/>
 <path fill="rgb(255,211,32)" stroke="none" d="M 6934,8175 L 7498,8175 7498,4380 6934,4380 6934,8175 Z"/>
 <path fill="rgb(255,211,32)" stroke="none" d="M 2420,8175 L 2984,8175 2984,2960 2420,2960 2420,8175 Z"/>
 <path fill="rgb(87,157,28)" stroke="none" d="M 12012,8175 L 12576,8175 12576,6871 12012,6871 12012,8175 Z"/>
 <path fill="rgb(87,157,28)" stroke="none" d="M 7498,8175 L 8062,8175 8062,6486 7498,6486 7498,8175 Z"/>
 <path fill="rgb(87,157,28)" stroke="none" d="M 2984,8175 L 3548,8175 3548,3216 2984,3216 2984,8175 Z"/>
 <path fill="rgb(0,69,134)" stroke="none" d="M 12576,8175 L 13140,8175 13140,4489 12576,4489 12576,8175 Z"/>
 <path fill="rgb(0,69,134)" stroke="none" d="M 8062,8175 L 8626,8175 8626,4649 8062,4649 8062,8175 Z"/>
 <path fill="rgb(0,69,134)" stroke="none" d="M 3548,8175 L 4113,8175 4113,4982 3548,4982 3548,8175 Z"/>
 <path fill="rgb(255,66,14)" stroke="none" d="M 13140,8175 L 13704,8175 13704,6701 13140,6701 13140,8175 Z"/>
 <path fill="rgb(255,66,14)" stroke="none" d="M 8626,8175 L 9190,8175 9190,7301 8626,7301 8626,8175 Z"/>
 <path fill="rgb(255,66,14)" stroke="none" d="M 4113,8175 L 4677,8175 4677,4982 4113,4982 4113,8175 Z"/>
 <path fill="rgb(141,29,117)" stroke="none" d="M 13704,8175 L 14269,8175 14269,7390 13704,7390 13704,8175 Z"/>
 <path fill="rgb(141,29,117)" stroke="none" d="M 9190,8175 L 9754,8175 9754,7813 9190,7813 9190,8175 Z"/>
 <path fill="rgb(141,29,117)" stroke="none" d="M 4677,8175 L 5241,8175 5241,3909 4677,3909 4677,8175 Z"/>
 <path fill="rgb(131,202,255)" stroke="none" d="M 14269,8175 L 14833,8175 14833,7055 14269,7055 14269,8175 Z"/>
 <path fill="rgb(131,202,255)" stroke="none" d="M 9754,8175 L 10319,8175 10319,7670 9754,7670 9754,8175 Z"/>
 <path fill="rgb(131,202,255)" stroke="none" d="M 5241,8175 L 5805,8175 5805,1793 5241,1793 5241,8175 Z"/>
 <path fill="rgb(49,64,4)" stroke="none" d="M 14833,8175 L 15397,8175 15397,7049 14833,7049 14833,8175 Z"/>
 <path fill="rgb(49,64,4)" stroke="none" d="M 10319,8175 L 10883,8175 10883,7595 10319,7595 10319,8175 Z"/>
 <path fill="rgb(49,64,4)" stroke="none" d="M 5805,8175 L 6370,8175 6370,3562 5805,3562 5805,8175 Z"/>
 <text class="TextShape"><tspan class="TextParagraph" font-family="Liberation Sans, sans-serif" font-size="353px" font-weight="400"><tspan class="TextPosition" x="3310" y="8743"><tspan fill="rgb(0,0,0)" stroke="none">1st interaction</tspan></tspan></tspan></text>
 <text class="TextShape"><tspan class="TextParagraph" font-family="Liberation Sans, sans-serif" font-size="353px" font-weight="400"><tspan class="TextPosition" x="7784" y="8743"><tspan fill="rgb(0,0,0)" stroke="none">2nd interaction</tspan></tspan></tspan></text>
 <text class="TextShape"><tspan class="TextParagraph" font-family="Liberation Sans, sans-serif" font-size="353px" font-weight="400"><tspan class="TextPosition" x="12338" y="8743"><tspan fill="rgb(0,0,0)" stroke="none">3rd interaction</tspan></tspan></tspan></text>
 <text class="TextShape"><tspan class="TextParagraph" font-family="Liberation Sans, sans-serif" font-size="353px" font-weight="400"><tspan class="TextPosition" x="1703" y="8296"><tspan fill="rgb(0,0,0)" stroke="none">0</tspan></tspan></tspan></text>
 <text class="TextShape"><tspan class="TextParagraph" font-family="Liberation Sans, sans-serif" font-size="353px" font-weight="400"><tspan class="TextPosition" x="1518" y="7644"><tspan fill="rgb(0,0,0)" stroke="none">10</tspan></tspan></tspan></text>
 <text class="TextShape"><tspan class="TextParagraph" font-family="Liberation Sans, sans-serif" font-size="353px" font-weight="400"><tspan class="TextPosition" x="1518" y="6992"><tspan fill="rgb(0,0,0)" stroke="none">20</tspan></tspan></tspan></text>
 <text class="TextShape"><tspan class="TextParagraph" font-family="Liberation Sans, sans-serif" font-size="353px" font-weight="400"><tspan class="TextPosition" x="1518" y="6340"><tspan fill="rgb(0,0,0)" stroke="none">30</tspan></tspan></tspan></text>
 <text class="TextShape"><tspan class="TextParagraph" font-family="Liberation Sans, sans-serif" font-size="353px" font-weight="400"><tspan class="TextPosition" x="1518" y="5689"><tspan fill="rgb(0,0,0)" stroke="none">40</tspan></tspan></tspan></text>
 <text class="TextShape"><tspan class="TextParagraph" font-family="Liberation Sans, sans-serif" font-size="353px" font-weight="400"><tspan class="TextPosition" x="1518" y="5037"><tspan fill="rgb(0,0,0)" stroke="none">50</tspan></tspan></tspan></text>
 <text class="TextShape"><tspan class="TextParagraph" font-family="Liberation Sans, sans-serif" font-size="353px" font-weight="400"><tspan class="TextPosition" x="1518" y="4385"><tspan fill="rgb(0,0,0)" stroke="none">60</tspan></tspan></tspan></text>
 <text class="TextShape"><tspan class="TextParagraph" font-family="Liberation Sans, sans-serif" font-size="353px" font-weight="400"><tspan class="TextPosition" x="1518" y="3734"><tspan fill="rgb(0,0,0)" stroke="none">70</tspan></tspan></tspan></text>
 <text class="TextShape"><tspan class="TextParagraph" font-family="Liberation Sans, sans-serif" font-size="353px" font-weight="400"><tspan class="TextPosition" x="1518" y="3082"><tspan fill="rgb(0,0,0)" stroke="none">80</tspan></tspan></tspan></text>
 <text class="TextShape"><tspan class="TextParagraph" font-family="Liberation Sans, sans-serif" font-size="353px" font-weight="400"><tspan class="TextPosition" x="1518" y="2430"><tspan fill="rgb(0,0,0)" stroke="none">90</tspan></tspan></tspan></text>
 <text class="TextShape"><tspan class="TextParagraph" font-family="Liberation Sans, sans-serif" font-size="353px" font-weight="400"><tspan class="TextPosition" x="1332" y="1779"><tspan fill="rgb(0,0,0)" stroke="none">100</tspan></tspan></tspan></text>
 <path fill="rgb(255,211,32)" stroke="none" d="M 4353,589 L 4248,589 4248,378 4459,378 4459,589 4353,589 Z"/>
 <path fill="rgb(87,157,28)" stroke="none" d="M 6856,589 L 6751,589 6751,378 6962,378 6962,589 6856,589 Z"/>
 <path fill="rgb(0,69,134)" stroke="none" d="M 9174,589 L 9068,589 9068,378 9279,378 9279,589 9174,589 Z"/>
 <path fill="rgb(255,66,14)" stroke="none" d="M 10486,589 L 10380,589 10380,378 10591,378 10591,589 10486,589 Z"/>
 <path fill="rgb(141,29,117)" stroke="none" d="M 4353,1087 L 4248,1087 4248,876 4459,876 4459,1087 4353,1087 Z"/>
 <path fill="rgb(131,202,255)" stroke="none" d="M 6856,1087 L 6751,1087 6751,876 6962,876 6962,1087 6856,1087 Z"/>
 <path fill="rgb(49,64,4)" stroke="none" d="M 9174,1087 L 9068,1087 9068,876 9279,876 9279,1087 9174,1087 Z"/>
 <text class="TextShape"><tspan class="TextParagraph" font-family="Liberation Sans, sans-serif" font-size="353px" font-weight="400"><tspan class="TextPosition" x="4559" y="603"><tspan fill="rgb(0,0,0)" stroke="none">MLP (500)</tspan></tspan></tspan></text>
 <text class="TextShape"><tspan class="TextParagraph" font-family="Liberation Sans, sans-serif" font-size="353px" font-weight="400"><tspan class="TextPosition" x="7062" y="603"><tspan fill="rgb(0,0,0)" stroke="none">MLP (2500)</tspan></tspan></tspan></text>
 <text class="TextShape"><tspan class="TextParagraph" font-family="Liberation Sans, sans-serif" font-size="353px" font-weight="400"><tspan class="TextPosition" x="9379" y="603"><tspan fill="rgb(0,0,0)" stroke="none">LMS</tspan></tspan></tspan></text>
 <text class="TextShape"><tspan class="TextParagraph" font-family="Liberation Sans, sans-serif" font-size="353px" font-weight="400"><tspan class="TextPosition" x="10691" y="603"><tspan fill="rgb(0,0,0)" stroke="none">C-SVC</tspan></tspan></tspan></text>
 <text class="TextShape"><tspan class="TextParagraph" font-family="Liberation Sans, sans-serif" font-size="353px" font-weight="400"><tspan class="TextPosition" x="4559" y="1101"><tspan fill="rgb(0,0,0)" stroke="none">RandomTree</tspan></tspan></tspan></text>
 <text class="TextShape"><tspan class="TextParagraph" font-family="Liberation Sans, sans-serif" font-size="353px" font-weight="400"><tspan class="TextPosition" x="7062" y="1101"><tspan fill="rgb(0,0,0)" stroke="none">KStar</tspan></tspan></tspan></text>
 <text class="TextShape"><tspan class="TextParagraph" font-family="Liberation Sans, sans-serif" font-size="353px" font-weight="400"><tspan class="TextPosition" x="9379" y="1101"><tspan fill="rgb(0,0,0)" stroke="none">MCS</tspan></tspan></tspan></text>
 <text class="TextShape" transform="rotate(-90 837 6914)"><tspan class="TextParagraph" font-family="Liberation Sans, sans-serif" font-size="318px" font-weight="400"><tspan class="TextPosition" x="837" y="6914"><tspan fill="rgb(0,0,0)" stroke="none">relative absolut error (%)</tspan></tspan></tspan></text>
</svg>