<?xml version="1.0" encoding="UTF-8"?>
<!DOCTYPE svg PUBLIC "-//W3C//DTD SVG 1.1//EN" "http://www.w3.org/Graphics/SVG/1.1/DTD/svg11.dtd">
<svg width="160mm" height="90mm" viewBox="0 0 16000 9000" version="1.1" xmlns="http://www.w3.org/2000/svg" xmlns:xlink="http://www.w3.org/1999/xlink" stroke-width="28.222" stroke-linejoin="round" xml:space="preserve">
 <path fill="rgb(255,255,255)" stroke="none" d="M 7998,8992 L 0,8992 0,0 15996,0 15996,8992 7998,8992 Z"/>
 <path fill="none" stroke="rgb(179,179,179)" stroke-linejoin="round" d="M 8959,8166 L 2242,8166 2242,1161 15677,1161 15677,8166 8959,8166 Z"/>
 <path fill="none" stroke="rgb(179,179,179)" stroke-linejoin="round" d="M 15677,8165 L 2242,8165"/>
 <path fill="none" stroke="rgb(179,179,179)" stroke-linejoin="round" d="M 15677,7697 L 2242,7697"/>
 <path fill="none" stroke="rgb(179,179,179)" stroke-linejoin="round" d="M 15677,7230 L 2242,7230"/>
 <path fill="none" stroke="rgb(179,179,179)" stroke-linejoin="round" d="M 15677,6763 L 2242,6763"/>
 <path fill="none" stroke="rgb(179,179,179)" stroke-linejoin="round" d="M 15677,6296 L 2242,6296"/>
 <path fill="none" stroke="rgb(179,179,179)" stroke-linejoin="round" d="M 15677,5829 L 2242,5829"/>
 <path fill="none" stroke="rgb(179,179,179)" stroke-linejoin="round" d="M 15677,5362 L 2242,5362"/>
 <path fill="none" stroke="rgb(179,179,179)" stroke-linejoin="round" d="M 15677,4895 L 2242,4895"/>
 <path fill="none" stroke="rgb(179,179,179)" stroke-linejoin="round" d="M 15677,4429 L 2242,4429"/>
 <path fill="none" stroke="rgb(179,179,179)" stroke-linejoin="round" d="M 15677,3962 L 2242,3962"/>
 <path fill="none" stroke="rgb(179,179,179)" stroke-linejoin="round" d="M 15677,3495 L 2242,3495"/>
 <path fill="none" stroke="rgb(179,179,179)" stroke-linejoin="round" d="M 15677,3028 L 2242,3028"/>
 <path fill="none" stroke="rgb(179,179,179)" stroke-linejoin="round" d="M 15677,2561 L 2242,2561"/>
 <path fill="none" stroke="rgb(179,179,179)" stroke-linejoin="round" d="M 15677,2094 L 2242,2094"/>
 <path fill="none" stroke="rgb(179,179,179)" stroke-linejoin="round" d="M 15677,1627 L 2242,1627"/>
 <path fill="none" stroke="rgb(179,179,179)" stroke-linejoin="round" d="M 15677,1160 L 2242,1160"/>
 <path fill="none" stroke="rgb(179,179,179)" stroke-linejoin="round" d="M 2242,8315 L 2242,8165"/>
 <path fill="none" stroke="rgb(179,179,179)" stroke-linejoin="round" d="M 2242,8315 L 2242,8165"/>
 <path fill="none" stroke="rgb(179,179,179)" stroke-linejoin="round" d="M 3463,8315 L 3463,8165"/>
 <path fill="none" stroke="rgb(179,179,179)" stroke-linejoin="round" d="M 3463,8315 L 3463,8165"/>
 <path fill="none" stroke="rgb(179,179,179)" stroke-linejoin="round" d="M 4684,8315 L 4684,8165"/>
 <path fill="none" stroke="rgb(179,179,179)" stroke-linejoin="round" d="M 4684,8315 L 4684,8165"/>
 <path fill="none" stroke="rgb(179,179,179)" stroke-linejoin="round" d="M 5906,8315 L 5906,8165"/>
 <path fill="none" stroke="rgb(179,179,179)" stroke-linejoin="round" d="M 5906,8315 L 5906,8165"/>
 <path fill="none" stroke="rgb(179,179,179)" stroke-linejoin="round" d="M 7127,8315 L 7127,8165"/>
 <path fill="none" stroke="rgb(179,179,179)" stroke-linejoin="round" d="M 7127,8315 L 7127,8165"/>
 <path fill="none" stroke="rgb(179,179,179)" stroke-linejoin="round" d="M 8348,8315 L 8348,8165"/>
 <path fill="none" stroke="rgb(179,179,179)" stroke-linejoin="round" d="M 8348,8315 L 8348,8165"/>
 <path fill="none" stroke="rgb(179,179,179)" stroke-linejoin="round" d="M 9569,8315 L 9569,8165"/>
 <path fill="none" stroke="rgb(179,179,179)" stroke-linejoin="round" d="M 9569,8315 L 9569,8165"/>
 <path fill="none" stroke="rgb(179,179,179)" stroke-linejoin="round" d="M 10791,8315 L 10791,8165"/>
 <path fill="none" stroke="rgb(179,179,179)" stroke-linejoin="round" d="M 10791,8315 L 10791,8165"/>
 <path fill="none" stroke="rgb(179,179,179)" stroke-linejoin="round" d="M 12012,8315 L 12012,8165"/>
 <path fill="none" stroke="rgb(179,179,179)" stroke-linejoin="round" d="M 12012,8315 L 12012,8165"/>
 <path fill="none" stroke="rgb(179,179,179)" stroke-linejoin="round" d="M 13234,8315 L 13234,8165"/>
 <path fill="none" stroke="rgb(179,179,179)" stroke-linejoin="round" d="M 13234,8315 L 13234,8165"/>
 <path fill="none" stroke="rgb(179,179,179)" stroke-linejoin="round" d="M 14455,8315 L 14455,8165"/>
 <path fill="none" stroke="rgb(179,179,179)" stroke-linejoin="round" d="M 14455,8315 L 14455,8165"/>
 <path fill="none" stroke="rgb(179,179,179)" stroke-linejoin="round" d="M 15677,8315 L 15677,8165"/>
 <path fill="none" stroke="rgb(179,179,179)" stroke-linejoin="round" d="M 15677,8315 L 15677,8165"/>
 <path fill="none" stroke="rgb(179,179,179)" stroke-linejoin="round" d="M 2242,8165 L 15677,8165"/>
 <path fill="none" stroke="rgb(179,179,179)" stroke-linejoin="round" d="M 2092,8165 L 2242,8165"/>
 <path fill="none" stroke="rgb(179,179,179)" stroke-linejoin="round" d="M 2092,8165 L 2242,8165"/>
 <path fill="none" stroke="rgb(179,179,179)" stroke-linejoin="round" d="M 2092,7697 L 2242,7697"/>
 <path fill="none" stroke="rgb(179,179,179)" stroke-linejoin="round" d="M 2092,7697 L 2242,7697"/>
 <path fill="none" stroke="rgb(179,179,179)" stroke-linejoin="round" d="M 2092,7230 L 2242,7230"/>
 <path fill="none" stroke="rgb(179,179,179)" stroke-linejoin="round" d="M 2092,7230 L 2242,7230"/>
 <path fill="none" stroke="rgb(179,179,179)" stroke-linejoin="round" d="M 2092,6763 L 2242,6763"/>
 <path fill="none" stroke="rgb(179,179,179)" stroke-linejoin="round" d="M 2092,6763 L 2242,6763"/>
 <path fill="none" stroke="rgb(179,179,179)" stroke-linejoin="round" d="M 2092,6296 L 2242,6296"/>
 <path fill="none" stroke="rgb(179,179,179)" stroke-linejoin="round" d="M 2092,6296 L 2242,6296"/>
 <path fill="none" stroke="rgb(179,179,179)" stroke-linejoin="round" d="M 2092,5829 L 2242,5829"/>
 <path fill="none" stroke="rgb(179,179,179)" stroke-linejoin="round" d="M 2092,5829 L 2242,5829"/>
 <path fill="none" stroke="rgb(179,179,179)" stroke-linejoin="round" d="M 2092,5362 L 2242,5362"/>
 <path fill="none" stroke="rgb(179,179,179)" stroke-linejoin="round" d="M 2092,5362 L 2242,5362"/>
 <path fill="none" stroke="rgb(179,179,179)" stroke-linejoin="round" d="M 2092,4895 L 2242,4895"/>
 <path fill="none" stroke="rgb(179,179,179)" stroke-linejoin="round" d="M 2092,4895 L 2242,4895"/>
 <path fill="none" stroke="rgb(179,179,179)" stroke-linejoin="round" d="M 2092,4429 L 2242,4429"/>
 <path fill="none" stroke="rgb(179,179,179)" stroke-linejoin="round" d="M 2092,4429 L 2242,4429"/>
 <path fill="none" stroke="rgb(179,179,179)" stroke-linejoin="round" d="M 2092,3962 L 2242,3962"/>
 <path fill="none" stroke="rgb(179,179,179)" stroke-linejoin="round" d="M 2092,3962 L 2242,3962"/>
 <path fill="none" stroke="rgb(179,179,179)" stroke-linejoin="round" d="M 2092,3495 L 2242,3495"/>
 <path fill="none" stroke="rgb(179,179,179)" stroke-linejoin="round" d="M 2092,3495 L 2242,3495"/>
 <path fill="none" stroke="rgb(179,179,179)" stroke-linejoin="round" d="M 2092,3028 L 2242,3028"/>
 <path fill="none" stroke="rgb(179,179,179)" stroke-linejoin="round" d="M 2092,3028 L 2242,3028"/>
 <path fill="none" stroke="rgb(179,179,179)" stroke-linejoin="round" d="M 2092,2561 L 2242,2561"/>
 <path fill="none" stroke="rgb(179,179,179)" stroke-linejoin="round" d="M 2092,2561 L 2242,2561"/>
 <path fill="none" stroke="rgb(179,179,179)" stroke-linejoin="round" d="M 2092,2094 L 2242,2094"/>
 <path fill="none" stroke="rgb(179,179,179)" stroke-linejoin="round" d="M 2092,2094 L 2242,2094"/>
 <path fill="none" stroke="rgb(179,179,179)" stroke-linejoin="round" d="M 2092,1627 L 2242,1627"/>
 <path fill="none" stroke="rgb(179,179,179)" stroke-linejoin="round" d="M 2092,1627 L 2242,1627"/>
 <path fill="none" stroke="rgb(179,179,179)" stroke-linejoin="round" d="M 2092,1160 L 2242,1160"/>
 <path fill="none" stroke="rgb(179,179,179)" stroke-linejoin="round" d="M 2092,1160 L 2242,1160"/>
 <path fill="none" stroke="rgb(179,179,179)" stroke-linejoin="round" d="M 2242,8165 L 2242,1160"/>
 <path fill="rgb(0,69,134)" stroke="none" d="M 14608,8165 L 14913,8165 14913,5082 14608,5082 14608,8165 Z"/>
 <path fill="rgb(0,69,134)" stroke="none" d="M 13386,8165 L 13692,8165 13692,7324 13386,7324 13386,8165 Z"/>
 <path fill="rgb(0,69,134)" stroke="none" d="M 12165,8165 L 12470,8165 12470,7324 12165,7324 12165,8165 Z"/>
 <path fill="rgb(0,69,134)" stroke="none" d="M 10943,8165 L 11249,8165 11249,6763 10943,6763 10943,8165 Z"/>
 <path fill="rgb(0,69,134)" stroke="none" d="M 9722,8165 L 10027,8165 10027,6203 9722,6203 9722,8165 Z"/>
 <path fill="rgb(0,69,134)" stroke="none" d="M 8500,8165 L 8806,8165 8806,5269 8500,5269 8500,8165 Z"/>
 <path fill="rgb(0,69,134)" stroke="none" d="M 7280,8165 L 7585,8165 7585,4242 7280,4242 7280,8165 Z"/>
 <path fill="rgb(0,69,134)" stroke="none" d="M 6059,8165 L 6364,8165 6364,2934 6059,2934 6059,8165 Z"/>
 <path fill="rgb(0,69,134)" stroke="none" d="M 4837,8165 L 5142,8165 5142,5175 4837,5175 4837,8165 Z"/>
 <path fill="rgb(0,69,134)" stroke="none" d="M 3616,8165 L 3921,8165 3921,4242 3616,4242 3616,8165 Z"/>
 <path fill="rgb(0,69,134)" stroke="none" d="M 2394,8165 L 2700,8165 2700,6016 2394,6016 2394,8165 Z"/>
 <path fill="rgb(255,66,14)" stroke="none" d="M 14913,8165 L 15218,8165 15218,5082 14913,5082 14913,8165 Z"/>
 <path fill="rgb(255,66,14)" stroke="none" d="M 13692,8165 L 13997,8165 13997,7044 13692,7044 13692,8165 Z"/>
 <path fill="rgb(255,66,14)" stroke="none" d="M 12470,8165 L 12776,8165 12776,6857 12470,6857 12470,8165 Z"/>
 <path fill="rgb(255,66,14)" stroke="none" d="M 11249,8165 L 11554,8165 11554,6576 11249,6576 11249,8165 Z"/>
 <path fill="rgb(255,66,14)" stroke="none" d="M 10027,8165 L 10333,8165 10333,5829 10027,5829 10027,8165 Z"/>
 <path fill="rgb(255,66,14)" stroke="none" d="M 8806,8165 L 9111,8165 9111,5362 8806,5362 8806,8165 Z"/>
 <path fill="rgb(255,66,14)" stroke="none" d="M 7585,8165 L 7891,8165 7891,4149 7585,4149 7585,8165 Z"/>
 <path fill="rgb(255,66,14)" stroke="none" d="M 6364,8165 L 6669,8165 6669,2934 6364,2934 6364,8165 Z"/>
 <path fill="rgb(255,66,14)" stroke="none" d="M 5142,8165 L 5448,8165 5448,4988 5142,4988 5142,8165 Z"/>
 <path fill="rgb(255,66,14)" stroke="none" d="M 3921,8165 L 4226,8165 4226,4242 3921,4242 3921,8165 Z"/>
 <path fill="rgb(255,66,14)" stroke="none" d="M 2700,8165 L 3005,8165 3005,5923 2700,5923 2700,8165 Z"/>
 <path fill="rgb(255,211,32)" stroke="none" d="M 15218,8165 L 15524,8165 15524,5269 15218,5269 15218,8165 Z"/>
 <path fill="rgb(255,211,32)" stroke="none" d="M 13997,8165 L 14302,8165 14302,5923 13997,5923 13997,8165 Z"/>
 <path fill="rgb(255,211,32)" stroke="none" d="M 12776,8165 L 13081,8165 13081,6763 12776,6763 12776,8165 Z"/>
 <path fill="rgb(255,211,32)" stroke="none" d="M 11554,8165 L 11859,8165 11859,6576 11554,6576 11554,8165 Z"/>
 <path fill="rgb(255,211,32)" stroke="none" d="M 10333,8165 L 10638,8165 10638,5829 10333,5829 10333,8165 Z"/>
 <path fill="rgb(255,211,32)" stroke="none" d="M 9111,8165 L 9417,8165 9417,5549 9111,5549 9111,8165 Z"/>
 <path fill="rgb(255,211,32)" stroke="none" d="M 7891,8165 L 8195,8165 8195,4055 7891,4055 7891,8165 Z"/>
 <path fill="rgb(255,211,32)" stroke="none" d="M 6669,8165 L 6975,8165 6975,2654 6669,2654 6669,8165 Z"/>
 <path fill="rgb(255,211,32)" stroke="none" d="M 5448,8165 L 5753,8165 5753,4615 5448,4615 5448,8165 Z"/>
 <path fill="rgb(255,211,32)" stroke="none" d="M 4226,8165 L 4532,8165 4532,4615 4226,4615 4226,8165 Z"/>
 <path fill="rgb(255,211,32)" stroke="none" d="M 3005,8165 L 3310,8165 3310,5923 3005,5923 3005,8165 Z"/>
 <text class="TextShape"><tspan class="TextParagraph" font-family="Liberation Sans, sans-serif" font-size="353px" font-weight="400"><tspan class="TextPosition" x="2442" y="8733"><tspan fill="rgb(0,0,0)" stroke="none">DM 1</tspan></tspan></tspan></text>
 <text class="TextShape"><tspan class="TextParagraph" font-family="Liberation Sans, sans-serif" font-size="353px" font-weight="400"><tspan class="TextPosition" x="3664" y="8733"><tspan fill="rgb(0,0,0)" stroke="none">DM 2</tspan></tspan></tspan></text>
 <text class="TextShape"><tspan class="TextParagraph" font-family="Liberation Sans, sans-serif" font-size="353px" font-weight="400"><tspan class="TextPosition" x="4885" y="8733"><tspan fill="rgb(0,0,0)" stroke="none">DM 3</tspan></tspan></tspan></text>
 <text class="TextShape"><tspan class="TextParagraph" font-family="Liberation Sans, sans-serif" font-size="353px" font-weight="400"><tspan class="TextPosition" x="6107" y="8733"><tspan fill="rgb(0,0,0)" stroke="none">DM 4</tspan></tspan></tspan></text>
 <text class="TextShape"><tspan class="TextParagraph" font-family="Liberation Sans, sans-serif" font-size="353px" font-weight="400"><tspan class="TextPosition" x="7328" y="8733"><tspan fill="rgb(0,0,0)" stroke="none">DM 5</tspan></tspan></tspan></text>
 <text class="TextShape"><tspan class="TextParagraph" font-family="Liberation Sans, sans-serif" font-size="353px" font-weight="400"><tspan class="TextPosition" x="8550" y="8733"><tspan fill="rgb(0,0,0)" stroke="none">DM 6</tspan></tspan></tspan></text>
 <text class="TextShape"><tspan class="TextParagraph" font-family="Liberation Sans, sans-serif" font-size="353px" font-weight="400"><tspan class="TextPosition" x="9771" y="8733"><tspan fill="rgb(0,0,0)" stroke="none">DM 7</tspan></tspan></tspan></text>
 <text class="TextShape"><tspan class="TextParagraph" font-family="Liberation Sans, sans-serif" font-size="353px" font-weight="400"><tspan class="TextPosition" x="10992" y="8733"><tspan fill="rgb(0,0,0)" stroke="none">DM 8</tspan></tspan></tspan></text>
 <text class="TextShape"><tspan class="TextParagraph" font-family="Liberation Sans, sans-serif" font-size="353px" font-weight="400"><tspan class="TextPosition" x="12214" y="8733"><tspan fill="rgb(0,0,0)" stroke="none">DM 9</tspan></tspan></tspan></text>
 <text class="TextShape"><tspan class="TextParagraph" font-family="Liberation Sans, sans-serif" font-size="353px" font-weight="400"><tspan class="TextPosition" x="13342" y="8733"><tspan fill="rgb(0,0,0)" stroke="none">DM 10</tspan></tspan></tspan></text>
 <text class="TextShape"><tspan class="TextParagraph" font-family="Liberation Sans, sans-serif" font-size="353px" font-weight="400"><tspan class="TextPosition" x="14564" y="8733"><tspan fill="rgb(0,0,0)" stroke="none">DM 11</tspan></tspan></tspan></text>
 <text class="TextShape"><tspan class="TextParagraph" font-family="Liberation Sans, sans-serif" font-size="353px" font-weight="400"><tspan class="TextPosition" x="1807" y="8286"><tspan fill="rgb(0,0,0)" stroke="none">0</tspan></tspan></tspan></text>
 <text class="TextShape"><tspan class="TextParagraph" font-family="Liberation Sans, sans-serif" font-size="353px" font-weight="400"><tspan class="TextPosition" x="1331" y="7818"><tspan fill="rgb(0,0,0)" stroke="none">0.05</tspan></tspan></tspan></text>
 <text class="TextShape"><tspan class="TextParagraph" font-family="Liberation Sans, sans-serif" font-size="353px" font-weight="400"><tspan class="TextPosition" x="1516" y="7351"><tspan fill="rgb(0,0,0)" stroke="none">0.1</tspan></tspan></tspan></text>
 <text class="TextShape"><tspan class="TextParagraph" font-family="Liberation Sans, sans-serif" font-size="353px" font-weight="400"><tspan class="TextPosition" x="1331" y="6884"><tspan fill="rgb(0,0,0)" stroke="none">0.15</tspan></tspan></tspan></text>
 <text class="TextShape"><tspan class="TextParagraph" font-family="Liberation Sans, sans-serif" font-size="353px" font-weight="400"><tspan class="TextPosition" x="1516" y="6417"><tspan fill="rgb(0,0,0)" stroke="none">0.2</tspan></tspan></tspan></text>
 <text class="TextShape"><tspan class="TextParagraph" font-family="Liberation Sans, sans-serif" font-size="353px" font-weight="400"><tspan class="TextPosition" x="1331" y="5950"><tspan fill="rgb(0,0,0)" stroke="none">0.25</tspan></tspan></tspan></text>
 <text class="TextShape"><tspan class="TextParagraph" font-family="Liberation Sans, sans-serif" font-size="353px" font-weight="400"><tspan class="TextPosition" x="1516" y="5483"><tspan fill="rgb(0,0,0)" stroke="none">0.3</tspan></tspan></tspan></text>
 <text class="TextShape"><tspan class="TextParagraph" font-family="Liberation Sans, sans-serif" font-size="353px" font-weight="400"><tspan class="TextPosition" x="1331" y="5016"><tspan fill="rgb(0,0,0)" stroke="none">0.35</tspan></tspan></tspan></text>
 <text class="TextShape"><tspan class="TextParagraph" font-family="Liberation Sans, sans-serif" font-size="353px" font-weight="400"><tspan class="TextPosition" x="1516" y="4549"><tspan fill="rgb(0,0,0)" stroke="none">0.4</tspan></tspan></tspan></text>
 <text class="TextShape"><tspan class="TextParagraph" font-family="Liberation Sans, sans-serif" font-size="353px" font-weight="400"><tspan class="TextPosition" x="1331" y="4082"><tspan fill="rgb(0,0,0)" stroke="none">0.45</tspan></tspan></tspan></text>
 <text class="TextShape"><tspan class="TextParagraph" font-family="Liberation Sans, sans-serif" font-size="353px" font-weight="400"><tspan class="TextPosition" x="1516" y="3615"><tspan fill="rgb(0,0,0)" stroke="none">0.5</tspan></tspan></tspan></text>
 <text class="TextShape"><tspan class="TextParagraph" font-family="Liberation Sans, sans-serif" font-size="353px" font-weight="400"><tspan class="TextPosition" x="1331" y="3148"><tspan fill="rgb(0,0,0)" stroke="none">0.55</tspan></tspan></tspan></text>
 <text class="TextShape"><tspan class="TextParagraph" font-family="Liberation Sans, sans-serif" font-size="353px" font-weight="400"><tspan class="TextPosition" x="1516" y="2681"><tspan fill="rgb(0,0,0)" stroke="none">0.6</tspan></tspan></tspan></text>
 <text class="TextShape"><tspan class="TextParagraph" font-family="Liberation Sans, sans-serif" font-size="353px" font-weight="400"><tspan class="TextPosition" x="1331" y="2214"><tspan fill="rgb(0,0,0)" stroke="none">0.65</tspan></tspan></tspan></text>
 <text class="TextShape"><tspan class="TextParagraph" font-family="Liberation Sans, sans-serif" font-size="353px" font-weight="400"><tspan class="TextPosition" x="1516" y="1747"><tspan fill="rgb(0,0,0)" stroke="none">0.7</tspan></tspan></tspan></text>
 <text class="TextShape"><tspan class="TextParagraph" font-family="Liberation Sans, sans-serif" font-size="353px" font-weight="400"><tspan class="TextPosition" x="1331" y="1280"><tspan fill="rgb(0,0,0)" stroke="none">0.75</tspan></tspan></tspan></text>
 <path fill="rgb(0,69,134)" stroke="none" d="M 4107,589 L 4002,589 4002,378 4213,378 4213,589 4107,589 Z"/>
 <path fill="rgb(255,66,14)" stroke="none" d="M 6822,589 L 6717,589 6717,378 6928,378 6928,589 6822,589 Z"/>
 <path fill="rgb(255,211,32)" stroke="none" d="M 9616,589 L 9510,589 9510,378 9721,378 9721,589 9616,589 Z"/>
 <text class="TextShape"><tspan class="TextParagraph" font-family="Liberation Sans, sans-serif" font-size="353px" font-weight="400"><tspan class="TextPosition" x="4313" y="603"><tspan fill="rgb(0,0,0)" stroke="none">1st interaction</tspan></tspan></tspan></text>
 <text class="TextShape"><tspan class="TextParagraph" font-family="Liberation Sans, sans-serif" font-size="353px" font-weight="400"><tspan class="TextPosition" x="7028" y="603"><tspan fill="rgb(0,0,0)" stroke="none">2nd interaction</tspan></tspan></tspan></text>
 <text class="TextShape"><tspan class="TextParagraph" font-family="Liberation Sans, sans-serif" font-size="353px" font-weight="400"><tspan class="TextPosition" x="9821" y="603"><tspan fill="rgb(0,0,0)" stroke="none">3rd interaction</tspan></tspan></tspan></text>
 <text class="TextShape" transform="rotate(-90 837 6634)"><tspan class="TextParagraph" font-family="Liberation Sans, sans-serif" font-size="318px" font-weight="400"><tspan class="TextPosition" x="837" y="6634"><tspan fill="rgb(0,0,0)" stroke="none">root mean squared error</tspan></tspan></tspan></text>
</svg>