<?xml version="1.0" encoding="UTF-8"?>
<!DOCTYPE svg PUBLIC "-//W3C//DTD SVG 1.1//EN" "http://www.w3.org/Graphics/SVG/1.1/DTD/svg11.dtd">
<svg width="160mm" height="90mm" viewBox="0 0 16000 9000" version="1.1" xmlns="http://www.w3.org/2000/svg" xmlns:xlink="http://www.w3.org/1999/xlink" stroke-width="28.222" stroke-linejoin="round" xml:space="preserve">
 <path fill="rgb(255,255,255)" stroke="none" d="M 7998,8992 L 0,8992 0,0 15996,0 15996,8992 7998,8992 Z"/>
 <path fill="none" stroke="rgb(179,179,179)" stroke-linejoin="round" d="M 8959,8166 L 2242,8166 2242,1161 15677,1161 15677,8166 8959,8166 Z"/>
 <path fill="none" stroke="rgb(179,179,179)" stroke-linejoin="round" d="M 15677,8165 L 2242,8165"/>
 <path fill="none" stroke="rgb(179,179,179)" stroke-linejoin="round" d="M 15677,7464 L 2242,7464"/>
 <path fill="none" stroke="rgb(179,179,179)" stroke-linejoin="round" d="M 15677,6763 L 2242,6763"/>
 <path fill="none" stroke="rgb(179,179,179)" stroke-linejoin="round" d="M 15677,6063 L 2242,6063"/>
 <path fill="none" stroke="rgb(179,179,179)" stroke-linejoin="round" d="M 15677,5362 L 2242,5362"/>
 <path fill="none" stroke="rgb(179,179,179)" stroke-linejoin="round" d="M 15677,4662 L 2242,4662"/>
 <path fill="none" stroke="rgb(179,179,179)" stroke-linejoin="round" d="M 15677,3962 L 2242,3962"/>
 <path fill="none" stroke="rgb(179,179,179)" stroke-linejoin="round" d="M 15677,3261 L 2242,3261"/>
 <path fill="none" stroke="rgb(179,179,179)" stroke-linejoin="round" d="M 15677,2561 L 2242,2561"/>
 <path fill="none" stroke="rgb(179,179,179)" stroke-linejoin="round" d="M 15677,1860 L 2242,1860"/>
 <path fill="none" stroke="rgb(179,179,179)" stroke-linejoin="round" d="M 15677,1160 L 2242,1160"/>
 <path fill="none" stroke="rgb(179,179,179)" stroke-linejoin="round" d="M 2242,8315 L 2242,8165"/>
 <path fill="none" stroke="rgb(179,179,179)" stroke-linejoin="round" d="M 2242,8315 L 2242,8165"/>
 <path fill="none" stroke="rgb(179,179,179)" stroke-linejoin="round" d="M 3463,8315 L 3463,8165"/>
 <path fill="none" stroke="rgb(179,179,179)" stroke-linejoin="round" d="M 3463,8315 L 3463,8165"/>
 <path fill="none" stroke="rgb(179,179,179)" stroke-linejoin="round" d="M 4684,8315 L 4684,8165"/>
 <path fill="none" stroke="rgb(179,179,179)" stroke-linejoin="round" d="M 4684,8315 L 4684,8165"/>
 <path fill="none" stroke="rgb(179,179,179)" stroke-linejoin="round" d="M 5906,8315 L 5906,8165"/>
 <path fill="none" stroke="rgb(179,179,179)" stroke-linejoin="round" d="M 5906,8315 L 5906,8165"/>
 <path fill="none" stroke="rgb(179,179,179)" stroke-linejoin="round" d="M 7127,8315 L 7127,8165"/>
 <path fill="none" stroke="rgb(179,179,179)" stroke-linejoin="round" d="M 7127,8315 L 7127,8165"/>
 <path fill="none" stroke="rgb(179,179,179)" stroke-linejoin="round" d="M 8348,8315 L 8348,8165"/>
 <path fill="none" stroke="rgb(179,179,179)" stroke-linejoin="round" d="M 8348,8315 L 8348,8165"/>
 <path fill="none" stroke="rgb(179,179,179)" stroke-linejoin="round" d="M 9569,8315 L 9569,8165"/>
 <path fill="none" stroke="rgb(179,179,179)" stroke-linejoin="round" d="M 9569,8315 L 9569,8165"/>
 <path fill="none" stroke="rgb(179,179,179)" stroke-linejoin="round" d="M 10791,8315 L 10791,8165"/>
 <path fill="none" stroke="rgb(179,179,179)" stroke-linejoin="round" d="M 10791,8315 L 10791,8165"/>
 <path fill="none" stroke="rgb(179,179,179)" stroke-linejoin="round" d="M 12012,8315 L 12012,8165"/>
 <path fill="none" stroke="rgb(179,179,179)" stroke-linejoin="round" d="M 12012,8315 L 12012,8165"/>
 <path fill="none" stroke="rgb(179,179,179)" stroke-linejoin="round" d="M 13234,8315 L 13234,8165"/>
 <path fill="none" stroke="rgb(179,179,179)" stroke-linejoin="round" d="M 13234,8315 L 13234,8165"/>
 <path fill="none" stroke="rgb(179,179,179)" stroke-linejoin="round" d="M 14455,8315 L 14455,8165"/>
 <path fill="none" stroke="rgb(179,179,179)" stroke-linejoin="round" d="M 14455,8315 L 14455,8165"/>
 <path fill="none" stroke="rgb(179,179,179)" stroke-linejoin="round" d="M 15677,8315 L 15677,8165"/>
 <path fill="none" stroke="rgb(179,179,179)" stroke-linejoin="round" d="M 15677,8315 L 15677,8165"/>
 <path fill="none" stroke="rgb(179,179,179)" stroke-linejoin="round" d="M 2242,8165 L 15677,8165"/>
 <path fill="none" stroke="rgb(179,179,179)" stroke-linejoin="round" d="M 2092,8165 L 2242,8165"/>
 <path fill="none" stroke="rgb(179,179,179)" stroke-linejoin="round" d="M 2092,8165 L 2242,8165"/>
 <path fill="none" stroke="rgb(179,179,179)" stroke-linejoin="round" d="M 2092,7464 L 2242,7464"/>
 <path fill="none" stroke="rgb(179,179,179)" stroke-linejoin="round" d="M 2092,7464 L 2242,7464"/>
 <path fill="none" stroke="rgb(179,179,179)" stroke-linejoin="round" d="M 2092,6763 L 2242,6763"/>
 <path fill="none" stroke="rgb(179,179,179)" stroke-linejoin="round" d="M 2092,6763 L 2242,6763"/>
 <path fill="none" stroke="rgb(179,179,179)" stroke-linejoin="round" d="M 2092,6063 L 2242,6063"/>
 <path fill="none" stroke="rgb(179,179,179)" stroke-linejoin="round" d="M 2092,6063 L 2242,6063"/>
 <path fill="none" stroke="rgb(179,179,179)" stroke-linejoin="round" d="M 2092,5362 L 2242,5362"/>
 <path fill="none" stroke="rgb(179,179,179)" stroke-linejoin="round" d="M 2092,5362 L 2242,5362"/>
 <path fill="none" stroke="rgb(179,179,179)" stroke-linejoin="round" d="M 2092,4662 L 2242,4662"/>
 <path fill="none" stroke="rgb(179,179,179)" stroke-linejoin="round" d="M 2092,4662 L 2242,4662"/>
 <path fill="none" stroke="rgb(179,179,179)" stroke-linejoin="round" d="M 2092,3962 L 2242,3962"/>
 <path fill="none" stroke="rgb(179,179,179)" stroke-linejoin="round" d="M 2092,3962 L 2242,3962"/>
 <path fill="none" stroke="rgb(179,179,179)" stroke-linejoin="round" d="M 2092,3261 L 2242,3261"/>
 <path fill="none" stroke="rgb(179,179,179)" stroke-linejoin="round" d="M 2092,3261 L 2242,3261"/>
 <path fill="none" stroke="rgb(179,179,179)" stroke-linejoin="round" d="M 2092,2561 L 2242,2561"/>
 <path fill="none" stroke="rgb(179,179,179)" stroke-linejoin="round" d="M 2092,2561 L 2242,2561"/>
 <path fill="none" stroke="rgb(179,179,179)" stroke-linejoin="round" d="M 2092,1860 L 2242,1860"/>
 <path fill="none" stroke="rgb(179,179,179)" stroke-linejoin="round" d="M 2092,1860 L 2242,1860"/>
 <path fill="none" stroke="rgb(179,179,179)" stroke-linejoin="round" d="M 2092,1160 L 2242,1160"/>
 <path fill="none" stroke="rgb(179,179,179)" stroke-linejoin="round" d="M 2092,1160 L 2242,1160"/>
 <path fill="none" stroke="rgb(179,179,179)" stroke-linejoin="round" d="M 2242,8165 L 2242,1160"/>
 <path fill="rgb(0,69,134)" stroke="none" d="M 14608,8165 L 14913,8165 14913,5222 14608,5222 14608,8165 Z"/>
 <path fill="rgb(0,69,134)" stroke="none" d="M 13386,8165 L 13692,8165 13692,6063 13386,6063 13386,8165 Z"/>
 <path fill="rgb(0,69,134)" stroke="none" d="M 12165,8165 L 12470,8165 12470,6903 12165,6903 12165,8165 Z"/>
 <path fill="rgb(0,69,134)" stroke="none" d="M 10943,8165 L 11249,8165 11249,5642 10943,5642 10943,8165 Z"/>
 <path fill="rgb(0,69,134)" stroke="none" d="M 9722,8165 L 10027,8165 10027,4521 9722,4521 9722,8165 Z"/>
 <path fill="rgb(0,69,134)" stroke="none" d="M 8500,8165 L 8806,8165 8806,4662 8500,4662 8500,8165 Z"/>
 <path fill="rgb(0,69,134)" stroke="none" d="M 7280,8165 L 7585,8165 7585,3962 7280,3962 7280,8165 Z"/>
 <path fill="rgb(0,69,134)" stroke="none" d="M 6059,8165 L 6364,8165 6364,2841 6059,2841 6059,8165 Z"/>
 <path fill="rgb(0,69,134)" stroke="none" d="M 4837,8165 L 5142,8165 5142,3962 4837,3962 4837,8165 Z"/>
 <path fill="rgb(0,69,134)" stroke="none" d="M 3616,8165 L 3921,8165 3921,4802 3616,4802 3616,8165 Z"/>
 <path fill="rgb(0,69,134)" stroke="none" d="M 2394,8165 L 2700,8165 2700,5502 2394,5502 2394,8165 Z"/>
 <path fill="rgb(255,66,14)" stroke="none" d="M 14913,8165 L 15218,8165 15218,7604 14913,7604 14913,8165 Z"/>
 <path fill="rgb(255,66,14)" stroke="none" d="M 13692,8165 L 13997,8165 13997,8024 13692,8024 13692,8165 Z"/>
 <path fill="rgb(255,66,14)" stroke="none" d="M 12470,8165 L 12776,8165 12776,8165 12470,8165 Z"/>
 <path fill="rgb(255,66,14)" stroke="none" d="M 11249,8165 L 11554,8165 11554,7884 11249,7884 11249,8165 Z"/>
 <path fill="rgb(255,66,14)" stroke="none" d="M 10027,8165 L 10333,8165 10333,7884 10027,7884 10027,8165 Z"/>
 <path fill="rgb(255,66,14)" stroke="none" d="M 8806,8165 L 9111,8165 9111,7464 8806,7464 8806,8165 Z"/>
 <path fill="rgb(255,66,14)" stroke="none" d="M 7585,8165 L 7891,8165 7891,7184 7585,7184 7585,8165 Z"/>
 <path fill="rgb(255,66,14)" stroke="none" d="M 6364,8165 L 6669,8165 6669,7324 6364,7324 6364,8165 Z"/>
 <path fill="rgb(255,66,14)" stroke="none" d="M 5142,8165 L 5448,8165 5448,6903 5142,6903 5142,8165 Z"/>
 <path fill="rgb(255,66,14)" stroke="none" d="M 3921,8165 L 4226,8165 4226,7604 3921,7604 3921,8165 Z"/>
 <path fill="rgb(255,66,14)" stroke="none" d="M 2700,8165 L 3005,8165 3005,8024 2700,8024 2700,8165 Z"/>
 <path fill="rgb(255,211,32)" stroke="none" d="M 15218,8165 L 15524,8165 15524,7464 15218,7464 15218,8165 Z"/>
 <path fill="rgb(255,211,32)" stroke="none" d="M 13997,8165 L 14302,8165 14302,6903 13997,6903 13997,8165 Z"/>
 <path fill="rgb(255,211,32)" stroke="none" d="M 12776,8165 L 13081,8165 13081,7184 12776,7184 12776,8165 Z"/>
 <path fill="rgb(255,211,32)" stroke="none" d="M 11554,8165 L 11859,8165 11859,7044 11554,7044 11554,8165 Z"/>
 <path fill="rgb(255,211,32)" stroke="none" d="M 10333,8165 L 10638,8165 10638,6623 10333,6623 10333,8165 Z"/>
 <path fill="rgb(255,211,32)" stroke="none" d="M 9111,8165 L 9417,8165 9417,6763 9111,6763 9111,8165 Z"/>
 <path fill="rgb(255,211,32)" stroke="none" d="M 7891,8165 L 8195,8165 8195,6623 7891,6623 7891,8165 Z"/>
 <path fill="rgb(255,211,32)" stroke="none" d="M 6669,8165 L 6975,8165 6975,5782 6669,5782 6669,8165 Z"/>
 <path fill="rgb(255,211,32)" stroke="none" d="M 5448,8165 L 5753,8165 5753,7324 5448,7324 5448,8165 Z"/>
 <path fill="rgb(255,211,32)" stroke="none" d="M 4226,8165 L 4532,8165 4532,6763 4226,6763 4226,8165 Z"/>
 <path fill="rgb(255,211,32)" stroke="none" d="M 3005,8165 L 3310,8165 3310,7604 3005,7604 3005,8165 Z"/>
 <text class="TextShape"><tspan class="TextParagraph" font-family="Liberation Sans, sans-serif" font-size="353px" font-weight="400"><tspan class="TextPosition" x="2442" y="8733"><tspan fill="rgb(0,0,0)" stroke="none">DM 1</tspan></tspan></tspan></text>
 <text class="TextShape"><tspan class="TextParagraph" font-family="Liberation Sans, sans-serif" font-size="353px" font-weight="400"><tspan class="TextPosition" x="3664" y="8733"><tspan fill="rgb(0,0,0)" stroke="none">DM 2</tspan></tspan></tspan></text>
 <text class="TextShape"><tspan class="TextParagraph" font-family="Liberation Sans, sans-serif" font-size="353px" font-weight="400"><tspan class="TextPosition" x="4885" y="8733"><tspan fill="rgb(0,0,0)" stroke="none">DM 3</tspan></tspan></tspan></text>
 <text class="TextShape"><tspan class="TextParagraph" font-family="Liberation Sans, sans-serif" font-size="353px" font-weight="400"><tspan class="TextPosition" x="6107" y="8733"><tspan fill="rgb(0,0,0)" stroke="none">DM 4</tspan></tspan></tspan></text>
 <text class="TextShape"><tspan class="TextParagraph" font-family="Liberation Sans, sans-serif" font-size="353px" font-weight="400"><tspan class="TextPosition" x="7328" y="8733"><tspan fill="rgb(0,0,0)" stroke="none">DM 5</tspan></tspan></tspan></text>
 <text class="TextShape"><tspan class="TextParagraph" font-family="Liberation Sans, sans-serif" font-size="353px" font-weight="400"><tspan class="TextPosition" x="8550" y="8733"><tspan fill="rgb(0,0,0)" stroke="none">DM 6</tspan></tspan></tspan></text>
 <text class="TextShape"><tspan class="TextParagraph" font-family="Liberation Sans, sans-serif" font-size="353px" font-weight="400"><tspan class="TextPosition" x="9771" y="8733"><tspan fill="rgb(0,0,0)" stroke="none">DM 7</tspan></tspan></tspan></text>
 <text class="TextShape"><tspan class="TextParagraph" font-family="Liberation Sans, sans-serif" font-size="353px" font-weight="400"><tspan class="TextPosition" x="10992" y="8733"><tspan fill="rgb(0,0,0)" stroke="none">DM 8</tspan></tspan></tspan></text>
 <text class="TextShape"><tspan class="TextParagraph" font-family="Liberation Sans, sans-serif" font-size="353px" font-weight="400"><tspan class="TextPosition" x="12214" y="8733"><tspan fill="rgb(0,0,0)" stroke="none">DM 9</tspan></tspan></tspan></text>
 <text class="TextShape"><tspan class="TextParagraph" font-family="Liberation Sans, sans-serif" font-size="353px" font-weight="400"><tspan class="TextPosition" x="13342" y="8733"><tspan fill="rgb(0,0,0)" stroke="none">DM 10</tspan></tspan></tspan></text>
 <text class="TextShape"><tspan class="TextParagraph" font-family="Liberation Sans, sans-serif" font-size="353px" font-weight="400"><tspan class="TextPosition" x="14564" y="8733"><tspan fill="rgb(0,0,0)" stroke="none">DM 11</tspan></tspan></tspan></text>
 <text class="TextShape"><tspan class="TextParagraph" font-family="Liberation Sans, sans-serif" font-size="353px" font-weight="400"><tspan class="TextPosition" x="1807" y="8286"><tspan fill="rgb(0,0,0)" stroke="none">0</tspan></tspan></tspan></text>
 <text class="TextShape"><tspan class="TextParagraph" font-family="Liberation Sans, sans-serif" font-size="353px" font-weight="400"><tspan class="TextPosition" x="1331" y="7585"><tspan fill="rgb(0,0,0)" stroke="none">0.05</tspan></tspan></tspan></text>
 <text class="TextShape"><tspan class="TextParagraph" font-family="Liberation Sans, sans-serif" font-size="353px" font-weight="400"><tspan class="TextPosition" x="1516" y="6884"><tspan fill="rgb(0,0,0)" stroke="none">0.1</tspan></tspan></tspan></text>
 <text class="TextShape"><tspan class="TextParagraph" font-family="Liberation Sans, sans-serif" font-size="353px" font-weight="400"><tspan class="TextPosition" x="1331" y="6184"><tspan fill="rgb(0,0,0)" stroke="none">0.15</tspan></tspan></tspan></text>
 <text class="TextShape"><tspan class="TextParagraph" font-family="Liberation Sans, sans-serif" font-size="353px" font-weight="400"><tspan class="TextPosition" x="1516" y="5483"><tspan fill="rgb(0,0,0)" stroke="none">0.2</tspan></tspan></tspan></text>
 <text class="TextShape"><tspan class="TextParagraph" font-family="Liberation Sans, sans-serif" font-size="353px" font-weight="400"><tspan class="TextPosition" x="1331" y="4783"><tspan fill="rgb(0,0,0)" stroke="none">0.25</tspan></tspan></tspan></text>
 <text class="TextShape"><tspan class="TextParagraph" font-family="Liberation Sans, sans-serif" font-size="353px" font-weight="400"><tspan class="TextPosition" x="1516" y="4082"><tspan fill="rgb(0,0,0)" stroke="none">0.3</tspan></tspan></tspan></text>
 <text class="TextShape"><tspan class="TextParagraph" font-family="Liberation Sans, sans-serif" font-size="353px" font-weight="400"><tspan class="TextPosition" x="1331" y="3381"><tspan fill="rgb(0,0,0)" stroke="none">0.35</tspan></tspan></tspan></text>
 <text class="TextShape"><tspan class="TextParagraph" font-family="Liberation Sans, sans-serif" font-size="353px" font-weight="400"><tspan class="TextPosition" x="1516" y="2681"><tspan fill="rgb(0,0,0)" stroke="none">0.4</tspan></tspan></tspan></text>
 <text class="TextShape"><tspan class="TextParagraph" font-family="Liberation Sans, sans-serif" font-size="353px" font-weight="400"><tspan class="TextPosition" x="1331" y="1980"><tspan fill="rgb(0,0,0)" stroke="none">0.45</tspan></tspan></tspan></text>
 <text class="TextShape"><tspan class="TextParagraph" font-family="Liberation Sans, sans-serif" font-size="353px" font-weight="400"><tspan class="TextPosition" x="1516" y="1280"><tspan fill="rgb(0,0,0)" stroke="none">0.5</tspan></tspan></tspan></text>
 <path fill="rgb(0,69,134)" stroke="none" d="M 4107,589 L 4002,589 4002,378 4213,378 4213,589 4107,589 Z"/>
 <path fill="rgb(255,66,14)" stroke="none" d="M 6822,589 L 6717,589 6717,378 6928,378 6928,589 6822,589 Z"/>
 <path fill="rgb(255,211,32)" stroke="none" d="M 9616,589 L 9510,589 9510,378 9721,378 9721,589 9616,589 Z"/>
 <text class="TextShape"><tspan class="TextParagraph" font-family="Liberation Sans, sans-serif" font-size="353px" font-weight="400"><tspan class="TextPosition" x="4313" y="603"><tspan fill="rgb(0,0,0)" stroke="none">1st interaction</tspan></tspan></tspan></text>
 <text class="TextShape"><tspan class="TextParagraph" font-family="Liberation Sans, sans-serif" font-size="353px" font-weight="400"><tspan class="TextPosition" x="7028" y="603"><tspan fill="rgb(0,0,0)" stroke="none">2nd interaction</tspan></tspan></tspan></text>
 <text class="TextShape"><tspan class="TextParagraph" font-family="Liberation Sans, sans-serif" font-size="353px" font-weight="400"><tspan class="TextPosition" x="9821" y="603"><tspan fill="rgb(0,0,0)" stroke="none">3rd interaction</tspan></tspan></tspan></text>
 <text class="TextShape" transform="rotate(-90 837 6634)"><tspan class="TextParagraph" font-family="Liberation Sans, sans-serif" font-size="318px" font-weight="400"><tspan class="TextPosition" x="837" y="6634"><tspan fill="rgb(0,0,0)" stroke="none">root mean squared error</tspan></tspan></tspan></text>
</svg>