<?xml version="1.0" encoding="UTF-8"?>
<!DOCTYPE svg PUBLIC "-//W3C//DTD SVG 1.1//EN" "http://www.w3.org/Graphics/SVG/1.1/DTD/svg11.dtd">
<svg width="160mm" height="90mm" viewBox="0 0 16000 9000" version="1.1" xmlns="http://www.w3.org/2000/svg" xmlns:xlink="http://www.w3.org/1999/xlink" stroke-width="28.222" stroke-linejoin="round" xml:space="preserve">
 <path fill="rgb(255,255,255)" stroke="none" d="M 8000,8999 L 0,8999 0,0 15999,0 15999,8999 8000,8999 Z"/>
 <path fill="none" stroke="rgb(179,179,179)" stroke-linejoin="round" d="M 9477,8172 L 3275,8172 3275,1162 15679,1162 15679,8172 9477,8172 Z"/>
 <path fill="none" stroke="rgb(179,179,179)" stroke-linejoin="round" d="M 15679,8171 L 3275,8171"/>
 <path fill="none" stroke="rgb(179,179,179)" stroke-linejoin="round" d="M 15679,6768 L 3275,6768"/>
 <path fill="none" stroke="rgb(179,179,179)" stroke-linejoin="round" d="M 15679,5366 L 3275,5366"/>
 <path fill="none" stroke="rgb(179,179,179)" stroke-linejoin="round" d="M 15679,3965 L 3275,3965"/>
 <path fill="none" stroke="rgb(179,179,179)" stroke-linejoin="round" d="M 15679,2563 L 3275,2563"/>
 <path fill="none" stroke="rgb(179,179,179)" stroke-linejoin="round" d="M 15679,1161 L 3275,1161"/>
 <path fill="none" stroke="rgb(179,179,179)" stroke-linejoin="round" d="M 3275,8321 L 3275,8171"/>
 <path fill="none" stroke="rgb(179,179,179)" stroke-linejoin="round" d="M 3275,8321 L 3275,8171"/>
 <path fill="none" stroke="rgb(179,179,179)" stroke-linejoin="round" d="M 4402,8321 L 4402,8171"/>
 <path fill="none" stroke="rgb(179,179,179)" stroke-linejoin="round" d="M 4402,8321 L 4402,8171"/>
 <path fill="none" stroke="rgb(179,179,179)" stroke-linejoin="round" d="M 5530,8321 L 5530,8171"/>
 <path fill="none" stroke="rgb(179,179,179)" stroke-linejoin="round" d="M 5530,8321 L 5530,8171"/>
 <path fill="none" stroke="rgb(179,179,179)" stroke-linejoin="round" d="M 6658,8321 L 6658,8171"/>
 <path fill="none" stroke="rgb(179,179,179)" stroke-linejoin="round" d="M 6658,8321 L 6658,8171"/>
 <path fill="none" stroke="rgb(179,179,179)" stroke-linejoin="round" d="M 7785,8321 L 7785,8171"/>
 <path fill="none" stroke="rgb(179,179,179)" stroke-linejoin="round" d="M 7785,8321 L 7785,8171"/>
 <path fill="none" stroke="rgb(179,179,179)" stroke-linejoin="round" d="M 8912,8321 L 8912,8171"/>
 <path fill="none" stroke="rgb(179,179,179)" stroke-linejoin="round" d="M 8912,8321 L 8912,8171"/>
 <path fill="none" stroke="rgb(179,179,179)" stroke-linejoin="round" d="M 10040,8321 L 10040,8171"/>
 <path fill="none" stroke="rgb(179,179,179)" stroke-linejoin="round" d="M 10040,8321 L 10040,8171"/>
 <path fill="none" stroke="rgb(179,179,179)" stroke-linejoin="round" d="M 11168,8321 L 11168,8171"/>
 <path fill="none" stroke="rgb(179,179,179)" stroke-linejoin="round" d="M 11168,8321 L 11168,8171"/>
 <path fill="none" stroke="rgb(179,179,179)" stroke-linejoin="round" d="M 12295,8321 L 12295,8171"/>
 <path fill="none" stroke="rgb(179,179,179)" stroke-linejoin="round" d="M 12295,8321 L 12295,8171"/>
 <path fill="none" stroke="rgb(179,179,179)" stroke-linejoin="round" d="M 13423,8321 L 13423,8171"/>
 <path fill="none" stroke="rgb(179,179,179)" stroke-linejoin="round" d="M 13423,8321 L 13423,8171"/>
 <path fill="none" stroke="rgb(179,179,179)" stroke-linejoin="round" d="M 14551,8321 L 14551,8171"/>
 <path fill="none" stroke="rgb(179,179,179)" stroke-linejoin="round" d="M 14551,8321 L 14551,8171"/>
 <path fill="none" stroke="rgb(179,179,179)" stroke-linejoin="round" d="M 15679,8321 L 15679,8171"/>
 <path fill="none" stroke="rgb(179,179,179)" stroke-linejoin="round" d="M 15679,8321 L 15679,8171"/>
 <path fill="none" stroke="rgb(179,179,179)" stroke-linejoin="round" d="M 3275,8171 L 15679,8171"/>
 <path fill="none" stroke="rgb(179,179,179)" stroke-linejoin="round" d="M 3125,8171 L 3275,8171"/>
 <path fill="none" stroke="rgb(179,179,179)" stroke-linejoin="round" d="M 3125,8171 L 3275,8171"/>
 <path fill="none" stroke="rgb(179,179,179)" stroke-linejoin="round" d="M 3125,6768 L 3275,6768"/>
 <path fill="none" stroke="rgb(179,179,179)" stroke-linejoin="round" d="M 3125,6768 L 3275,6768"/>
 <path fill="none" stroke="rgb(179,179,179)" stroke-linejoin="round" d="M 3125,5366 L 3275,5366"/>
 <path fill="none" stroke="rgb(179,179,179)" stroke-linejoin="round" d="M 3125,5366 L 3275,5366"/>
 <path fill="none" stroke="rgb(179,179,179)" stroke-linejoin="round" d="M 3125,3965 L 3275,3965"/>
 <path fill="none" stroke="rgb(179,179,179)" stroke-linejoin="round" d="M 3125,3965 L 3275,3965"/>
 <path fill="none" stroke="rgb(179,179,179)" stroke-linejoin="round" d="M 3125,2563 L 3275,2563"/>
 <path fill="none" stroke="rgb(179,179,179)" stroke-linejoin="round" d="M 3125,2563 L 3275,2563"/>
 <path fill="none" stroke="rgb(179,179,179)" stroke-linejoin="round" d="M 3125,1161 L 3275,1161"/>
 <path fill="none" stroke="rgb(179,179,179)" stroke-linejoin="round" d="M 3125,1161 L 3275,1161"/>
 <path fill="none" stroke="rgb(179,179,179)" stroke-linejoin="round" d="M 3275,8171 L 3275,1161"/>
 <path fill="rgb(0,69,134)" stroke="none" d="M 14631,8171 L 14792,8171 14792,3215 14631,3215 14631,8171 Z"/>
 <path fill="rgb(0,69,134)" stroke="none" d="M 13504,8171 L 13665,8171 13665,3978 13504,3978 13504,8171 Z"/>
 <path fill="rgb(0,69,134)" stroke="none" d="M 12376,8171 L 12537,8171 12537,4398 12376,4398 12376,8171 Z"/>
 <path fill="rgb(0,69,134)" stroke="none" d="M 11248,8171 L 11409,8171 11409,4201 11248,4201 11248,8171 Z"/>
 <path fill="rgb(0,69,134)" stroke="none" d="M 10120,8171 L 10282,8171 10282,4616 10120,4616 10120,8171 Z"/>
 <path fill="rgb(0,69,134)" stroke="none" d="M 8993,8171 L 9154,8171 9154,4066 8993,4066 8993,8171 Z"/>
 <path fill="rgb(0,69,134)" stroke="none" d="M 7866,8171 L 8026,8171 8026,4034 7866,4034 7866,8171 Z"/>
 <path fill="rgb(0,69,134)" stroke="none" d="M 6738,8171 L 6899,8171 6899,4451 6738,4451 6738,8171 Z"/>
 <path fill="rgb(0,69,134)" stroke="none" d="M 5611,8171 L 5772,8171 5772,4023 5611,4023 5611,8171 Z"/>
 <path fill="rgb(0,69,134)" stroke="none" d="M 4483,8171 L 4644,8171 4644,3869 4483,3869 4483,8171 Z"/>
 <path fill="rgb(0,69,134)" stroke="none" d="M 3355,8171 L 3516,8171 3516,4118 3355,4118 3355,8171 Z"/>
 <path fill="rgb(255,66,14)" stroke="none" d="M 14792,8171 L 14954,8171 14954,2228 14792,2228 14792,8171 Z"/>
 <path fill="rgb(255,66,14)" stroke="none" d="M 13665,8171 L 13826,8171 13826,2995 13665,2995 13665,8171 Z"/>
 <path fill="rgb(255,66,14)" stroke="none" d="M 12537,8171 L 12698,8171 12698,3419 12537,3419 12537,8171 Z"/>
 <path fill="rgb(255,66,14)" stroke="none" d="M 11409,8171 L 11570,8171 11570,3232 11409,3232 11409,8171 Z"/>
 <path fill="rgb(255,66,14)" stroke="none" d="M 10282,8171 L 10443,8171 10443,3634 10282,3634 10282,8171 Z"/>
 <path fill="rgb(255,66,14)" stroke="none" d="M 9154,8171 L 9315,8171 9315,3083 9154,3083 9154,8171 Z"/>
 <path fill="rgb(255,66,14)" stroke="none" d="M 8026,8171 L 8187,8171 8187,3050 8026,3050 8026,8171 Z"/>
 <path fill="rgb(255,66,14)" stroke="none" d="M 6899,8171 L 7060,8171 7060,3475 6899,3475 6899,8171 Z"/>
 <path fill="rgb(255,66,14)" stroke="none" d="M 5772,8171 L 5933,8171 5933,3052 5772,3052 5772,8171 Z"/>
 <path fill="rgb(255,66,14)" stroke="none" d="M 4644,8171 L 4805,8171 4805,2888 4644,2888 4644,8171 Z"/>
 <path fill="rgb(255,66,14)" stroke="none" d="M 3516,8171 L 3677,8171 3677,3126 3516,3126 3516,8171 Z"/>
 <path fill="rgb(255,211,32)" stroke="none" d="M 14954,8171 L 15115,8171 15115,3595 14954,3595 14954,8171 Z"/>
 <path fill="rgb(255,211,32)" stroke="none" d="M 13826,8171 L 13987,8171 13987,4376 13826,4376 13826,8171 Z"/>
 <path fill="rgb(255,211,32)" stroke="none" d="M 12698,8171 L 12859,8171 12859,4818 12698,4818 12698,8171 Z"/>
 <path fill="rgb(255,211,32)" stroke="none" d="M 11570,8171 L 11731,8171 11731,4634 11570,4634 11570,8171 Z"/>
 <path fill="rgb(255,211,32)" stroke="none" d="M 10443,8171 L 10604,8171 10604,5024 10443,5024 10443,8171 Z"/>
 <path fill="rgb(255,211,32)" stroke="none" d="M 9315,8171 L 9476,8171 9476,4468 9315,4468 9315,8171 Z"/>
 <path fill="rgb(255,211,32)" stroke="none" d="M 8187,8171 L 8348,8171 8348,4396 8187,4396 8187,8171 Z"/>
 <path fill="rgb(255,211,32)" stroke="none" d="M 7060,8171 L 7222,8171 7222,4826 7060,4826 7060,8171 Z"/>
 <path fill="rgb(255,211,32)" stroke="none" d="M 5933,8171 L 6094,8171 6094,4415 5933,4415 5933,8171 Z"/>
 <path fill="rgb(255,211,32)" stroke="none" d="M 4805,8171 L 4966,8171 4966,4241 4805,4241 4805,8171 Z"/>
 <path fill="rgb(255,211,32)" stroke="none" d="M 3677,8171 L 3838,8171 3838,4500 3677,4500 3677,8171 Z"/>
 <path fill="rgb(87,157,28)" stroke="none" d="M 15115,8171 L 15276,8171 15276,5231 15115,5231 15115,8171 Z"/>
 <path fill="rgb(87,157,28)" stroke="none" d="M 13987,8171 L 14148,8171 14148,6280 13987,6280 13987,8171 Z"/>
 <path fill="rgb(87,157,28)" stroke="none" d="M 12859,8171 L 13020,8171 13020,7342 12859,7342 12859,8171 Z"/>
 <path fill="rgb(87,157,28)" stroke="none" d="M 11731,8171 L 11893,8171 11893,6581 11731,6581 11731,8171 Z"/>
 <path fill="rgb(87,157,28)" stroke="none" d="M 10604,8171 L 10765,8171 10765,7144 10604,7144 10604,8171 Z"/>
 <path fill="rgb(87,157,28)" stroke="none" d="M 9476,8171 L 9637,8171 9637,6400 9476,6400 9476,8171 Z"/>
 <path fill="rgb(87,157,28)" stroke="none" d="M 8348,8171 L 8509,8171 8509,6354 8348,6354 8348,8171 Z"/>
 <path fill="rgb(87,157,28)" stroke="none" d="M 7222,8171 L 7383,8171 7383,7055 7222,7055 7222,8171 Z"/>
 <path fill="rgb(87,157,28)" stroke="none" d="M 6094,8171 L 6255,8171 6255,6488 6094,6488 6094,8171 Z"/>
 <path fill="rgb(87,157,28)" stroke="none" d="M 4966,8171 L 5127,8171 5127,6122 4966,6122 4966,8171 Z"/>
 <path fill="rgb(87,157,28)" stroke="none" d="M 3838,8171 L 3999,8171 3999,7008 3838,7008 3838,8171 Z"/>
 <path fill="rgb(126,0,33)" stroke="none" d="M 15276,8171 L 15437,8171 15437,4408 15276,4408 15276,8171 Z"/>
 <path fill="rgb(126,0,33)" stroke="none" d="M 14148,8171 L 14309,8171 14309,5141 14148,5141 14148,8171 Z"/>
 <path fill="rgb(126,0,33)" stroke="none" d="M 13020,8171 L 13181,8171 13181,6075 13020,6075 13020,8171 Z"/>
 <path fill="rgb(126,0,33)" stroke="none" d="M 11893,8171 L 12054,8171 12054,5461 11893,5461 11893,8171 Z"/>
 <path fill="rgb(126,0,33)" stroke="none" d="M 10765,8171 L 10926,8171 10926,5827 10765,5827 10765,8171 Z"/>
 <path fill="rgb(126,0,33)" stroke="none" d="M 9637,8171 L 9798,8171 9798,5348 9637,5348 9637,8171 Z"/>
 <path fill="rgb(126,0,33)" stroke="none" d="M 8509,8171 L 8670,8171 8670,5214 8509,5214 8509,8171 Z"/>
 <path fill="rgb(126,0,33)" stroke="none" d="M 7383,8171 L 7544,8171 7544,5593 7383,5593 7383,8171 Z"/>
 <path fill="rgb(126,0,33)" stroke="none" d="M 6255,8171 L 6416,8171 6416,5271 6255,5271 6255,8171 Z"/>
 <path fill="rgb(126,0,33)" stroke="none" d="M 5127,8171 L 5288,8171 5288,5045 5127,5045 5127,8171 Z"/>
 <path fill="rgb(126,0,33)" stroke="none" d="M 3999,8171 L 4161,8171 4161,5653 3999,5653 3999,8171 Z"/>
 <path fill="rgb(49,64,4)" stroke="none" d="M 15437,8171 L 15598,8171 15598,4264 15437,4264 15437,8171 Z"/>
 <path fill="rgb(49,64,4)" stroke="none" d="M 14309,8171 L 14470,8171 14470,5053 14309,5053 14309,8171 Z"/>
 <path fill="rgb(49,64,4)" stroke="none" d="M 13181,8171 L 13342,8171 13342,6014 13181,6014 13181,8171 Z"/>
 <path fill="rgb(49,64,4)" stroke="none" d="M 12054,8171 L 12215,8171 12215,5380 12054,5380 12054,8171 Z"/>
 <path fill="rgb(49,64,4)" stroke="none" d="M 10926,8171 L 11087,8171 11087,5755 10926,5755 10926,8171 Z"/>
 <path fill="rgb(49,64,4)" stroke="none" d="M 9798,8171 L 9959,8171 9959,5252 9798,5252 9798,8171 Z"/>
 <path fill="rgb(49,64,4)" stroke="none" d="M 8670,8171 L 8832,8171 8832,5149 8670,5149 8670,8171 Z"/>
 <path fill="rgb(49,64,4)" stroke="none" d="M 7544,8171 L 7705,8171 7705,5517 7544,5517 7544,8171 Z"/>
 <path fill="rgb(49,64,4)" stroke="none" d="M 6416,8171 L 6577,8171 6577,5210 6416,5210 6416,8171 Z"/>
 <path fill="rgb(49,64,4)" stroke="none" d="M 5288,8171 L 5449,8171 5449,4954 5288,4954 5288,8171 Z"/>
 <path fill="rgb(49,64,4)" stroke="none" d="M 4161,8171 L 4322,8171 4322,5547 4161,5547 4161,8171 Z"/>
 <text class="TextShape"><tspan class="TextParagraph" font-family="Liberation Sans, sans-serif" font-size="353px" font-weight="400"><tspan class="TextPosition" x="3428" y="8739"><tspan fill="rgb(0,0,0)" stroke="none">DM 1</tspan></tspan></tspan></text>
 <text class="TextShape"><tspan class="TextParagraph" font-family="Liberation Sans, sans-serif" font-size="353px" font-weight="400"><tspan class="TextPosition" x="4556" y="8739"><tspan fill="rgb(0,0,0)" stroke="none">DM 2</tspan></tspan></tspan></text>
 <text class="TextShape"><tspan class="TextParagraph" font-family="Liberation Sans, sans-serif" font-size="353px" font-weight="400"><tspan class="TextPosition" x="5684" y="8739"><tspan fill="rgb(0,0,0)" stroke="none">DM 3</tspan></tspan></tspan></text>
 <text class="TextShape"><tspan class="TextParagraph" font-family="Liberation Sans, sans-serif" font-size="353px" font-weight="400"><tspan class="TextPosition" x="6812" y="8739"><tspan fill="rgb(0,0,0)" stroke="none">DM 4</tspan></tspan></tspan></text>
 <text class="TextShape"><tspan class="TextParagraph" font-family="Liberation Sans, sans-serif" font-size="353px" font-weight="400"><tspan class="TextPosition" x="7939" y="8739"><tspan fill="rgb(0,0,0)" stroke="none">DM 5</tspan></tspan></tspan></text>
 <text class="TextShape"><tspan class="TextParagraph" font-family="Liberation Sans, sans-serif" font-size="353px" font-weight="400"><tspan class="TextPosition" x="9067" y="8739"><tspan fill="rgb(0,0,0)" stroke="none">DM 6</tspan></tspan></tspan></text>
 <text class="TextShape"><tspan class="TextParagraph" font-family="Liberation Sans, sans-serif" font-size="353px" font-weight="400"><tspan class="TextPosition" x="10195" y="8739"><tspan fill="rgb(0,0,0)" stroke="none">DM 7</tspan></tspan></tspan></text>
 <text class="TextShape"><tspan class="TextParagraph" font-family="Liberation Sans, sans-serif" font-size="353px" font-weight="400"><tspan class="TextPosition" x="11322" y="8739"><tspan fill="rgb(0,0,0)" stroke="none">DM 8</tspan></tspan></tspan></text>
 <text class="TextShape"><tspan class="TextParagraph" font-family="Liberation Sans, sans-serif" font-size="353px" font-weight="400"><tspan class="TextPosition" x="12450" y="8739"><tspan fill="rgb(0,0,0)" stroke="none">DM 9</tspan></tspan></tspan></text>
 <text class="TextShape"><tspan class="TextParagraph" font-family="Liberation Sans, sans-serif" font-size="353px" font-weight="400"><tspan class="TextPosition" x="13485" y="8739"><tspan fill="rgb(0,0,0)" stroke="none">DM 10</tspan></tspan></tspan></text>
 <text class="TextShape"><tspan class="TextParagraph" font-family="Liberation Sans, sans-serif" font-size="353px" font-weight="400"><tspan class="TextPosition" x="14613" y="8739"><tspan fill="rgb(0,0,0)" stroke="none">DM 11</tspan></tspan></tspan></text>
 <text class="TextShape"><tspan class="TextParagraph" font-family="Liberation Sans, sans-serif" font-size="353px" font-weight="400"><tspan class="TextPosition" x="2364" y="8292"><tspan fill="rgb(0,0,0)" stroke="none">1.00</tspan></tspan></tspan></text>
 <text class="TextShape"><tspan class="TextParagraph" font-family="Liberation Sans, sans-serif" font-size="353px" font-weight="400"><tspan class="TextPosition" x="2178" y="6889"><tspan fill="rgb(0,0,0)" stroke="none">10.00</tspan></tspan></tspan></text>
 <text class="TextShape"><tspan class="TextParagraph" font-family="Liberation Sans, sans-serif" font-size="353px" font-weight="400"><tspan class="TextPosition" x="1993" y="5487"><tspan fill="rgb(0,0,0)" stroke="none">100.00</tspan></tspan></tspan></text>
 <text class="TextShape"><tspan class="TextParagraph" font-family="Liberation Sans, sans-serif" font-size="353px" font-weight="400"><tspan class="TextPosition" x="1702" y="4085"><tspan fill="rgb(0,0,0)" stroke="none">1,000.00</tspan></tspan></tspan></text>
 <text class="TextShape"><tspan class="TextParagraph" font-family="Liberation Sans, sans-serif" font-size="353px" font-weight="400"><tspan class="TextPosition" x="1517" y="2683"><tspan fill="rgb(0,0,0)" stroke="none">10,000.00</tspan></tspan></tspan></text>
 <text class="TextShape"><tspan class="TextParagraph" font-family="Liberation Sans, sans-serif" font-size="353px" font-weight="400"><tspan class="TextPosition" x="1332" y="1281"><tspan fill="rgb(0,0,0)" stroke="none">100,000.00</tspan></tspan></tspan></text>
 <path fill="rgb(0,69,134)" stroke="none" d="M 2657,589 L 2552,589 2552,378 2763,378 2763,589 2657,589 Z"/>
 <path fill="rgb(255,66,14)" stroke="none" d="M 4790,589 L 4685,589 4685,378 4896,378 4896,589 4790,589 Z"/>
 <path fill="rgb(255,211,32)" stroke="none" d="M 7108,589 L 7003,589 7003,378 7214,378 7214,589 7108,589 Z"/>
 <path fill="rgb(87,157,28)" stroke="none" d="M 8367,589 L 8261,589 8261,378 8472,378 8472,589 8367,589 Z"/>
 <path fill="rgb(126,0,33)" stroke="none" d="M 9970,589 L 9864,589 9864,378 10075,378 10075,589 9970,589 Z"/>
 <path fill="rgb(49,64,4)" stroke="none" d="M 12473,589 L 12367,589 12367,378 12578,378 12578,589 12473,589 Z"/>
 <text class="TextShape"><tspan class="TextParagraph" font-family="Liberation Sans, sans-serif" font-size="353px" font-weight="400"><tspan class="TextPosition" x="2863" y="603"><tspan fill="rgb(0,0,0)" stroke="none">MLP (500)</tspan></tspan></tspan></text>
 <text class="TextShape"><tspan class="TextParagraph" font-family="Liberation Sans, sans-serif" font-size="353px" font-weight="400"><tspan class="TextPosition" x="4996" y="603"><tspan fill="rgb(0,0,0)" stroke="none">MLP (2500)</tspan></tspan></tspan></text>
 <text class="TextShape"><tspan class="TextParagraph" font-family="Liberation Sans, sans-serif" font-size="353px" font-weight="400"><tspan class="TextPosition" x="7314" y="603"><tspan fill="rgb(0,0,0)" stroke="none">LMS</tspan></tspan></tspan></text>
 <text class="TextShape"><tspan class="TextParagraph" font-family="Liberation Sans, sans-serif" font-size="353px" font-weight="400"><tspan class="TextPosition" x="8572" y="603"><tspan fill="rgb(0,0,0)" stroke="none">C-SVC</tspan></tspan></tspan></text>
 <text class="TextShape"><tspan class="TextParagraph" font-family="Liberation Sans, sans-serif" font-size="353px" font-weight="400"><tspan class="TextPosition" x="10175" y="603"><tspan fill="rgb(0,0,0)" stroke="none">RandomTree</tspan></tspan></tspan></text>
 <text class="TextShape"><tspan class="TextParagraph" font-family="Liberation Sans, sans-serif" font-size="353px" font-weight="400"><tspan class="TextPosition" x="12678" y="603"><tspan fill="rgb(0,0,0)" stroke="none">MCS</tspan></tspan></tspan></text>
 <text class="TextShape" transform="rotate(-90 837 5909)"><tspan class="TextParagraph" font-family="Liberation Sans, sans-serif" font-size="318px" font-weight="400"><tspan class="TextPosition" x="837" y="5909"><tspan fill="rgb(0,0,0)" stroke="none">log - time (ms)</tspan></tspan></tspan></text>
</svg>