<?xml version="1.0" encoding="UTF-8"?>
<!DOCTYPE svg PUBLIC "-//W3C//DTD SVG 1.1//EN" "http://www.w3.org/Graphics/SVG/1.1/DTD/svg11.dtd">
<svg width="160mm" height="90mm" viewBox="0 0 16000 9000" version="1.1" xmlns="http://www.w3.org/2000/svg" xmlns:xlink="http://www.w3.org/1999/xlink" stroke-width="28.222" stroke-linejoin="round" xml:space="preserve">
 <path fill="rgb(255,255,255)" stroke="none" d="M 8000,8999 L 0,8999 0,0 15999,0 15999,8999 8000,8999 Z"/>
 <path fill="none" stroke="rgb(179,179,179)" stroke-linejoin="round" d="M 9384,8172 L 3090,8172 3090,1162 15679,1162 15679,8172 9384,8172 Z"/>
 <path fill="none" stroke="rgb(179,179,179)" stroke-linejoin="round" d="M 15679,8171 L 3090,8171"/>
 <path fill="none" stroke="rgb(179,179,179)" stroke-linejoin="round" d="M 15679,6768 L 3090,6768"/>
 <path fill="none" stroke="rgb(179,179,179)" stroke-linejoin="round" d="M 15679,5366 L 3090,5366"/>
 <path fill="none" stroke="rgb(179,179,179)" stroke-linejoin="round" d="M 15679,3965 L 3090,3965"/>
 <path fill="none" stroke="rgb(179,179,179)" stroke-linejoin="round" d="M 15679,2563 L 3090,2563"/>
 <path fill="none" stroke="rgb(179,179,179)" stroke-linejoin="round" d="M 15679,1161 L 3090,1161"/>
 <path fill="none" stroke="rgb(179,179,179)" stroke-linejoin="round" d="M 3090,8321 L 3090,8171"/>
 <path fill="none" stroke="rgb(179,179,179)" stroke-linejoin="round" d="M 3090,8321 L 3090,8171"/>
 <path fill="none" stroke="rgb(179,179,179)" stroke-linejoin="round" d="M 4234,8321 L 4234,8171"/>
 <path fill="none" stroke="rgb(179,179,179)" stroke-linejoin="round" d="M 4234,8321 L 4234,8171"/>
 <path fill="none" stroke="rgb(179,179,179)" stroke-linejoin="round" d="M 5379,8321 L 5379,8171"/>
 <path fill="none" stroke="rgb(179,179,179)" stroke-linejoin="round" d="M 5379,8321 L 5379,8171"/>
 <path fill="none" stroke="rgb(179,179,179)" stroke-linejoin="round" d="M 6523,8321 L 6523,8171"/>
 <path fill="none" stroke="rgb(179,179,179)" stroke-linejoin="round" d="M 6523,8321 L 6523,8171"/>
 <path fill="none" stroke="rgb(179,179,179)" stroke-linejoin="round" d="M 7668,8321 L 7668,8171"/>
 <path fill="none" stroke="rgb(179,179,179)" stroke-linejoin="round" d="M 7668,8321 L 7668,8171"/>
 <path fill="none" stroke="rgb(179,179,179)" stroke-linejoin="round" d="M 8811,8321 L 8811,8171"/>
 <path fill="none" stroke="rgb(179,179,179)" stroke-linejoin="round" d="M 8811,8321 L 8811,8171"/>
 <path fill="none" stroke="rgb(179,179,179)" stroke-linejoin="round" d="M 9956,8321 L 9956,8171"/>
 <path fill="none" stroke="rgb(179,179,179)" stroke-linejoin="round" d="M 9956,8321 L 9956,8171"/>
 <path fill="none" stroke="rgb(179,179,179)" stroke-linejoin="round" d="M 11100,8321 L 11100,8171"/>
 <path fill="none" stroke="rgb(179,179,179)" stroke-linejoin="round" d="M 11100,8321 L 11100,8171"/>
 <path fill="none" stroke="rgb(179,179,179)" stroke-linejoin="round" d="M 12245,8321 L 12245,8171"/>
 <path fill="none" stroke="rgb(179,179,179)" stroke-linejoin="round" d="M 12245,8321 L 12245,8171"/>
 <path fill="none" stroke="rgb(179,179,179)" stroke-linejoin="round" d="M 13389,8321 L 13389,8171"/>
 <path fill="none" stroke="rgb(179,179,179)" stroke-linejoin="round" d="M 13389,8321 L 13389,8171"/>
 <path fill="none" stroke="rgb(179,179,179)" stroke-linejoin="round" d="M 14534,8321 L 14534,8171"/>
 <path fill="none" stroke="rgb(179,179,179)" stroke-linejoin="round" d="M 14534,8321 L 14534,8171"/>
 <path fill="none" stroke="rgb(179,179,179)" stroke-linejoin="round" d="M 15679,8321 L 15679,8171"/>
 <path fill="none" stroke="rgb(179,179,179)" stroke-linejoin="round" d="M 15679,8321 L 15679,8171"/>
 <path fill="none" stroke="rgb(179,179,179)" stroke-linejoin="round" d="M 3090,8171 L 15679,8171"/>
 <path fill="none" stroke="rgb(179,179,179)" stroke-linejoin="round" d="M 2940,8171 L 3090,8171"/>
 <path fill="none" stroke="rgb(179,179,179)" stroke-linejoin="round" d="M 2940,8171 L 3090,8171"/>
 <path fill="none" stroke="rgb(179,179,179)" stroke-linejoin="round" d="M 2940,6768 L 3090,6768"/>
 <path fill="none" stroke="rgb(179,179,179)" stroke-linejoin="round" d="M 2940,6768 L 3090,6768"/>
 <path fill="none" stroke="rgb(179,179,179)" stroke-linejoin="round" d="M 2940,5366 L 3090,5366"/>
 <path fill="none" stroke="rgb(179,179,179)" stroke-linejoin="round" d="M 2940,5366 L 3090,5366"/>
 <path fill="none" stroke="rgb(179,179,179)" stroke-linejoin="round" d="M 2940,3965 L 3090,3965"/>
 <path fill="none" stroke="rgb(179,179,179)" stroke-linejoin="round" d="M 2940,3965 L 3090,3965"/>
 <path fill="none" stroke="rgb(179,179,179)" stroke-linejoin="round" d="M 2940,2563 L 3090,2563"/>
 <path fill="none" stroke="rgb(179,179,179)" stroke-linejoin="round" d="M 2940,2563 L 3090,2563"/>
 <path fill="none" stroke="rgb(179,179,179)" stroke-linejoin="round" d="M 2940,1161 L 3090,1161"/>
 <path fill="none" stroke="rgb(179,179,179)" stroke-linejoin="round" d="M 2940,1161 L 3090,1161"/>
 <path fill="none" stroke="rgb(179,179,179)" stroke-linejoin="round" d="M 3090,8171 L 3090,1161"/>
 <path fill="rgb(0,69,134)" stroke="none" d="M 14616,8171 L 14779,8171 14779,3037 14616,3037 14616,8171 Z"/>
 <path fill="rgb(0,69,134)" stroke="none" d="M 13471,8171 L 13635,8171 13635,3502 13471,3502 13471,8171 Z"/>
 <path fill="rgb(0,69,134)" stroke="none" d="M 12327,8171 L 12490,8171 12490,3690 12327,3690 12327,8171 Z"/>
 <path fill="rgb(0,69,134)" stroke="none" d="M 11182,8171 L 11346,8171 11346,3248 11182,3248 11182,8171 Z"/>
 <path fill="rgb(0,69,134)" stroke="none" d="M 10038,8171 L 10201,8171 10201,3942 10038,3942 10038,8171 Z"/>
 <path fill="rgb(0,69,134)" stroke="none" d="M 8893,8171 L 9056,8171 9056,3364 8893,3364 8893,8171 Z"/>
 <path fill="rgb(0,69,134)" stroke="none" d="M 7749,8171 L 7913,8171 7913,3272 7749,3272 7749,8171 Z"/>
 <path fill="rgb(0,69,134)" stroke="none" d="M 6605,8171 L 6768,8171 6768,3941 6605,3941 6605,8171 Z"/>
 <path fill="rgb(0,69,134)" stroke="none" d="M 5460,8171 L 5624,8171 5624,3673 5460,3673 5460,8171 Z"/>
 <path fill="rgb(0,69,134)" stroke="none" d="M 4316,8171 L 4479,8171 4479,3508 4316,3508 4316,8171 Z"/>
 <path fill="rgb(0,69,134)" stroke="none" d="M 3171,8171 L 3335,8171 3335,3260 3171,3260 3171,8171 Z"/>
 <path fill="rgb(255,66,14)" stroke="none" d="M 14779,8171 L 14943,8171 14943,2038 14779,2038 14779,8171 Z"/>
 <path fill="rgb(255,66,14)" stroke="none" d="M 13635,8171 L 13798,8171 13798,2539 13635,2539 13635,8171 Z"/>
 <path fill="rgb(255,66,14)" stroke="none" d="M 12490,8171 L 12654,8171 12654,2711 12490,2711 12490,8171 Z"/>
 <path fill="rgb(255,66,14)" stroke="none" d="M 11346,8171 L 11509,8171 11509,2271 11346,2271 11346,8171 Z"/>
 <path fill="rgb(255,66,14)" stroke="none" d="M 10201,8171 L 10365,8171 10365,2950 10201,2950 10201,8171 Z"/>
 <path fill="rgb(255,66,14)" stroke="none" d="M 9056,8171 L 9220,8171 9220,2384 9056,2384 9056,8171 Z"/>
 <path fill="rgb(255,66,14)" stroke="none" d="M 7913,8171 L 8075,8171 8075,2293 7913,2293 7913,8171 Z"/>
 <path fill="rgb(255,66,14)" stroke="none" d="M 6768,8171 L 6932,8171 6932,2958 6768,2958 6768,8171 Z"/>
 <path fill="rgb(255,66,14)" stroke="none" d="M 5624,8171 L 5787,8171 5787,2694 5624,2694 5624,8171 Z"/>
 <path fill="rgb(255,66,14)" stroke="none" d="M 4479,8171 L 4643,8171 4643,2527 4479,2527 4479,8171 Z"/>
 <path fill="rgb(255,66,14)" stroke="none" d="M 3335,8171 L 3498,8171 3498,2276 3335,2276 3335,8171 Z"/>
 <path fill="rgb(255,211,32)" stroke="none" d="M 14943,8171 L 15106,8171 15106,3373 14943,3373 14943,8171 Z"/>
 <path fill="rgb(255,211,32)" stroke="none" d="M 13798,8171 L 13962,8171 13962,3913 13798,3913 13798,8171 Z"/>
 <path fill="rgb(255,211,32)" stroke="none" d="M 12654,8171 L 12817,8171 12817,4043 12654,4043 12654,8171 Z"/>
 <path fill="rgb(255,211,32)" stroke="none" d="M 11509,8171 L 11673,8171 11673,3622 11509,3622 11509,8171 Z"/>
 <path fill="rgb(255,211,32)" stroke="none" d="M 10365,8171 L 10528,8171 10528,4242 10365,4242 10365,8171 Z"/>
 <path fill="rgb(255,211,32)" stroke="none" d="M 9220,8171 L 9383,8171 9383,3733 9220,3733 9220,8171 Z"/>
 <path fill="rgb(255,211,32)" stroke="none" d="M 8075,8171 L 8239,8171 8239,3628 8075,3628 8075,8171 Z"/>
 <path fill="rgb(255,211,32)" stroke="none" d="M 6932,8171 L 7095,8171 7095,4293 6932,4293 6932,8171 Z"/>
 <path fill="rgb(255,211,32)" stroke="none" d="M 5787,8171 L 5951,8171 5951,3998 5787,3998 5787,8171 Z"/>
 <path fill="rgb(255,211,32)" stroke="none" d="M 4643,8171 L 4806,8171 4806,3831 4643,3831 4643,8171 Z"/>
 <path fill="rgb(255,211,32)" stroke="none" d="M 3498,8171 L 3662,8171 3662,3614 3498,3614 3498,8171 Z"/>
 <path fill="rgb(87,157,28)" stroke="none" d="M 15106,8171 L 15270,8171 15270,5397 15106,5397 15106,8171 Z"/>
 <path fill="rgb(87,157,28)" stroke="none" d="M 13962,8171 L 14125,8171 14125,6261 13962,6261 13962,8171 Z"/>
 <path fill="rgb(87,157,28)" stroke="none" d="M 12817,8171 L 12981,8171 12981,6800 12817,6800 12817,8171 Z"/>
 <path fill="rgb(87,157,28)" stroke="none" d="M 11673,8171 L 11836,8171 11836,6131 11673,6131 11673,8171 Z"/>
 <path fill="rgb(87,157,28)" stroke="none" d="M 10528,8171 L 10692,8171 10692,7031 10528,7031 10528,8171 Z"/>
 <path fill="rgb(87,157,28)" stroke="none" d="M 9384,8171 L 9547,8171 9547,5887 9384,5887 9384,8171 Z"/>
 <path fill="rgb(87,157,28)" stroke="none" d="M 8239,8171 L 8402,8171 8402,5693 8239,5693 8239,8171 Z"/>
 <path fill="rgb(87,157,28)" stroke="none" d="M 7095,8171 L 7259,8171 7259,6800 7095,6800 7095,8171 Z"/>
 <path fill="rgb(87,157,28)" stroke="none" d="M 5951,8171 L 6114,8171 6114,6274 5951,6274 5951,8171 Z"/>
 <path fill="rgb(87,157,28)" stroke="none" d="M 4806,8171 L 4970,8171 4970,6346 4806,6346 4806,8171 Z"/>
 <path fill="rgb(87,157,28)" stroke="none" d="M 3662,8171 L 3825,8171 3825,6394 3662,6394 3662,8171 Z"/>
 <path fill="rgb(126,0,33)" stroke="none" d="M 15270,8171 L 15433,8171 15433,4352 15270,4352 15270,8171 Z"/>
 <path fill="rgb(126,0,33)" stroke="none" d="M 14125,8171 L 14289,8171 14289,5022 14125,5022 14125,8171 Z"/>
 <path fill="rgb(126,0,33)" stroke="none" d="M 12981,8171 L 13144,8171 13144,5469 12981,5469 12981,8171 Z"/>
 <path fill="rgb(126,0,33)" stroke="none" d="M 11836,8171 L 12000,8171 12000,4812 11836,4812 11836,8171 Z"/>
 <path fill="rgb(126,0,33)" stroke="none" d="M 10692,8171 L 10855,8171 10855,5410 10692,5410 10692,8171 Z"/>
 <path fill="rgb(126,0,33)" stroke="none" d="M 9547,8171 L 9711,8171 9711,4706 9547,4706 9547,8171 Z"/>
 <path fill="rgb(126,0,33)" stroke="none" d="M 8402,8171 L 8566,8171 8566,4529 8402,4529 8402,8171 Z"/>
 <path fill="rgb(126,0,33)" stroke="none" d="M 7259,8171 L 7422,8171 7422,5179 7259,5179 7259,8171 Z"/>
 <path fill="rgb(126,0,33)" stroke="none" d="M 6114,8171 L 6278,8171 6278,4987 6114,4987 6114,8171 Z"/>
 <path fill="rgb(126,0,33)" stroke="none" d="M 4970,8171 L 5133,8171 5133,4824 4970,4824 4970,8171 Z"/>
 <path fill="rgb(126,0,33)" stroke="none" d="M 3825,8171 L 3989,8171 3989,5069 3825,5069 3825,8171 Z"/>
 <path fill="rgb(49,64,4)" stroke="none" d="M 15433,8171 L 15597,8171 15597,4245 15433,4245 15433,8171 Z"/>
 <path fill="rgb(49,64,4)" stroke="none" d="M 14289,8171 L 14452,8171 14452,5008 14289,5008 14289,8171 Z"/>
 <path fill="rgb(49,64,4)" stroke="none" d="M 13144,8171 L 13308,8171 13308,5447 13144,5447 13144,8171 Z"/>
 <path fill="rgb(49,64,4)" stroke="none" d="M 12000,8171 L 12163,8171 12163,4725 12000,4725 12000,8171 Z"/>
 <path fill="rgb(49,64,4)" stroke="none" d="M 10855,8171 L 11019,8171 11019,5354 10855,5354 10855,8171 Z"/>
 <path fill="rgb(49,64,4)" stroke="none" d="M 9711,8171 L 9874,8171 9874,4626 9711,4626 9711,8171 Z"/>
 <path fill="rgb(49,64,4)" stroke="none" d="M 8566,8171 L 8729,8171 8729,4440 8566,4440 8566,8171 Z"/>
 <path fill="rgb(49,64,4)" stroke="none" d="M 7422,8171 L 7586,8171 7586,5155 7422,5155 7422,8171 Z"/>
 <path fill="rgb(49,64,4)" stroke="none" d="M 6278,8171 L 6441,8171 6441,4882 6278,4882 6278,8171 Z"/>
 <path fill="rgb(49,64,4)" stroke="none" d="M 5133,8171 L 5297,8171 5297,4773 5133,4773 5133,8171 Z"/>
 <path fill="rgb(49,64,4)" stroke="none" d="M 3989,8171 L 4152,8171 4152,4852 3989,4852 3989,8171 Z"/>
 <text class="TextShape"><tspan class="TextParagraph" font-family="Liberation Sans, sans-serif" font-size="353px" font-weight="400"><tspan class="TextPosition" x="3252" y="8739"><tspan fill="rgb(0,0,0)" stroke="none">DM 1</tspan></tspan></tspan></text>
 <text class="TextShape"><tspan class="TextParagraph" font-family="Liberation Sans, sans-serif" font-size="353px" font-weight="400"><tspan class="TextPosition" x="4396" y="8739"><tspan fill="rgb(0,0,0)" stroke="none">DM 2</tspan></tspan></tspan></text>
 <text class="TextShape"><tspan class="TextParagraph" font-family="Liberation Sans, sans-serif" font-size="353px" font-weight="400"><tspan class="TextPosition" x="5541" y="8739"><tspan fill="rgb(0,0,0)" stroke="none">DM 3</tspan></tspan></tspan></text>
 <text class="TextShape"><tspan class="TextParagraph" font-family="Liberation Sans, sans-serif" font-size="353px" font-weight="400"><tspan class="TextPosition" x="6685" y="8739"><tspan fill="rgb(0,0,0)" stroke="none">DM 4</tspan></tspan></tspan></text>
 <text class="TextShape"><tspan class="TextParagraph" font-family="Liberation Sans, sans-serif" font-size="353px" font-weight="400"><tspan class="TextPosition" x="7830" y="8739"><tspan fill="rgb(0,0,0)" stroke="none">DM 5</tspan></tspan></tspan></text>
 <text class="TextShape"><tspan class="TextParagraph" font-family="Liberation Sans, sans-serif" font-size="353px" font-weight="400"><tspan class="TextPosition" x="8975" y="8739"><tspan fill="rgb(0,0,0)" stroke="none">DM 6</tspan></tspan></tspan></text>
 <text class="TextShape"><tspan class="TextParagraph" font-family="Liberation Sans, sans-serif" font-size="353px" font-weight="400"><tspan class="TextPosition" x="10119" y="8739"><tspan fill="rgb(0,0,0)" stroke="none">DM 7</tspan></tspan></tspan></text>
 <text class="TextShape"><tspan class="TextParagraph" font-family="Liberation Sans, sans-serif" font-size="353px" font-weight="400"><tspan class="TextPosition" x="11264" y="8739"><tspan fill="rgb(0,0,0)" stroke="none">DM 8</tspan></tspan></tspan></text>
 <text class="TextShape"><tspan class="TextParagraph" font-family="Liberation Sans, sans-serif" font-size="353px" font-weight="400"><tspan class="TextPosition" x="12408" y="8739"><tspan fill="rgb(0,0,0)" stroke="none">DM 9</tspan></tspan></tspan></text>
 <text class="TextShape"><tspan class="TextParagraph" font-family="Liberation Sans, sans-serif" font-size="353px" font-weight="400"><tspan class="TextPosition" x="13460" y="8739"><tspan fill="rgb(0,0,0)" stroke="none">DM 10</tspan></tspan></tspan></text>
 <text class="TextShape"><tspan class="TextParagraph" font-family="Liberation Sans, sans-serif" font-size="353px" font-weight="400"><tspan class="TextPosition" x="14604" y="8739"><tspan fill="rgb(0,0,0)" stroke="none">DM 11</tspan></tspan></tspan></text>
 <text class="TextShape"><tspan class="TextParagraph" font-family="Liberation Sans, sans-serif" font-size="353px" font-weight="400"><tspan class="TextPosition" x="2179" y="8292"><tspan fill="rgb(0,0,0)" stroke="none">0.10</tspan></tspan></tspan></text>
 <text class="TextShape"><tspan class="TextParagraph" font-family="Liberation Sans, sans-serif" font-size="353px" font-weight="400"><tspan class="TextPosition" x="2179" y="6889"><tspan fill="rgb(0,0,0)" stroke="none">1.00</tspan></tspan></tspan></text>
 <text class="TextShape"><tspan class="TextParagraph" font-family="Liberation Sans, sans-serif" font-size="353px" font-weight="400"><tspan class="TextPosition" x="1993" y="5487"><tspan fill="rgb(0,0,0)" stroke="none">10.00</tspan></tspan></tspan></text>
 <text class="TextShape"><tspan class="TextParagraph" font-family="Liberation Sans, sans-serif" font-size="353px" font-weight="400"><tspan class="TextPosition" x="1808" y="4085"><tspan fill="rgb(0,0,0)" stroke="none">100.00</tspan></tspan></tspan></text>
 <text class="TextShape"><tspan class="TextParagraph" font-family="Liberation Sans, sans-serif" font-size="353px" font-weight="400"><tspan class="TextPosition" x="1517" y="2683"><tspan fill="rgb(0,0,0)" stroke="none">1,000.00</tspan></tspan></tspan></text>
 <text class="TextShape"><tspan class="TextParagraph" font-family="Liberation Sans, sans-serif" font-size="353px" font-weight="400"><tspan class="TextPosition" x="1332" y="1281"><tspan fill="rgb(0,0,0)" stroke="none">10,000.00</tspan></tspan></tspan></text>
 <path fill="rgb(0,69,134)" stroke="none" d="M 2657,589 L 2552,589 2552,378 2763,378 2763,589 2657,589 Z"/>
 <path fill="rgb(255,66,14)" stroke="none" d="M 4790,589 L 4685,589 4685,378 4896,378 4896,589 4790,589 Z"/>
 <path fill="rgb(255,211,32)" stroke="none" d="M 7108,589 L 7003,589 7003,378 7214,378 7214,589 7108,589 Z"/>
 <path fill="rgb(87,157,28)" stroke="none" d="M 8367,589 L 8261,589 8261,378 8472,378 8472,589 8367,589 Z"/>
 <path fill="rgb(126,0,33)" stroke="none" d="M 9970,589 L 9864,589 9864,378 10075,378 10075,589 9970,589 Z"/>
 <path fill="rgb(49,64,4)" stroke="none" d="M 12473,589 L 12367,589 12367,378 12578,378 12578,589 12473,589 Z"/>
 <text class="TextShape"><tspan class="TextParagraph" font-family="Liberation Sans, sans-serif" font-size="353px" font-weight="400"><tspan class="TextPosition" x="2863" y="603"><tspan fill="rgb(0,0,0)" stroke="none">MLP (500)</tspan></tspan></tspan></text>
 <text class="TextShape"><tspan class="TextParagraph" font-family="Liberation Sans, sans-serif" font-size="353px" font-weight="400"><tspan class="TextPosition" x="4996" y="603"><tspan fill="rgb(0,0,0)" stroke="none">MLP (2500)</tspan></tspan></tspan></text>
 <text class="TextShape"><tspan class="TextParagraph" font-family="Liberation Sans, sans-serif" font-size="353px" font-weight="400"><tspan class="TextPosition" x="7314" y="603"><tspan fill="rgb(0,0,0)" stroke="none">LMS</tspan></tspan></tspan></text>
 <text class="TextShape"><tspan class="TextParagraph" font-family="Liberation Sans, sans-serif" font-size="353px" font-weight="400"><tspan class="TextPosition" x="8572" y="603"><tspan fill="rgb(0,0,0)" stroke="none">C-SVC</tspan></tspan></tspan></text>
 <text class="TextShape"><tspan class="TextParagraph" font-family="Liberation Sans, sans-serif" font-size="353px" font-weight="400"><tspan class="TextPosition" x="10175" y="603"><tspan fill="rgb(0,0,0)" stroke="none">RandomTree</tspan></tspan></tspan></text>
 <text class="TextShape"><tspan class="TextParagraph" font-family="Liberation Sans, sans-serif" font-size="353px" font-weight="400"><tspan class="TextPosition" x="12678" y="603"><tspan fill="rgb(0,0,0)" stroke="none">MCS</tspan></tspan></tspan></text>
 <text class="TextShape" transform="rotate(-90 837 5909)"><tspan class="TextParagraph" font-family="Liberation Sans, sans-serif" font-size="318px" font-weight="400"><tspan class="TextPosition" x="837" y="5909"><tspan fill="rgb(0,0,0)" stroke="none">log - time (ms)</tspan></tspan></tspan></text>
</svg>