<?xml version="1.0" encoding="UTF-8"?>
<!DOCTYPE svg PUBLIC "-//W3C//DTD SVG 1.1//EN" "http://www.w3.org/Graphics/SVG/1.1/DTD/svg11.dtd">
<svg width="160mm" height="90mm" viewBox="0 0 16000 9000" version="1.1" xmlns="http://www.w3.org/2000/svg" xmlns:xlink="http://www.w3.org/1999/xlink" stroke-width="28.222" stroke-linejoin="round" xml:space="preserve">
 <path fill="rgb(255,255,255)" stroke="none" d="M 8000,8999 L 0,8999 0,0 15999,0 15999,8999 8000,8999 Z"/>
 <path fill="none" stroke="rgb(179,179,179)" stroke-linejoin="round" d="M 9384,8172 L 3090,8172 3090,1162 15679,1162 15679,8172 9384,8172 Z"/>
 <path fill="none" stroke="rgb(179,179,179)" stroke-linejoin="round" d="M 15679,8171 L 3090,8171"/>
 <path fill="none" stroke="rgb(179,179,179)" stroke-linejoin="round" d="M 15679,6768 L 3090,6768"/>
 <path fill="none" stroke="rgb(179,179,179)" stroke-linejoin="round" d="M 15679,5366 L 3090,5366"/>
 <path fill="none" stroke="rgb(179,179,179)" stroke-linejoin="round" d="M 15679,3965 L 3090,3965"/>
 <path fill="none" stroke="rgb(179,179,179)" stroke-linejoin="round" d="M 15679,2563 L 3090,2563"/>
 <path fill="none" stroke="rgb(179,179,179)" stroke-linejoin="round" d="M 15679,1161 L 3090,1161"/>
 <path fill="none" stroke="rgb(179,179,179)" stroke-linejoin="round" d="M 3090,8321 L 3090,8171"/>
 <path fill="none" stroke="rgb(179,179,179)" stroke-linejoin="round" d="M 3090,8321 L 3090,8171"/>
 <path fill="none" stroke="rgb(179,179,179)" stroke-linejoin="round" d="M 4234,8321 L 4234,8171"/>
 <path fill="none" stroke="rgb(179,179,179)" stroke-linejoin="round" d="M 4234,8321 L 4234,8171"/>
 <path fill="none" stroke="rgb(179,179,179)" stroke-linejoin="round" d="M 5379,8321 L 5379,8171"/>
 <path fill="none" stroke="rgb(179,179,179)" stroke-linejoin="round" d="M 5379,8321 L 5379,8171"/>
 <path fill="none" stroke="rgb(179,179,179)" stroke-linejoin="round" d="M 6523,8321 L 6523,8171"/>
 <path fill="none" stroke="rgb(179,179,179)" stroke-linejoin="round" d="M 6523,8321 L 6523,8171"/>
 <path fill="none" stroke="rgb(179,179,179)" stroke-linejoin="round" d="M 7668,8321 L 7668,8171"/>
 <path fill="none" stroke="rgb(179,179,179)" stroke-linejoin="round" d="M 7668,8321 L 7668,8171"/>
 <path fill="none" stroke="rgb(179,179,179)" stroke-linejoin="round" d="M 8811,8321 L 8811,8171"/>
 <path fill="none" stroke="rgb(179,179,179)" stroke-linejoin="round" d="M 8811,8321 L 8811,8171"/>
 <path fill="none" stroke="rgb(179,179,179)" stroke-linejoin="round" d="M 9956,8321 L 9956,8171"/>
 <path fill="none" stroke="rgb(179,179,179)" stroke-linejoin="round" d="M 9956,8321 L 9956,8171"/>
 <path fill="none" stroke="rgb(179,179,179)" stroke-linejoin="round" d="M 11100,8321 L 11100,8171"/>
 <path fill="none" stroke="rgb(179,179,179)" stroke-linejoin="round" d="M 11100,8321 L 11100,8171"/>
 <path fill="none" stroke="rgb(179,179,179)" stroke-linejoin="round" d="M 12245,8321 L 12245,8171"/>
 <path fill="none" stroke="rgb(179,179,179)" stroke-linejoin="round" d="M 12245,8321 L 12245,8171"/>
 <path fill="none" stroke="rgb(179,179,179)" stroke-linejoin="round" d="M 13389,8321 L 13389,8171"/>
 <path fill="none" stroke="rgb(179,179,179)" stroke-linejoin="round" d="M 13389,8321 L 13389,8171"/>
 <path fill="none" stroke="rgb(179,179,179)" stroke-linejoin="round" d="M 14534,8321 L 14534,8171"/>
 <path fill="none" stroke="rgb(179,179,179)" stroke-linejoin="round" d="M 14534,8321 L 14534,8171"/>
 <path fill="none" stroke="rgb(179,179,179)" stroke-linejoin="round" d="M 15679,8321 L 15679,8171"/>
 <path fill="none" stroke="rgb(179,179,179)" stroke-linejoin="round" d="M 15679,8321 L 15679,8171"/>
 <path fill="none" stroke="rgb(179,179,179)" stroke-linejoin="round" d="M 3090,8171 L 15679,8171"/>
 <path fill="none" stroke="rgb(179,179,179)" stroke-linejoin="round" d="M 2940,8171 L 3090,8171"/>
 <path fill="none" stroke="rgb(179,179,179)" stroke-linejoin="round" d="M 2940,8171 L 3090,8171"/>
 <path fill="none" stroke="rgb(179,179,179)" stroke-linejoin="round" d="M 2940,6768 L 3090,6768"/>
 <path fill="none" stroke="rgb(179,179,179)" stroke-linejoin="round" d="M 2940,6768 L 3090,6768"/>
 <path fill="none" stroke="rgb(179,179,179)" stroke-linejoin="round" d="M 2940,5366 L 3090,5366"/>
 <path fill="none" stroke="rgb(179,179,179)" stroke-linejoin="round" d="M 2940,5366 L 3090,5366"/>
 <path fill="none" stroke="rgb(179,179,179)" stroke-linejoin="round" d="M 2940,3965 L 3090,3965"/>
 <path fill="none" stroke="rgb(179,179,179)" stroke-linejoin="round" d="M 2940,3965 L 3090,3965"/>
 <path fill="none" stroke="rgb(179,179,179)" stroke-linejoin="round" d="M 2940,2563 L 3090,2563"/>
 <path fill="none" stroke="rgb(179,179,179)" stroke-linejoin="round" d="M 2940,2563 L 3090,2563"/>
 <path fill="none" stroke="rgb(179,179,179)" stroke-linejoin="round" d="M 2940,1161 L 3090,1161"/>
 <path fill="none" stroke="rgb(179,179,179)" stroke-linejoin="round" d="M 2940,1161 L 3090,1161"/>
 <path fill="none" stroke="rgb(179,179,179)" stroke-linejoin="round" d="M 3090,8171 L 3090,1161"/>
 <path fill="rgb(0,69,134)" stroke="none" d="M 14616,8171 L 14779,8171 14779,3518 14616,3518 14616,8171 Z"/>
 <path fill="rgb(0,69,134)" stroke="none" d="M 13471,8171 L 13635,8171 13635,3511 13471,3511 13471,8171 Z"/>
 <path fill="rgb(0,69,134)" stroke="none" d="M 12327,8171 L 12490,8171 12490,3931 12327,3931 12327,8171 Z"/>
 <path fill="rgb(0,69,134)" stroke="none" d="M 11182,8171 L 11346,8171 11346,3501 11182,3501 11182,8171 Z"/>
 <path fill="rgb(0,69,134)" stroke="none" d="M 10038,8171 L 10201,8171 10201,3909 10038,3909 10038,8171 Z"/>
 <path fill="rgb(0,69,134)" stroke="none" d="M 8893,8171 L 9056,8171 9056,3501 8893,3501 8893,8171 Z"/>
 <path fill="rgb(0,69,134)" stroke="none" d="M 7749,8171 L 7913,8171 7913,3515 7749,3515 7749,8171 Z"/>
 <path fill="rgb(0,69,134)" stroke="none" d="M 6605,8171 L 6768,8171 6768,3929 6605,3929 6605,8171 Z"/>
 <path fill="rgb(0,69,134)" stroke="none" d="M 5460,8171 L 5624,8171 5624,3927 5460,3927 5460,8171 Z"/>
 <path fill="rgb(0,69,134)" stroke="none" d="M 4316,8171 L 4479,8171 4479,3511 4316,3511 4316,8171 Z"/>
 <path fill="rgb(0,69,134)" stroke="none" d="M 3171,8171 L 3335,8171 3335,3693 3171,3693 3171,8171 Z"/>
 <path fill="rgb(255,66,14)" stroke="none" d="M 14779,8171 L 14943,8171 14943,2536 14779,2536 14779,8171 Z"/>
 <path fill="rgb(255,66,14)" stroke="none" d="M 13635,8171 L 13798,8171 13798,2532 13635,2532 13635,8171 Z"/>
 <path fill="rgb(255,66,14)" stroke="none" d="M 12490,8171 L 12654,8171 12654,2951 12490,2951 12490,8171 Z"/>
 <path fill="rgb(255,66,14)" stroke="none" d="M 11346,8171 L 11509,8171 11509,2522 11346,2522 11346,8171 Z"/>
 <path fill="rgb(255,66,14)" stroke="none" d="M 10201,8171 L 10365,8171 10365,2939 10201,2939 10201,8171 Z"/>
 <path fill="rgb(255,66,14)" stroke="none" d="M 9056,8171 L 9220,8171 9220,2519 9056,2519 9056,8171 Z"/>
 <path fill="rgb(255,66,14)" stroke="none" d="M 7913,8171 L 8075,8171 8075,2534 7913,2534 7913,8171 Z"/>
 <path fill="rgb(255,66,14)" stroke="none" d="M 6768,8171 L 6932,8171 6932,2949 6768,2949 6768,8171 Z"/>
 <path fill="rgb(255,66,14)" stroke="none" d="M 5624,8171 L 5787,8171 5787,2946 5624,2946 5624,8171 Z"/>
 <path fill="rgb(255,66,14)" stroke="none" d="M 4479,8171 L 4643,8171 4643,2533 4479,2533 4479,8171 Z"/>
 <path fill="rgb(255,66,14)" stroke="none" d="M 3335,8171 L 3498,8171 3498,2714 3335,2714 3335,8171 Z"/>
 <path fill="rgb(255,211,32)" stroke="none" d="M 14943,8171 L 15106,8171 15106,3414 14943,3414 14943,8171 Z"/>
 <path fill="rgb(255,211,32)" stroke="none" d="M 13798,8171 L 13962,8171 13962,3411 13798,3411 13798,8171 Z"/>
 <path fill="rgb(255,211,32)" stroke="none" d="M 12654,8171 L 12817,8171 12817,3592 12654,3592 12654,8171 Z"/>
 <path fill="rgb(255,211,32)" stroke="none" d="M 11509,8171 L 11673,8171 11673,3413 11509,3413 11509,8171 Z"/>
 <path fill="rgb(255,211,32)" stroke="none" d="M 10365,8171 L 10528,8171 10528,3602 10365,3602 10365,8171 Z"/>
 <path fill="rgb(255,211,32)" stroke="none" d="M 9220,8171 L 9383,8171 9383,3412 9220,3412 9220,8171 Z"/>
 <path fill="rgb(255,211,32)" stroke="none" d="M 8075,8171 L 8239,8171 8239,3430 8075,3430 8075,8171 Z"/>
 <path fill="rgb(255,211,32)" stroke="none" d="M 6932,8171 L 7095,8171 7095,3612 6932,3612 6932,8171 Z"/>
 <path fill="rgb(255,211,32)" stroke="none" d="M 5787,8171 L 5951,8171 5951,3609 5787,3609 5787,8171 Z"/>
 <path fill="rgb(255,211,32)" stroke="none" d="M 4643,8171 L 4806,8171 4806,3439 4643,3439 4643,8171 Z"/>
 <path fill="rgb(255,211,32)" stroke="none" d="M 3498,8171 L 3662,8171 3662,3511 3498,3511 3498,8171 Z"/>
 <path fill="rgb(87,157,28)" stroke="none" d="M 15106,8171 L 15270,8171 15270,6501 15106,6501 15106,8171 Z"/>
 <path fill="rgb(87,157,28)" stroke="none" d="M 13962,8171 L 14125,8171 14125,6521 13962,6521 13962,8171 Z"/>
 <path fill="rgb(87,157,28)" stroke="none" d="M 12817,8171 L 12981,8171 12981,7079 12817,7079 12817,8171 Z"/>
 <path fill="rgb(87,157,28)" stroke="none" d="M 11673,8171 L 11836,8171 11836,6657 11673,6657 11673,8171 Z"/>
 <path fill="rgb(87,157,28)" stroke="none" d="M 10528,8171 L 10692,8171 10692,7132 10528,7132 10528,8171 Z"/>
 <path fill="rgb(87,157,28)" stroke="none" d="M 9384,8171 L 9547,8171 9547,6482 9384,6482 9384,8171 Z"/>
 <path fill="rgb(87,157,28)" stroke="none" d="M 8239,8171 L 8402,8171 8402,6428 8239,6428 8239,8171 Z"/>
 <path fill="rgb(87,157,28)" stroke="none" d="M 7095,8171 L 7259,8171 7259,7132 7095,7132 7095,8171 Z"/>
 <path fill="rgb(87,157,28)" stroke="none" d="M 5951,8171 L 6114,8171 6114,7408 5951,7408 5951,8171 Z"/>
 <path fill="rgb(87,157,28)" stroke="none" d="M 4806,8171 L 4970,8171 4970,6410 4806,6410 4806,8171 Z"/>
 <path fill="rgb(87,157,28)" stroke="none" d="M 3662,8171 L 3825,8171 3825,6563 3662,6563 3662,8171 Z"/>
 <path fill="rgb(126,0,33)" stroke="none" d="M 15270,8171 L 15433,8171 15433,4760 15270,4760 15270,8171 Z"/>
 <path fill="rgb(126,0,33)" stroke="none" d="M 14125,8171 L 14289,8171 14289,4983 14125,4983 14125,8171 Z"/>
 <path fill="rgb(126,0,33)" stroke="none" d="M 12981,8171 L 13144,8171 13144,5494 12981,5494 12981,8171 Z"/>
 <path fill="rgb(126,0,33)" stroke="none" d="M 11836,8171 L 12000,8171 12000,4925 11836,4925 11836,8171 Z"/>
 <path fill="rgb(126,0,33)" stroke="none" d="M 10692,8171 L 10855,8171 10855,5188 10692,5188 10692,8171 Z"/>
 <path fill="rgb(126,0,33)" stroke="none" d="M 9547,8171 L 9711,8171 9711,4716 9547,4716 9547,8171 Z"/>
 <path fill="rgb(126,0,33)" stroke="none" d="M 8402,8171 L 8566,8171 8566,4641 8402,4641 8402,8171 Z"/>
 <path fill="rgb(126,0,33)" stroke="none" d="M 7259,8171 L 7422,8171 7422,4990 7259,4990 7259,8171 Z"/>
 <path fill="rgb(126,0,33)" stroke="none" d="M 6114,8171 L 6278,8171 6278,5115 6114,5115 6114,8171 Z"/>
 <path fill="rgb(126,0,33)" stroke="none" d="M 4970,8171 L 5133,8171 5133,4739 4970,4739 4970,8171 Z"/>
 <path fill="rgb(126,0,33)" stroke="none" d="M 3825,8171 L 3989,8171 3989,5070 3825,5070 3825,8171 Z"/>
 <path fill="rgb(49,64,4)" stroke="none" d="M 15433,8171 L 15597,8171 15597,4726 15433,4726 15433,8171 Z"/>
 <path fill="rgb(49,64,4)" stroke="none" d="M 14289,8171 L 14452,8171 14452,4880 14289,4880 14289,8171 Z"/>
 <path fill="rgb(49,64,4)" stroke="none" d="M 13144,8171 L 13308,8171 13308,5404 13144,5404 13144,8171 Z"/>
 <path fill="rgb(49,64,4)" stroke="none" d="M 12000,8171 L 12163,8171 12163,4900 12000,4900 12000,8171 Z"/>
 <path fill="rgb(49,64,4)" stroke="none" d="M 10855,8171 L 11019,8171 11019,5190 10855,5190 10855,8171 Z"/>
 <path fill="rgb(49,64,4)" stroke="none" d="M 9711,8171 L 9874,8171 9874,4672 9711,4672 9711,8171 Z"/>
 <path fill="rgb(49,64,4)" stroke="none" d="M 8566,8171 L 8729,8171 8729,4616 8566,4616 8566,8171 Z"/>
 <path fill="rgb(49,64,4)" stroke="none" d="M 7422,8171 L 7586,8171 7586,4964 7422,4964 7422,8171 Z"/>
 <path fill="rgb(49,64,4)" stroke="none" d="M 6278,8171 L 6441,8171 6441,5166 6278,5166 6278,8171 Z"/>
 <path fill="rgb(49,64,4)" stroke="none" d="M 5133,8171 L 5297,8171 5297,4709 5133,4709 5133,8171 Z"/>
 <path fill="rgb(49,64,4)" stroke="none" d="M 3989,8171 L 4152,8171 4152,5265 3989,5265 3989,8171 Z"/>
 <text class="TextShape"><tspan class="TextParagraph" font-family="Liberation Sans, sans-serif" font-size="353px" font-weight="400"><tspan class="TextPosition" x="3252" y="8739"><tspan fill="rgb(0,0,0)" stroke="none">DM 1</tspan></tspan></tspan></text>
 <text class="TextShape"><tspan class="TextParagraph" font-family="Liberation Sans, sans-serif" font-size="353px" font-weight="400"><tspan class="TextPosition" x="4396" y="8739"><tspan fill="rgb(0,0,0)" stroke="none">DM 2</tspan></tspan></tspan></text>
 <text class="TextShape"><tspan class="TextParagraph" font-family="Liberation Sans, sans-serif" font-size="353px" font-weight="400"><tspan class="TextPosition" x="5541" y="8739"><tspan fill="rgb(0,0,0)" stroke="none">DM 3</tspan></tspan></tspan></text>
 <text class="TextShape"><tspan class="TextParagraph" font-family="Liberation Sans, sans-serif" font-size="353px" font-weight="400"><tspan class="TextPosition" x="6685" y="8739"><tspan fill="rgb(0,0,0)" stroke="none">DM 4</tspan></tspan></tspan></text>
 <text class="TextShape"><tspan class="TextParagraph" font-family="Liberation Sans, sans-serif" font-size="353px" font-weight="400"><tspan class="TextPosition" x="7830" y="8739"><tspan fill="rgb(0,0,0)" stroke="none">DM 5</tspan></tspan></tspan></text>
 <text class="TextShape"><tspan class="TextParagraph" font-family="Liberation Sans, sans-serif" font-size="353px" font-weight="400"><tspan class="TextPosition" x="8975" y="8739"><tspan fill="rgb(0,0,0)" stroke="none">DM 6</tspan></tspan></tspan></text>
 <text class="TextShape"><tspan class="TextParagraph" font-family="Liberation Sans, sans-serif" font-size="353px" font-weight="400"><tspan class="TextPosition" x="10119" y="8739"><tspan fill="rgb(0,0,0)" stroke="none">DM 7</tspan></tspan></tspan></text>
 <text class="TextShape"><tspan class="TextParagraph" font-family="Liberation Sans, sans-serif" font-size="353px" font-weight="400"><tspan class="TextPosition" x="11264" y="8739"><tspan fill="rgb(0,0,0)" stroke="none">DM 8</tspan></tspan></tspan></text>
 <text class="TextShape"><tspan class="TextParagraph" font-family="Liberation Sans, sans-serif" font-size="353px" font-weight="400"><tspan class="TextPosition" x="12408" y="8739"><tspan fill="rgb(0,0,0)" stroke="none">DM 9</tspan></tspan></tspan></text>
 <text class="TextShape"><tspan class="TextParagraph" font-family="Liberation Sans, sans-serif" font-size="353px" font-weight="400"><tspan class="TextPosition" x="13460" y="8739"><tspan fill="rgb(0,0,0)" stroke="none">DM 10</tspan></tspan></tspan></text>
 <text class="TextShape"><tspan class="TextParagraph" font-family="Liberation Sans, sans-serif" font-size="353px" font-weight="400"><tspan class="TextPosition" x="14604" y="8739"><tspan fill="rgb(0,0,0)" stroke="none">DM 11</tspan></tspan></tspan></text>
 <text class="TextShape"><tspan class="TextParagraph" font-family="Liberation Sans, sans-serif" font-size="353px" font-weight="400"><tspan class="TextPosition" x="2179" y="8292"><tspan fill="rgb(0,0,0)" stroke="none">0.10</tspan></tspan></tspan></text>
 <text class="TextShape"><tspan class="TextParagraph" font-family="Liberation Sans, sans-serif" font-size="353px" font-weight="400"><tspan class="TextPosition" x="2179" y="6889"><tspan fill="rgb(0,0,0)" stroke="none">1.00</tspan></tspan></tspan></text>
 <text class="TextShape"><tspan class="TextParagraph" font-family="Liberation Sans, sans-serif" font-size="353px" font-weight="400"><tspan class="TextPosition" x="1993" y="5487"><tspan fill="rgb(0,0,0)" stroke="none">10.00</tspan></tspan></tspan></text>
 <text class="TextShape"><tspan class="TextParagraph" font-family="Liberation Sans, sans-serif" font-size="353px" font-weight="400"><tspan class="TextPosition" x="1808" y="4085"><tspan fill="rgb(0,0,0)" stroke="none">100.00</tspan></tspan></tspan></text>
 <text class="TextShape"><tspan class="TextParagraph" font-family="Liberation Sans, sans-serif" font-size="353px" font-weight="400"><tspan class="TextPosition" x="1517" y="2683"><tspan fill="rgb(0,0,0)" stroke="none">1,000.00</tspan></tspan></tspan></text>
 <text class="TextShape"><tspan class="TextParagraph" font-family="Liberation Sans, sans-serif" font-size="353px" font-weight="400"><tspan class="TextPosition" x="1332" y="1281"><tspan fill="rgb(0,0,0)" stroke="none">10,000.00</tspan></tspan></tspan></text>
 <path fill="rgb(0,69,134)" stroke="none" d="M 2657,589 L 2552,589 2552,378 2763,378 2763,589 2657,589 Z"/>
 <path fill="rgb(255,66,14)" stroke="none" d="M 4790,589 L 4685,589 4685,378 4896,378 4896,589 4790,589 Z"/>
 <path fill="rgb(255,211,32)" stroke="none" d="M 7108,589 L 7003,589 7003,378 7214,378 7214,589 7108,589 Z"/>
 <path fill="rgb(87,157,28)" stroke="none" d="M 8367,589 L 8261,589 8261,378 8472,378 8472,589 8367,589 Z"/>
 <path fill="rgb(126,0,33)" stroke="none" d="M 9970,589 L 9864,589 9864,378 10075,378 10075,589 9970,589 Z"/>
 <path fill="rgb(49,64,4)" stroke="none" d="M 12473,589 L 12367,589 12367,378 12578,378 12578,589 12473,589 Z"/>
 <text class="TextShape"><tspan class="TextParagraph" font-family="Liberation Sans, sans-serif" font-size="353px" font-weight="400"><tspan class="TextPosition" x="2863" y="603"><tspan fill="rgb(0,0,0)" stroke="none">MLP (500)</tspan></tspan></tspan></text>
 <text class="TextShape"><tspan class="TextParagraph" font-family="Liberation Sans, sans-serif" font-size="353px" font-weight="400"><tspan class="TextPosition" x="4996" y="603"><tspan fill="rgb(0,0,0)" stroke="none">MLP (2500)</tspan></tspan></tspan></text>
 <text class="TextShape"><tspan class="TextParagraph" font-family="Liberation Sans, sans-serif" font-size="353px" font-weight="400"><tspan class="TextPosition" x="7314" y="603"><tspan fill="rgb(0,0,0)" stroke="none">LMS</tspan></tspan></tspan></text>
 <text class="TextShape"><tspan class="TextParagraph" font-family="Liberation Sans, sans-serif" font-size="353px" font-weight="400"><tspan class="TextPosition" x="8572" y="603"><tspan fill="rgb(0,0,0)" stroke="none">C-SVC</tspan></tspan></tspan></text>
 <text class="TextShape"><tspan class="TextParagraph" font-family="Liberation Sans, sans-serif" font-size="353px" font-weight="400"><tspan class="TextPosition" x="10175" y="603"><tspan fill="rgb(0,0,0)" stroke="none">RandomTree</tspan></tspan></tspan></text>
 <text class="TextShape"><tspan class="TextParagraph" font-family="Liberation Sans, sans-serif" font-size="353px" font-weight="400"><tspan class="TextPosition" x="12678" y="603"><tspan fill="rgb(0,0,0)" stroke="none">MCS</tspan></tspan></tspan></text>
 <text class="TextShape" transform="rotate(-90 837 5909)"><tspan class="TextParagraph" font-family="Liberation Sans, sans-serif" font-size="318px" font-weight="400"><tspan class="TextPosition" x="837" y="5909"><tspan fill="rgb(0,0,0)" stroke="none">log - time (ms)</tspan></tspan></tspan></text>
</svg>