<?xml version="1.0" encoding="UTF-8"?>
<!DOCTYPE svg PUBLIC "-//W3C//DTD SVG 1.1//EN" "http://www.w3.org/Graphics/SVG/1.1/DTD/svg11.dtd">
<svg width="160mm" height="90mm" viewBox="0 0 16000 9000" version="1.1" xmlns="http://www.w3.org/2000/svg" xmlns:xlink="http://www.w3.org/1999/xlink" stroke-width="28.222" stroke-linejoin="round" xml:space="preserve">
 <path fill="rgb(255,255,255)" stroke="none" d="M 7998,8992 L 0,8992 0,0 15996,0 15996,8992 7998,8992 Z"/>
 <path fill="none" stroke="rgb(179,179,179)" stroke-linejoin="round" d="M 8361,8166 L 1046,8166 1046,1161 15677,1161 15677,8166 8361,8166 Z"/>
 <path fill="none" stroke="rgb(179,179,179)" stroke-linejoin="round" d="M 15677,8165 L 1046,8165"/>
 <path fill="none" stroke="rgb(179,179,179)" stroke-linejoin="round" d="M 15677,6763 L 1046,6763"/>
 <path fill="none" stroke="rgb(179,179,179)" stroke-linejoin="round" d="M 15677,5362 L 1046,5362"/>
 <path fill="none" stroke="rgb(179,179,179)" stroke-linejoin="round" d="M 15677,3962 L 1046,3962"/>
 <path fill="none" stroke="rgb(179,179,179)" stroke-linejoin="round" d="M 15677,2561 L 1046,2561"/>
 <path fill="none" stroke="rgb(179,179,179)" stroke-linejoin="round" d="M 15677,1160 L 1046,1160"/>
 <path fill="none" stroke="rgb(179,179,179)" stroke-linejoin="round" d="M 1046,8315 L 1046,8165"/>
 <path fill="none" stroke="rgb(179,179,179)" stroke-linejoin="round" d="M 1046,8315 L 1046,8165"/>
 <path fill="none" stroke="rgb(179,179,179)" stroke-linejoin="round" d="M 2376,8315 L 2376,8165"/>
 <path fill="none" stroke="rgb(179,179,179)" stroke-linejoin="round" d="M 2376,8315 L 2376,8165"/>
 <path fill="none" stroke="rgb(179,179,179)" stroke-linejoin="round" d="M 3706,8315 L 3706,8165"/>
 <path fill="none" stroke="rgb(179,179,179)" stroke-linejoin="round" d="M 3706,8315 L 3706,8165"/>
 <path fill="none" stroke="rgb(179,179,179)" stroke-linejoin="round" d="M 5036,8315 L 5036,8165"/>
 <path fill="none" stroke="rgb(179,179,179)" stroke-linejoin="round" d="M 5036,8315 L 5036,8165"/>
 <path fill="none" stroke="rgb(179,179,179)" stroke-linejoin="round" d="M 6366,8315 L 6366,8165"/>
 <path fill="none" stroke="rgb(179,179,179)" stroke-linejoin="round" d="M 6366,8315 L 6366,8165"/>
 <path fill="none" stroke="rgb(179,179,179)" stroke-linejoin="round" d="M 7696,8315 L 7696,8165"/>
 <path fill="none" stroke="rgb(179,179,179)" stroke-linejoin="round" d="M 7696,8315 L 7696,8165"/>
 <path fill="none" stroke="rgb(179,179,179)" stroke-linejoin="round" d="M 9026,8315 L 9026,8165"/>
 <path fill="none" stroke="rgb(179,179,179)" stroke-linejoin="round" d="M 9026,8315 L 9026,8165"/>
 <path fill="none" stroke="rgb(179,179,179)" stroke-linejoin="round" d="M 10356,8315 L 10356,8165"/>
 <path fill="none" stroke="rgb(179,179,179)" stroke-linejoin="round" d="M 10356,8315 L 10356,8165"/>
 <path fill="none" stroke="rgb(179,179,179)" stroke-linejoin="round" d="M 11686,8315 L 11686,8165"/>
 <path fill="none" stroke="rgb(179,179,179)" stroke-linejoin="round" d="M 11686,8315 L 11686,8165"/>
 <path fill="none" stroke="rgb(179,179,179)" stroke-linejoin="round" d="M 13016,8315 L 13016,8165"/>
 <path fill="none" stroke="rgb(179,179,179)" stroke-linejoin="round" d="M 13016,8315 L 13016,8165"/>
 <path fill="none" stroke="rgb(179,179,179)" stroke-linejoin="round" d="M 14346,8315 L 14346,8165"/>
 <path fill="none" stroke="rgb(179,179,179)" stroke-linejoin="round" d="M 14346,8315 L 14346,8165"/>
 <path fill="none" stroke="rgb(179,179,179)" stroke-linejoin="round" d="M 15677,8315 L 15677,8165"/>
 <path fill="none" stroke="rgb(179,179,179)" stroke-linejoin="round" d="M 15677,8315 L 15677,8165"/>
 <path fill="none" stroke="rgb(179,179,179)" stroke-linejoin="round" d="M 1046,8165 L 15677,8165"/>
 <path fill="none" stroke="rgb(179,179,179)" stroke-linejoin="round" d="M 896,8165 L 1046,8165"/>
 <path fill="none" stroke="rgb(179,179,179)" stroke-linejoin="round" d="M 896,8165 L 1046,8165"/>
 <path fill="none" stroke="rgb(179,179,179)" stroke-linejoin="round" d="M 896,6763 L 1046,6763"/>
 <path fill="none" stroke="rgb(179,179,179)" stroke-linejoin="round" d="M 896,6763 L 1046,6763"/>
 <path fill="none" stroke="rgb(179,179,179)" stroke-linejoin="round" d="M 896,5362 L 1046,5362"/>
 <path fill="none" stroke="rgb(179,179,179)" stroke-linejoin="round" d="M 896,5362 L 1046,5362"/>
 <path fill="none" stroke="rgb(179,179,179)" stroke-linejoin="round" d="M 896,3962 L 1046,3962"/>
 <path fill="none" stroke="rgb(179,179,179)" stroke-linejoin="round" d="M 896,3962 L 1046,3962"/>
 <path fill="none" stroke="rgb(179,179,179)" stroke-linejoin="round" d="M 896,2561 L 1046,2561"/>
 <path fill="none" stroke="rgb(179,179,179)" stroke-linejoin="round" d="M 896,2561 L 1046,2561"/>
 <path fill="none" stroke="rgb(179,179,179)" stroke-linejoin="round" d="M 896,1160 L 1046,1160"/>
 <path fill="none" stroke="rgb(179,179,179)" stroke-linejoin="round" d="M 896,1160 L 1046,1160"/>
 <path fill="none" stroke="rgb(179,179,179)" stroke-linejoin="round" d="M 1046,8165 L 1046,1160"/>
 <path fill="rgb(0,69,134)" stroke="none" d="M 14513,8165 L 14845,8165 14845,4591 14513,4591 14513,8165 Z"/>
 <path fill="rgb(0,69,134)" stroke="none" d="M 13182,8165 L 13515,8165 13515,4521 13182,4521 13182,8165 Z"/>
 <path fill="rgb(0,69,134)" stroke="none" d="M 11852,8165 L 12185,8165 12185,4662 11852,4662 11852,8165 Z"/>
 <path fill="rgb(0,69,134)" stroke="none" d="M 10522,8165 L 10855,8165 10855,7254 10522,7254 10522,8165 Z"/>
 <path fill="rgb(0,69,134)" stroke="none" d="M 9192,8165 L 9524,8165 9524,6623 9192,6623 9192,8165 Z"/>
 <path fill="rgb(0,69,134)" stroke="none" d="M 7863,8165 L 8194,8165 8194,7604 7863,7604 7863,8165 Z"/>
 <path fill="rgb(0,69,134)" stroke="none" d="M 6533,8165 L 6865,8165 6865,6273 6533,6273 6533,8165 Z"/>
 <path fill="rgb(0,69,134)" stroke="none" d="M 5202,8165 L 5535,8165 5535,5782 5202,5782 5202,8165 Z"/>
 <path fill="rgb(0,69,134)" stroke="none" d="M 3872,8165 L 4205,8165 4205,7604 3872,7604 3872,8165 Z"/>
 <path fill="rgb(0,69,134)" stroke="none" d="M 2542,8165 L 2875,8165 2875,5222 2542,5222 2542,8165 Z"/>
 <path fill="rgb(0,69,134)" stroke="none" d="M 1212,8165 L 1544,8165 1544,7884 1212,7884 1212,8165 Z"/>
 <path fill="rgb(255,66,14)" stroke="none" d="M 14845,8165 L 15178,8165 15178,2280 14845,2280 14845,8165 Z"/>
 <path fill="rgb(255,66,14)" stroke="none" d="M 13515,8165 L 13848,8165 13848,6763 13515,6763 13515,8165 Z"/>
 <path fill="rgb(255,66,14)" stroke="none" d="M 12185,8165 L 12517,8165 12517,2210 12185,2210 12185,8165 Z"/>
 <path fill="rgb(255,66,14)" stroke="none" d="M 10855,8165 L 11187,8165 11187,3612 10855,3612 10855,8165 Z"/>
 <path fill="rgb(255,66,14)" stroke="none" d="M 9524,8165 L 9857,8165 9857,4802 9524,4802 9524,8165 Z"/>
 <path fill="rgb(255,66,14)" stroke="none" d="M 8194,8165 L 8527,8165 8527,2841 8194,2841 8194,8165 Z"/>
 <path fill="rgb(255,66,14)" stroke="none" d="M 6865,8165 L 7198,8165 7198,2631 6865,2631 6865,8165 Z"/>
 <path fill="rgb(255,66,14)" stroke="none" d="M 5535,8165 L 5867,8165 5867,2491 5535,2491 5535,8165 Z"/>
 <path fill="rgb(255,66,14)" stroke="none" d="M 4205,8165 L 4537,8165 4537,3051 4205,3051 4205,8165 Z"/>
 <path fill="rgb(255,66,14)" stroke="none" d="M 2875,8165 L 3207,8165 3207,2140 2875,2140 2875,8165 Z"/>
 <path fill="rgb(255,66,14)" stroke="none" d="M 1544,8165 L 1877,8165 1877,2210 1544,2210 1544,8165 Z"/>
 <path fill="rgb(255,211,32)" stroke="none" d="M 15178,8165 L 15510,8165 15510,1720 15178,1720 15178,8165 Z"/>
 <path fill="rgb(255,211,32)" stroke="none" d="M 13848,8165 L 14180,8165 14180,2631 13848,2631 13848,8165 Z"/>
 <path fill="rgb(255,211,32)" stroke="none" d="M 12517,8165 L 12850,8165 12850,2210 12517,2210 12517,8165 Z"/>
 <path fill="rgb(255,211,32)" stroke="none" d="M 11187,8165 L 11520,8165 11520,3471 11187,3471 11187,8165 Z"/>
 <path fill="rgb(255,211,32)" stroke="none" d="M 9857,8165 L 10190,8165 10190,4102 9857,4102 9857,8165 Z"/>
 <path fill="rgb(255,211,32)" stroke="none" d="M 8527,8165 L 8859,8165 8859,2701 8527,2701 8527,8165 Z"/>
 <path fill="rgb(255,211,32)" stroke="none" d="M 7198,8165 L 7530,8165 7530,2210 7198,2210 7198,8165 Z"/>
 <path fill="rgb(255,211,32)" stroke="none" d="M 5867,8165 L 6200,8165 6200,2911 5867,2911 5867,8165 Z"/>
 <path fill="rgb(255,211,32)" stroke="none" d="M 4537,8165 L 4870,8165 4870,1580 4537,1580 4537,8165 Z"/>
 <path fill="rgb(255,211,32)" stroke="none" d="M 3207,8165 L 3540,8165 3540,2140 3207,2140 3207,8165 Z"/>
 <path fill="rgb(255,211,32)" stroke="none" d="M 1877,8165 L 2209,8165 2209,2210 1877,2210 1877,8165 Z"/>
 <text class="TextShape"><tspan class="TextParagraph" font-family="Liberation Sans, sans-serif" font-size="353px" font-weight="400"><tspan class="TextPosition" x="1301" y="8733"><tspan fill="rgb(0,0,0)" stroke="none">DM 1</tspan></tspan></tspan></text>
 <text class="TextShape"><tspan class="TextParagraph" font-family="Liberation Sans, sans-serif" font-size="353px" font-weight="400"><tspan class="TextPosition" x="2631" y="8733"><tspan fill="rgb(0,0,0)" stroke="none">DM 2</tspan></tspan></tspan></text>
 <text class="TextShape"><tspan class="TextParagraph" font-family="Liberation Sans, sans-serif" font-size="353px" font-weight="400"><tspan class="TextPosition" x="3961" y="8733"><tspan fill="rgb(0,0,0)" stroke="none">DM 3</tspan></tspan></tspan></text>
 <text class="TextShape"><tspan class="TextParagraph" font-family="Liberation Sans, sans-serif" font-size="353px" font-weight="400"><tspan class="TextPosition" x="5291" y="8733"><tspan fill="rgb(0,0,0)" stroke="none">DM 4</tspan></tspan></tspan></text>
 <text class="TextShape"><tspan class="TextParagraph" font-family="Liberation Sans, sans-serif" font-size="353px" font-weight="400"><tspan class="TextPosition" x="6621" y="8733"><tspan fill="rgb(0,0,0)" stroke="none">DM 5</tspan></tspan></tspan></text>
 <text class="TextShape"><tspan class="TextParagraph" font-family="Liberation Sans, sans-serif" font-size="353px" font-weight="400"><tspan class="TextPosition" x="7952" y="8733"><tspan fill="rgb(0,0,0)" stroke="none">DM 6</tspan></tspan></tspan></text>
 <text class="TextShape"><tspan class="TextParagraph" font-family="Liberation Sans, sans-serif" font-size="353px" font-weight="400"><tspan class="TextPosition" x="9282" y="8733"><tspan fill="rgb(0,0,0)" stroke="none">DM 7</tspan></tspan></tspan></text>
 <text class="TextShape"><tspan class="TextParagraph" font-family="Liberation Sans, sans-serif" font-size="353px" font-weight="400"><tspan class="TextPosition" x="10612" y="8733"><tspan fill="rgb(0,0,0)" stroke="none">DM 8</tspan></tspan></tspan></text>
 <text class="TextShape"><tspan class="TextParagraph" font-family="Liberation Sans, sans-serif" font-size="353px" font-weight="400"><tspan class="TextPosition" x="11942" y="8733"><tspan fill="rgb(0,0,0)" stroke="none">DM 9</tspan></tspan></tspan></text>
 <text class="TextShape"><tspan class="TextParagraph" font-family="Liberation Sans, sans-serif" font-size="353px" font-weight="400"><tspan class="TextPosition" x="13179" y="8733"><tspan fill="rgb(0,0,0)" stroke="none">DM 10</tspan></tspan></tspan></text>
 <text class="TextShape"><tspan class="TextParagraph" font-family="Liberation Sans, sans-serif" font-size="353px" font-weight="400"><tspan class="TextPosition" x="14509" y="8733"><tspan fill="rgb(0,0,0)" stroke="none">DM 11</tspan></tspan></tspan></text>
 <text class="TextShape"><tspan class="TextParagraph" font-family="Liberation Sans, sans-serif" font-size="353px" font-weight="400"><tspan class="TextPosition" x="611" y="8286"><tspan fill="rgb(0,0,0)" stroke="none">0</tspan></tspan></tspan></text>
 <text class="TextShape"><tspan class="TextParagraph" font-family="Liberation Sans, sans-serif" font-size="353px" font-weight="400"><tspan class="TextPosition" x="320" y="6884"><tspan fill="rgb(0,0,0)" stroke="none">0.2</tspan></tspan></tspan></text>
 <text class="TextShape"><tspan class="TextParagraph" font-family="Liberation Sans, sans-serif" font-size="353px" font-weight="400"><tspan class="TextPosition" x="320" y="5483"><tspan fill="rgb(0,0,0)" stroke="none">0.4</tspan></tspan></tspan></text>
 <text class="TextShape"><tspan class="TextParagraph" font-family="Liberation Sans, sans-serif" font-size="353px" font-weight="400"><tspan class="TextPosition" x="320" y="4082"><tspan fill="rgb(0,0,0)" stroke="none">0.6</tspan></tspan></tspan></text>
 <text class="TextShape"><tspan class="TextParagraph" font-family="Liberation Sans, sans-serif" font-size="353px" font-weight="400"><tspan class="TextPosition" x="320" y="2681"><tspan fill="rgb(0,0,0)" stroke="none">0.8</tspan></tspan></tspan></text>
 <text class="TextShape"><tspan class="TextParagraph" font-family="Liberation Sans, sans-serif" font-size="353px" font-weight="400"><tspan class="TextPosition" x="611" y="1280"><tspan fill="rgb(0,0,0)" stroke="none">1</tspan></tspan></tspan></text>
 <path fill="rgb(0,69,134)" stroke="none" d="M 4107,589 L 4002,589 4002,378 4213,378 4213,589 4107,589 Z"/>
 <path fill="rgb(255,66,14)" stroke="none" d="M 6822,589 L 6717,589 6717,378 6928,378 6928,589 6822,589 Z"/>
 <path fill="rgb(255,211,32)" stroke="none" d="M 9616,589 L 9510,589 9510,378 9721,378 9721,589 9616,589 Z"/>
 <text class="TextShape"><tspan class="TextParagraph" font-family="Liberation Sans, sans-serif" font-size="353px" font-weight="400"><tspan class="TextPosition" x="4313" y="603"><tspan fill="rgb(0,0,0)" stroke="none">1st interaction</tspan></tspan></tspan></text>
 <text class="TextShape"><tspan class="TextParagraph" font-family="Liberation Sans, sans-serif" font-size="353px" font-weight="400"><tspan class="TextPosition" x="7028" y="603"><tspan fill="rgb(0,0,0)" stroke="none">2nd interaction</tspan></tspan></tspan></text>
 <text class="TextShape"><tspan class="TextParagraph" font-family="Liberation Sans, sans-serif" font-size="353px" font-weight="400"><tspan class="TextPosition" x="9821" y="603"><tspan fill="rgb(0,0,0)" stroke="none">3rd interaction</tspan></tspan></tspan></text>
</svg>