<?xml version="1.0" encoding="UTF-8"?>
<!DOCTYPE svg PUBLIC "-//W3C//DTD SVG 1.1//EN" "http://www.w3.org/Graphics/SVG/1.1/DTD/svg11.dtd">
<svg width="160mm" height="90mm" viewBox="0 0 16000 9000" version="1.1" xmlns="http://www.w3.org/2000/svg" xmlns:xlink="http://www.w3.org/1999/xlink" stroke-width="28.222" stroke-linejoin="round" xml:space="preserve">
 <path fill="rgb(255,255,255)" stroke="none" d="M 8000,9003 L 0,9003 0,0 16000,0 16000,9003 8000,9003 Z"/>
 <path fill="none" stroke="rgb(179,179,179)" stroke-linejoin="round" d="M 8363,8176 L 1047,8176 1047,1660 15680,1660 15680,8176 8363,8176 Z"/>
 <path fill="none" stroke="rgb(179,179,179)" stroke-linejoin="round" d="M 15680,8175 L 1047,8175"/>
 <path fill="none" stroke="rgb(179,179,179)" stroke-linejoin="round" d="M 15680,6871 L 1047,6871"/>
 <path fill="none" stroke="rgb(179,179,179)" stroke-linejoin="round" d="M 15680,5568 L 1047,5568"/>
 <path fill="none" stroke="rgb(179,179,179)" stroke-linejoin="round" d="M 15680,4265 L 1047,4265"/>
 <path fill="none" stroke="rgb(179,179,179)" stroke-linejoin="round" d="M 15680,2962 L 1047,2962"/>
 <path fill="none" stroke="rgb(179,179,179)" stroke-linejoin="round" d="M 15680,1659 L 1047,1659"/>
 <path fill="none" stroke="rgb(179,179,179)" stroke-linejoin="round" d="M 1047,8325 L 1047,8175"/>
 <path fill="none" stroke="rgb(179,179,179)" stroke-linejoin="round" d="M 1047,8325 L 1047,8175"/>
 <path fill="none" stroke="rgb(179,179,179)" stroke-linejoin="round" d="M 5925,8325 L 5925,8175"/>
 <path fill="none" stroke="rgb(179,179,179)" stroke-linejoin="round" d="M 5925,8325 L 5925,8175"/>
 <path fill="none" stroke="rgb(179,179,179)" stroke-linejoin="round" d="M 10802,8325 L 10802,8175"/>
 <path fill="none" stroke="rgb(179,179,179)" stroke-linejoin="round" d="M 10802,8325 L 10802,8175"/>
 <path fill="none" stroke="rgb(179,179,179)" stroke-linejoin="round" d="M 15680,8325 L 15680,8175"/>
 <path fill="none" stroke="rgb(179,179,179)" stroke-linejoin="round" d="M 15680,8325 L 15680,8175"/>
 <path fill="none" stroke="rgb(179,179,179)" stroke-linejoin="round" d="M 1047,8175 L 15680,8175"/>
 <path fill="none" stroke="rgb(179,179,179)" stroke-linejoin="round" d="M 897,8175 L 1197,8175"/>
 <path fill="none" stroke="rgb(179,179,179)" stroke-linejoin="round" d="M 897,8175 L 1197,8175"/>
 <path fill="none" stroke="rgb(179,179,179)" stroke-linejoin="round" d="M 897,6871 L 1197,6871"/>
 <path fill="none" stroke="rgb(179,179,179)" stroke-linejoin="round" d="M 897,6871 L 1197,6871"/>
 <path fill="none" stroke="rgb(179,179,179)" stroke-linejoin="round" d="M 897,5568 L 1197,5568"/>
 <path fill="none" stroke="rgb(179,179,179)" stroke-linejoin="round" d="M 897,5568 L 1197,5568"/>
 <path fill="none" stroke="rgb(179,179,179)" stroke-linejoin="round" d="M 897,4265 L 1197,4265"/>
 <path fill="none" stroke="rgb(179,179,179)" stroke-linejoin="round" d="M 897,4265 L 1197,4265"/>
 <path fill="none" stroke="rgb(179,179,179)" stroke-linejoin="round" d="M 897,2962 L 1197,2962"/>
 <path fill="none" stroke="rgb(179,179,179)" stroke-linejoin="round" d="M 897,2962 L 1197,2962"/>
 <path fill="none" stroke="rgb(179,179,179)" stroke-linejoin="round" d="M 897,1659 L 1197,1659"/>
 <path fill="none" stroke="rgb(179,179,179)" stroke-linejoin="round" d="M 897,1659 L 1197,1659"/>
 <path fill="none" stroke="rgb(179,179,179)" stroke-linejoin="round" d="M 1047,8175 L 1047,1659"/>
 <path fill="rgb(255,211,32)" stroke="none" d="M 11106,8175 L 11716,8175 11716,3779 11106,3779 11106,8175 Z"/>
 <path fill="rgb(255,211,32)" stroke="none" d="M 6229,8175 L 6839,8175 6839,5189 6229,5189 6229,8175 Z"/>
 <path fill="rgb(255,211,32)" stroke="none" d="M 1351,8175 L 1961,8175 1961,6107 1351,6107 1351,8175 Z"/>
 <path fill="rgb(87,157,28)" stroke="none" d="M 11716,8175 L 12326,8175 12326,2938 11716,2938 11716,8175 Z"/>
 <path fill="rgb(87,157,28)" stroke="none" d="M 6839,8175 L 7449,8175 7449,3543 6839,3543 6839,8175 Z"/>
 <path fill="rgb(87,157,28)" stroke="none" d="M 1961,8175 L 2571,8175 2571,6332 1961,6332 1961,8175 Z"/>
 <path fill="rgb(0,69,134)" stroke="none" d="M 12326,8175 L 12936,8175 12936,8175 12326,8175 Z"/>
 <path fill="rgb(0,69,134)" stroke="none" d="M 7449,8175 L 8058,8175 8058,7878 7449,7878 7449,8175 Z"/>
 <path fill="rgb(0,69,134)" stroke="none" d="M 2571,8175 L 3181,8175 3181,6990 2571,6990 2571,8175 Z"/>
 <path fill="rgb(255,66,14)" stroke="none" d="M 12936,8175 L 13545,8175 13545,3537 12936,3537 12936,8175 Z"/>
 <path fill="rgb(255,66,14)" stroke="none" d="M 8058,8175 L 8667,8175 8667,2843 8058,2843 8058,8175 Z"/>
 <path fill="rgb(255,66,14)" stroke="none" d="M 3181,8175 L 3790,8175 3790,6990 3181,6990 3181,8175 Z"/>
 <path fill="rgb(141,29,117)" stroke="none" d="M 13545,8175 L 14155,8175 14155,2221 13545,2221 13545,8175 Z"/>
 <path fill="rgb(141,29,117)" stroke="none" d="M 8667,8175 L 9277,8175 9277,1901 8667,1901 8667,8175 Z"/>
 <path fill="rgb(141,29,117)" stroke="none" d="M 3790,8175 L 4400,8175 4400,5307 3790,5307 3790,8175 Z"/>
 <path fill="rgb(131,202,255)" stroke="none" d="M 14155,8175 L 14765,8175 14765,2281 14155,2281 14155,8175 Z"/>
 <path fill="rgb(131,202,255)" stroke="none" d="M 9277,8175 L 9887,8175 9887,1866 9277,1866 9277,8175 Z"/>
 <path fill="rgb(131,202,255)" stroke="none" d="M 4400,8175 L 5010,8175 5010,5372 4400,5372 4400,8175 Z"/>
 <path fill="rgb(49,64,4)" stroke="none" d="M 14765,8175 L 15375,8175 15375,2281 14765,2281 14765,8175 Z"/>
 <path fill="rgb(49,64,4)" stroke="none" d="M 9887,8175 L 10497,8175 10497,1890 9887,1890 9887,8175 Z"/>
 <path fill="rgb(49,64,4)" stroke="none" d="M 5010,8175 L 5620,8175 5620,5817 5010,5817 5010,8175 Z"/>
 <text class="TextShape"><tspan class="TextParagraph" font-family="Liberation Sans, sans-serif" font-size="353px" font-weight="400"><tspan class="TextPosition" x="2401" y="8743"><tspan fill="rgb(0,0,0)" stroke="none">1st interaction</tspan></tspan></tspan></text>
 <text class="TextShape"><tspan class="TextParagraph" font-family="Liberation Sans, sans-serif" font-size="353px" font-weight="400"><tspan class="TextPosition" x="7239" y="8743"><tspan fill="rgb(0,0,0)" stroke="none">2nd interaction</tspan></tspan></tspan></text>
 <text class="TextShape"><tspan class="TextParagraph" font-family="Liberation Sans, sans-serif" font-size="353px" font-weight="400"><tspan class="TextPosition" x="12156" y="8743"><tspan fill="rgb(0,0,0)" stroke="none">3rd interaction</tspan></tspan></tspan></text>
 <text class="TextShape"><tspan class="TextParagraph" font-family="Liberation Sans, sans-serif" font-size="353px" font-weight="400"><tspan class="TextPosition" x="612" y="8296"><tspan fill="rgb(0,0,0)" stroke="none">0</tspan></tspan></tspan></text>
 <text class="TextShape"><tspan class="TextParagraph" font-family="Liberation Sans, sans-serif" font-size="353px" font-weight="400"><tspan class="TextPosition" x="321" y="6992"><tspan fill="rgb(0,0,0)" stroke="none">0.2</tspan></tspan></tspan></text>
 <text class="TextShape"><tspan class="TextParagraph" font-family="Liberation Sans, sans-serif" font-size="353px" font-weight="400"><tspan class="TextPosition" x="321" y="5689"><tspan fill="rgb(0,0,0)" stroke="none">0.4</tspan></tspan></tspan></text>
 <text class="TextShape"><tspan class="TextParagraph" font-family="Liberation Sans, sans-serif" font-size="353px" font-weight="400"><tspan class="TextPosition" x="321" y="4385"><tspan fill="rgb(0,0,0)" stroke="none">0.6</tspan></tspan></tspan></text>
 <text class="TextShape"><tspan class="TextParagraph" font-family="Liberation Sans, sans-serif" font-size="353px" font-weight="400"><tspan class="TextPosition" x="321" y="3082"><tspan fill="rgb(0,0,0)" stroke="none">0.8</tspan></tspan></tspan></text>
 <text class="TextShape"><tspan class="TextParagraph" font-family="Liberation Sans, sans-serif" font-size="353px" font-weight="400"><tspan class="TextPosition" x="612" y="1779"><tspan fill="rgb(0,0,0)" stroke="none">1</tspan></tspan></tspan></text>
 <path fill="rgb(255,211,32)" stroke="none" d="M 4353,589 L 4248,589 4248,378 4459,378 4459,589 4353,589 Z"/>
 <path fill="rgb(87,157,28)" stroke="none" d="M 6856,589 L 6751,589 6751,378 6962,378 6962,589 6856,589 Z"/>
 <path fill="rgb(0,69,134)" stroke="none" d="M 9174,589 L 9068,589 9068,378 9279,378 9279,589 9174,589 Z"/>
 <path fill="rgb(255,66,14)" stroke="none" d="M 10486,589 L 10380,589 10380,378 10591,378 10591,589 10486,589 Z"/>
 <path fill="rgb(141,29,117)" stroke="none" d="M 4353,1087 L 4248,1087 4248,876 4459,876 4459,1087 4353,1087 Z"/>
 <path fill="rgb(131,202,255)" stroke="none" d="M 6856,1087 L 6751,1087 6751,876 6962,876 6962,1087 6856,1087 Z"/>
 <path fill="rgb(49,64,4)" stroke="none" d="M 9174,1087 L 9068,1087 9068,876 9279,876 9279,1087 9174,1087 Z"/>
 <text class="TextShape"><tspan class="TextParagraph" font-family="Liberation Sans, sans-serif" font-size="353px" font-weight="400"><tspan class="TextPosition" x="4559" y="603"><tspan fill="rgb(0,0,0)" stroke="none">MLP (500)</tspan></tspan></tspan></text>
 <text class="TextShape"><tspan class="TextParagraph" font-family="Liberation Sans, sans-serif" font-size="353px" font-weight="400"><tspan class="TextPosition" x="7062" y="603"><tspan fill="rgb(0,0,0)" stroke="none">MLP (2500)</tspan></tspan></tspan></text>
 <text class="TextShape"><tspan class="TextParagraph" font-family="Liberation Sans, sans-serif" font-size="353px" font-weight="400"><tspan class="TextPosition" x="9379" y="603"><tspan fill="rgb(0,0,0)" stroke="none">LMS</tspan></tspan></tspan></text>
 <text class="TextShape"><tspan class="TextParagraph" font-family="Liberation Sans, sans-serif" font-size="353px" font-weight="400"><tspan class="TextPosition" x="10691" y="603"><tspan fill="rgb(0,0,0)" stroke="none">C-SVC</tspan></tspan></tspan></text>
 <text class="TextShape"><tspan class="TextParagraph" font-family="Liberation Sans, sans-serif" font-size="353px" font-weight="400"><tspan class="TextPosition" x="4559" y="1101"><tspan fill="rgb(0,0,0)" stroke="none">RandomTree</tspan></tspan></tspan></text>
 <text class="TextShape"><tspan class="TextParagraph" font-family="Liberation Sans, sans-serif" font-size="353px" font-weight="400"><tspan class="TextPosition" x="7062" y="1101"><tspan fill="rgb(0,0,0)" stroke="none">KStar</tspan></tspan></tspan></text>
 <text class="TextShape"><tspan class="TextParagraph" font-family="Liberation Sans, sans-serif" font-size="353px" font-weight="400"><tspan class="TextPosition" x="9379" y="1101"><tspan fill="rgb(0,0,0)" stroke="none">MCS</tspan></tspan></tspan></text>
</svg>