<?xml version="1.0" encoding="UTF-8"?>
<!DOCTYPE svg PUBLIC "-//W3C//DTD SVG 1.1//EN" "http://www.w3.org/Graphics/SVG/1.1/DTD/svg11.dtd">
<svg width="160mm" height="90mm" viewBox="0 0 16000 9000" version="1.1" xmlns="http://www.w3.org/2000/svg" xmlns:xlink="http://www.w3.org/1999/xlink" stroke-width="28.222" stroke-linejoin="round" xml:space="preserve">
 <path fill="rgb(255,255,255)" stroke="none" d="M 8006,8992 L 0,8992 0,0 16012,0 16012,8992 8006,8992 Z"/>
 <path fill="none" stroke="rgb(179,179,179)" stroke-linejoin="round" d="M 9058,8166 L 2429,8166 2429,1161 15688,1161 15688,8166 9058,8166 Z"/>
 <path fill="none" stroke="rgb(179,179,179)" stroke-linejoin="round" d="M 15688,8165 L 2429,8165"/>
 <path fill="none" stroke="rgb(179,179,179)" stroke-linejoin="round" d="M 15688,7289 L 2429,7289"/>
 <path fill="none" stroke="rgb(179,179,179)" stroke-linejoin="round" d="M 15688,6413 L 2429,6413"/>
 <path fill="none" stroke="rgb(179,179,179)" stroke-linejoin="round" d="M 15688,5537 L 2429,5537"/>
 <path fill="none" stroke="rgb(179,179,179)" stroke-linejoin="round" d="M 15688,4662 L 2429,4662"/>
 <path fill="none" stroke="rgb(179,179,179)" stroke-linejoin="round" d="M 15688,3787 L 2429,3787"/>
 <path fill="none" stroke="rgb(179,179,179)" stroke-linejoin="round" d="M 15688,2911 L 2429,2911"/>
 <path fill="none" stroke="rgb(179,179,179)" stroke-linejoin="round" d="M 15688,2035 L 2429,2035"/>
 <path fill="none" stroke="rgb(179,179,179)" stroke-linejoin="round" d="M 15688,1160 L 2429,1160"/>
 <path fill="none" stroke="rgb(179,179,179)" stroke-linejoin="round" d="M 2429,8315 L 2429,8165"/>
 <path fill="none" stroke="rgb(179,179,179)" stroke-linejoin="round" d="M 2429,8315 L 2429,8165"/>
 <path fill="none" stroke="rgb(179,179,179)" stroke-linejoin="round" d="M 3534,8315 L 3534,8165"/>
 <path fill="none" stroke="rgb(179,179,179)" stroke-linejoin="round" d="M 3534,8315 L 3534,8165"/>
 <path fill="none" stroke="rgb(179,179,179)" stroke-linejoin="round" d="M 4639,8315 L 4639,8165"/>
 <path fill="none" stroke="rgb(179,179,179)" stroke-linejoin="round" d="M 4639,8315 L 4639,8165"/>
 <path fill="none" stroke="rgb(179,179,179)" stroke-linejoin="round" d="M 5744,8315 L 5744,8165"/>
 <path fill="none" stroke="rgb(179,179,179)" stroke-linejoin="round" d="M 5744,8315 L 5744,8165"/>
 <path fill="none" stroke="rgb(179,179,179)" stroke-linejoin="round" d="M 6849,8315 L 6849,8165"/>
 <path fill="none" stroke="rgb(179,179,179)" stroke-linejoin="round" d="M 6849,8315 L 6849,8165"/>
 <path fill="none" stroke="rgb(179,179,179)" stroke-linejoin="round" d="M 7953,8315 L 7953,8165"/>
 <path fill="none" stroke="rgb(179,179,179)" stroke-linejoin="round" d="M 7953,8315 L 7953,8165"/>
 <path fill="none" stroke="rgb(179,179,179)" stroke-linejoin="round" d="M 9058,8315 L 9058,8165"/>
 <path fill="none" stroke="rgb(179,179,179)" stroke-linejoin="round" d="M 9058,8315 L 9058,8165"/>
 <path fill="none" stroke="rgb(179,179,179)" stroke-linejoin="round" d="M 10163,8315 L 10163,8165"/>
 <path fill="none" stroke="rgb(179,179,179)" stroke-linejoin="round" d="M 10163,8315 L 10163,8165"/>
 <path fill="none" stroke="rgb(179,179,179)" stroke-linejoin="round" d="M 11268,8315 L 11268,8165"/>
 <path fill="none" stroke="rgb(179,179,179)" stroke-linejoin="round" d="M 11268,8315 L 11268,8165"/>
 <path fill="none" stroke="rgb(179,179,179)" stroke-linejoin="round" d="M 12373,8315 L 12373,8165"/>
 <path fill="none" stroke="rgb(179,179,179)" stroke-linejoin="round" d="M 12373,8315 L 12373,8165"/>
 <path fill="none" stroke="rgb(179,179,179)" stroke-linejoin="round" d="M 13477,8315 L 13477,8165"/>
 <path fill="none" stroke="rgb(179,179,179)" stroke-linejoin="round" d="M 13477,8315 L 13477,8165"/>
 <path fill="none" stroke="rgb(179,179,179)" stroke-linejoin="round" d="M 14583,8315 L 14583,8165"/>
 <path fill="none" stroke="rgb(179,179,179)" stroke-linejoin="round" d="M 14583,8315 L 14583,8165"/>
 <path fill="none" stroke="rgb(179,179,179)" stroke-linejoin="round" d="M 15688,8315 L 15688,8165"/>
 <path fill="none" stroke="rgb(179,179,179)" stroke-linejoin="round" d="M 15688,8315 L 15688,8165"/>
 <path fill="none" stroke="rgb(179,179,179)" stroke-linejoin="round" d="M 2429,8165 L 15688,8165"/>
 <path fill="none" stroke="rgb(179,179,179)" stroke-linejoin="round" d="M 2279,8165 L 2429,8165"/>
 <path fill="none" stroke="rgb(179,179,179)" stroke-linejoin="round" d="M 2279,8165 L 2429,8165"/>
 <path fill="none" stroke="rgb(179,179,179)" stroke-linejoin="round" d="M 2279,7289 L 2429,7289"/>
 <path fill="none" stroke="rgb(179,179,179)" stroke-linejoin="round" d="M 2279,7289 L 2429,7289"/>
 <path fill="none" stroke="rgb(179,179,179)" stroke-linejoin="round" d="M 2279,6413 L 2429,6413"/>
 <path fill="none" stroke="rgb(179,179,179)" stroke-linejoin="round" d="M 2279,6413 L 2429,6413"/>
 <path fill="none" stroke="rgb(179,179,179)" stroke-linejoin="round" d="M 2279,5537 L 2429,5537"/>
 <path fill="none" stroke="rgb(179,179,179)" stroke-linejoin="round" d="M 2279,5537 L 2429,5537"/>
 <path fill="none" stroke="rgb(179,179,179)" stroke-linejoin="round" d="M 2279,4662 L 2429,4662"/>
 <path fill="none" stroke="rgb(179,179,179)" stroke-linejoin="round" d="M 2279,4662 L 2429,4662"/>
 <path fill="none" stroke="rgb(179,179,179)" stroke-linejoin="round" d="M 2279,3787 L 2429,3787"/>
 <path fill="none" stroke="rgb(179,179,179)" stroke-linejoin="round" d="M 2279,3787 L 2429,3787"/>
 <path fill="none" stroke="rgb(179,179,179)" stroke-linejoin="round" d="M 2279,2911 L 2429,2911"/>
 <path fill="none" stroke="rgb(179,179,179)" stroke-linejoin="round" d="M 2279,2911 L 2429,2911"/>
 <path fill="none" stroke="rgb(179,179,179)" stroke-linejoin="round" d="M 2279,2035 L 2429,2035"/>
 <path fill="none" stroke="rgb(179,179,179)" stroke-linejoin="round" d="M 2279,2035 L 2429,2035"/>
 <path fill="none" stroke="rgb(179,179,179)" stroke-linejoin="round" d="M 2279,1160 L 2429,1160"/>
 <path fill="none" stroke="rgb(179,179,179)" stroke-linejoin="round" d="M 2279,1160 L 2429,1160"/>
 <path fill="none" stroke="rgb(179,179,179)" stroke-linejoin="round" d="M 2429,8165 L 2429,1160"/>
 <path fill="rgb(174,207,0)" stroke="none" d="M 14693,8165 L 14914,8165 14914,3756 14693,3756 14693,8165 Z"/>
 <path fill="rgb(174,207,0)" stroke="none" d="M 13588,8165 L 13809,8165 13809,4948 13588,4948 13588,8165 Z"/>
 <path fill="rgb(174,207,0)" stroke="none" d="M 12483,8165 L 12704,8165 12704,3255 12483,3255 12483,8165 Z"/>
 <path fill="rgb(174,207,0)" stroke="none" d="M 11378,8165 L 11599,8165 11599,5625 11378,5625 11378,8165 Z"/>
 <path fill="rgb(174,207,0)" stroke="none" d="M 10273,8165 L 10494,8165 10494,2489 10273,2489 10273,8165 Z"/>
 <path fill="rgb(174,207,0)" stroke="none" d="M 9168,8165 L 9389,8165 9389,1739 9168,1739 9168,8165 Z"/>
 <path fill="rgb(174,207,0)" stroke="none" d="M 8063,8165 L 8284,8165 8284,3023 8063,3023 8063,8165 Z"/>
 <path fill="rgb(174,207,0)" stroke="none" d="M 6959,8165 L 7180,8165 7180,3768 6959,3768 6959,8165 Z"/>
 <path fill="rgb(174,207,0)" stroke="none" d="M 5854,8165 L 6075,8165 6075,2547 5854,2547 5854,8165 Z"/>
 <path fill="rgb(174,207,0)" stroke="none" d="M 4749,8165 L 4970,8165 4970,5660 4749,5660 4749,8165 Z"/>
 <path fill="rgb(174,207,0)" stroke="none" d="M 3644,8165 L 3865,8165 3865,3960 3644,3960 3644,8165 Z"/>
 <path fill="rgb(174,207,0)" stroke="none" d="M 2539,8165 L 2760,8165 2760,4296 2539,4296 2539,8165 Z"/>
 <path fill="rgb(255,66,14)" stroke="none" d="M 14914,8165 L 15135,8165 15135,5357 14914,5357 14914,8165 Z"/>
 <path fill="rgb(255,66,14)" stroke="none" d="M 13809,8165 L 14030,8165 14030,6747 13809,6747 13809,8165 Z"/>
 <path fill="rgb(255,66,14)" stroke="none" d="M 12704,8165 L 12925,8165 12925,4986 12704,4986 12704,8165 Z"/>
 <path fill="rgb(255,66,14)" stroke="none" d="M 11599,8165 L 11820,8165 11820,4156 11599,4156 11599,8165 Z"/>
 <path fill="rgb(255,66,14)" stroke="none" d="M 10494,8165 L 10715,8165 10715,4207 10494,4207 10494,8165 Z"/>
 <path fill="rgb(255,66,14)" stroke="none" d="M 9389,8165 L 9610,8165 9610,4091 9389,4091 9389,8165 Z"/>
 <path fill="rgb(255,66,14)" stroke="none" d="M 8284,8165 L 8505,8165 8505,5047 8284,5047 8284,8165 Z"/>
 <path fill="rgb(255,66,14)" stroke="none" d="M 7180,8165 L 7401,8165 7401,5810 7180,5810 7180,8165 Z"/>
 <path fill="rgb(255,66,14)" stroke="none" d="M 6075,8165 L 6296,8165 6296,5030 6075,5030 6075,8165 Z"/>
 <path fill="rgb(255,66,14)" stroke="none" d="M 4970,8165 L 5191,8165 5191,6742 4970,6742 4970,8165 Z"/>
 <path fill="rgb(255,66,14)" stroke="none" d="M 3865,8165 L 4086,8165 4086,5607 3865,5607 3865,8165 Z"/>
 <path fill="rgb(255,66,14)" stroke="none" d="M 2760,8165 L 2981,8165 2981,6508 2760,6508 2760,8165 Z"/>
 <path fill="rgb(131,202,255)" stroke="none" d="M 15135,8165 L 15356,8165 15356,4559 15135,4559 15135,8165 Z"/>
 <path fill="rgb(131,202,255)" stroke="none" d="M 14030,8165 L 14251,8165 14251,5825 14030,5825 14030,8165 Z"/>
 <path fill="rgb(131,202,255)" stroke="none" d="M 12925,8165 L 13146,8165 13146,3678 12925,3678 12925,8165 Z"/>
 <path fill="rgb(131,202,255)" stroke="none" d="M 11820,8165 L 12041,8165 12041,2310 11820,2310 11820,8165 Z"/>
 <path fill="rgb(131,202,255)" stroke="none" d="M 10715,8165 L 10936,8165 10936,3440 10715,3440 10715,8165 Z"/>
 <path fill="rgb(131,202,255)" stroke="none" d="M 9610,8165 L 9831,8165 9831,2904 9610,2904 9610,8165 Z"/>
 <path fill="rgb(131,202,255)" stroke="none" d="M 8505,8165 L 8726,8165 8726,4053 8505,4053 8505,8165 Z"/>
 <path fill="rgb(131,202,255)" stroke="none" d="M 7401,8165 L 7622,8165 7622,4907 7401,4907 7401,8165 Z"/>
 <path fill="rgb(131,202,255)" stroke="none" d="M 6296,8165 L 6517,8165 6517,5417 6296,5417 6296,8165 Z"/>
 <path fill="rgb(131,202,255)" stroke="none" d="M 5191,8165 L 5412,8165 5412,6612 5191,6612 5191,8165 Z"/>
 <path fill="rgb(131,202,255)" stroke="none" d="M 4086,8165 L 4307,8165 4307,5396 4086,5396 4086,8165 Z"/>
 <path fill="rgb(131,202,255)" stroke="none" d="M 2981,8165 L 3202,8165 3202,5606 2981,5606 2981,8165 Z"/>
 <path fill="rgb(255,211,32)" stroke="none" d="M 15356,8165 L 15577,8165 15577,4877 15356,4877 15356,8165 Z"/>
 <path fill="rgb(255,211,32)" stroke="none" d="M 14251,8165 L 14472,8165 14472,6185 14251,6185 14251,8165 Z"/>
 <path fill="rgb(255,211,32)" stroke="none" d="M 13146,8165 L 13367,8165 13367,3451 13146,3451 13146,8165 Z"/>
 <path fill="rgb(255,211,32)" stroke="none" d="M 12041,8165 L 12262,8165 12262,4220 12041,4220 12041,8165 Z"/>
 <path fill="rgb(255,211,32)" stroke="none" d="M 10936,8165 L 11157,8165 11157,3769 10936,3769 10936,8165 Z"/>
 <path fill="rgb(255,211,32)" stroke="none" d="M 9831,8165 L 10052,8165 10052,3866 9831,3866 9831,8165 Z"/>
 <path fill="rgb(255,211,32)" stroke="none" d="M 8726,8165 L 8947,8165 8947,4827 8726,4827 8726,8165 Z"/>
 <path fill="rgb(255,211,32)" stroke="none" d="M 7622,8165 L 7843,8165 7843,5134 7622,5134 7622,8165 Z"/>
 <path fill="rgb(255,211,32)" stroke="none" d="M 6517,8165 L 6738,8165 6738,4753 6517,4753 6517,8165 Z"/>
 <path fill="rgb(255,211,32)" stroke="none" d="M 5412,8165 L 5633,8165 5633,6024 5412,6024 5412,8165 Z"/>
 <path fill="rgb(255,211,32)" stroke="none" d="M 4307,8165 L 4528,8165 4528,5344 4307,5344 4307,8165 Z"/>
 <path fill="rgb(255,211,32)" stroke="none" d="M 3202,8165 L 3423,8165 3423,6077 3202,6077 3202,8165 Z"/>
 <text class="TextShape"><tspan class="TextParagraph" font-family="Liberation Sans, sans-serif" font-size="353px" font-weight="400"><tspan class="TextPosition" x="2571" y="8733"><tspan fill="rgb(0,0,0)" stroke="none">DM 1</tspan></tspan></tspan></text>
 <text class="TextShape"><tspan class="TextParagraph" font-family="Liberation Sans, sans-serif" font-size="353px" font-weight="400"><tspan class="TextPosition" x="3676" y="8733"><tspan fill="rgb(0,0,0)" stroke="none">DM 2</tspan></tspan></tspan></text>
 <text class="TextShape"><tspan class="TextParagraph" font-family="Liberation Sans, sans-serif" font-size="353px" font-weight="400"><tspan class="TextPosition" x="4781" y="8733"><tspan fill="rgb(0,0,0)" stroke="none">DM 3</tspan></tspan></tspan></text>
 <text class="TextShape"><tspan class="TextParagraph" font-family="Liberation Sans, sans-serif" font-size="353px" font-weight="400"><tspan class="TextPosition" x="5886" y="8733"><tspan fill="rgb(0,0,0)" stroke="none">DM 4</tspan></tspan></tspan></text>
 <text class="TextShape"><tspan class="TextParagraph" font-family="Liberation Sans, sans-serif" font-size="353px" font-weight="400"><tspan class="TextPosition" x="6991" y="8733"><tspan fill="rgb(0,0,0)" stroke="none">DM 5</tspan></tspan></tspan></text>
 <text class="TextShape"><tspan class="TextParagraph" font-family="Liberation Sans, sans-serif" font-size="353px" font-weight="400"><tspan class="TextPosition" x="8096" y="8733"><tspan fill="rgb(0,0,0)" stroke="none">DM 6</tspan></tspan></tspan></text>
 <text class="TextShape"><tspan class="TextParagraph" font-family="Liberation Sans, sans-serif" font-size="353px" font-weight="400"><tspan class="TextPosition" x="9201" y="8733"><tspan fill="rgb(0,0,0)" stroke="none">DM 7</tspan></tspan></tspan></text>
 <text class="TextShape"><tspan class="TextParagraph" font-family="Liberation Sans, sans-serif" font-size="353px" font-weight="400"><tspan class="TextPosition" x="10306" y="8733"><tspan fill="rgb(0,0,0)" stroke="none">DM 8</tspan></tspan></tspan></text>
 <text class="TextShape"><tspan class="TextParagraph" font-family="Liberation Sans, sans-serif" font-size="353px" font-weight="400"><tspan class="TextPosition" x="11411" y="8733"><tspan fill="rgb(0,0,0)" stroke="none">DM 9</tspan></tspan></tspan></text>
 <text class="TextShape"><tspan class="TextParagraph" font-family="Liberation Sans, sans-serif" font-size="353px" font-weight="400"><tspan class="TextPosition" x="12423" y="8733"><tspan fill="rgb(0,0,0)" stroke="none">DM 10</tspan></tspan></tspan></text>
 <text class="TextShape"><tspan class="TextParagraph" font-family="Liberation Sans, sans-serif" font-size="353px" font-weight="400"><tspan class="TextPosition" x="13528" y="8733"><tspan fill="rgb(0,0,0)" stroke="none">DM 11</tspan></tspan></tspan></text>
 <text class="TextShape"><tspan class="TextParagraph" font-family="Liberation Sans, sans-serif" font-size="353px" font-weight="400"><tspan class="TextPosition" x="14580" y="8733"><tspan fill="rgb(0,0,0)" stroke="none">Median</tspan></tspan></tspan></text>
 <text class="TextShape"><tspan class="TextParagraph" font-family="Liberation Sans, sans-serif" font-size="353px" font-weight="400"><tspan class="TextPosition" x="1518" y="8286"><tspan fill="rgb(0,0,0)" stroke="none">0.00</tspan></tspan></tspan></text>
 <text class="TextShape"><tspan class="TextParagraph" font-family="Liberation Sans, sans-serif" font-size="353px" font-weight="400"><tspan class="TextPosition" x="1332" y="7410"><tspan fill="rgb(0,0,0)" stroke="none">10.00</tspan></tspan></tspan></text>
 <text class="TextShape"><tspan class="TextParagraph" font-family="Liberation Sans, sans-serif" font-size="353px" font-weight="400"><tspan class="TextPosition" x="1332" y="6534"><tspan fill="rgb(0,0,0)" stroke="none">20.00</tspan></tspan></tspan></text>
 <text class="TextShape"><tspan class="TextParagraph" font-family="Liberation Sans, sans-serif" font-size="353px" font-weight="400"><tspan class="TextPosition" x="1332" y="5658"><tspan fill="rgb(0,0,0)" stroke="none">30.00</tspan></tspan></tspan></text>
 <text class="TextShape"><tspan class="TextParagraph" font-family="Liberation Sans, sans-serif" font-size="353px" font-weight="400"><tspan class="TextPosition" x="1332" y="4783"><tspan fill="rgb(0,0,0)" stroke="none">40.00</tspan></tspan></tspan></text>
 <text class="TextShape"><tspan class="TextParagraph" font-family="Liberation Sans, sans-serif" font-size="353px" font-weight="400"><tspan class="TextPosition" x="1332" y="3907"><tspan fill="rgb(0,0,0)" stroke="none">50.00</tspan></tspan></tspan></text>
 <text class="TextShape"><tspan class="TextParagraph" font-family="Liberation Sans, sans-serif" font-size="353px" font-weight="400"><tspan class="TextPosition" x="1332" y="3031"><tspan fill="rgb(0,0,0)" stroke="none">60.00</tspan></tspan></tspan></text>
 <text class="TextShape"><tspan class="TextParagraph" font-family="Liberation Sans, sans-serif" font-size="353px" font-weight="400"><tspan class="TextPosition" x="1332" y="2155"><tspan fill="rgb(0,0,0)" stroke="none">70.00</tspan></tspan></tspan></text>
 <text class="TextShape"><tspan class="TextParagraph" font-family="Liberation Sans, sans-serif" font-size="353px" font-weight="400"><tspan class="TextPosition" x="1332" y="1280"><tspan fill="rgb(0,0,0)" stroke="none">80.00</tspan></tspan></tspan></text>
 <path fill="rgb(174,207,0)" stroke="none" d="M 4703,589 L 4598,589 4598,378 4809,378 4809,589 4703,589 Z"/>
 <path fill="rgb(255,66,14)" stroke="none" d="M 7021,589 L 6916,589 6916,378 7127,378 7127,589 7021,589 Z"/>
 <path fill="rgb(131,202,255)" stroke="none" d="M 9524,589 L 9418,589 9418,378 9629,378 9629,589 9524,589 Z"/>
 <path fill="rgb(255,211,32)" stroke="none" d="M 10439,589 L 10333,589 10333,378 10544,378 10544,589 10439,589 Z"/>
 <text class="TextShape"><tspan class="TextParagraph" font-family="Liberation Sans, sans-serif" font-size="353px" font-weight="400"><tspan class="TextPosition" x="4909" y="603"><tspan fill="rgb(0,0,0)" stroke="none">MLP (2500)</tspan></tspan></tspan></text>
 <text class="TextShape"><tspan class="TextParagraph" font-family="Liberation Sans, sans-serif" font-size="353px" font-weight="400"><tspan class="TextPosition" x="7227" y="603"><tspan fill="rgb(0,0,0)" stroke="none">RandomTree</tspan></tspan></tspan></text>
 <text class="TextShape"><tspan class="TextParagraph" font-family="Liberation Sans, sans-serif" font-size="353px" font-weight="400"><tspan class="TextPosition" x="9729" y="603"><tspan fill="rgb(0,0,0)" stroke="none">K*</tspan></tspan></tspan></text>
 <text class="TextShape"><tspan class="TextParagraph" font-family="Liberation Sans, sans-serif" font-size="353px" font-weight="400"><tspan class="TextPosition" x="10644" y="603"><tspan fill="rgb(0,0,0)" stroke="none">MCS</tspan></tspan></tspan></text>
 <text class="TextShape" transform="rotate(-90 837 7520)"><tspan class="TextParagraph" font-family="Liberation Sans, sans-serif" font-size="318px" font-weight="400"><tspan class="TextPosition" x="837" y="7520"><tspan fill="rgb(0,0,0)" stroke="none">Root Relative Squared Error (RRSE)</tspan></tspan></tspan></text>
</svg>