<?xml version="1.0" encoding="UTF-8"?>
<!DOCTYPE svg PUBLIC "-//W3C//DTD SVG 1.1//EN" "http://www.w3.org/Graphics/SVG/1.1/DTD/svg11.dtd">
<svg width="160mm" height="90mm" viewBox="0 0 16000 9000" version="1.1" xmlns="http://www.w3.org/2000/svg" xmlns:xlink="http://www.w3.org/1999/xlink" stroke-width="28.222" stroke-linejoin="round" xml:space="preserve">
 <path fill="rgb(255,255,255)" stroke="none" d="M 8006,8993 L 0,8993 0,0 16012,0 16012,8993 8006,8993 Z"/>
 <path fill="none" stroke="rgb(179,179,179)" stroke-linejoin="round" d="M 8967,8167 L 2243,8167 2243,1161 15692,1161 15692,8167 8967,8167 Z"/>
 <path fill="none" stroke="rgb(179,179,179)" stroke-linejoin="round" d="M 15691,8166 L 2243,8166"/>
 <path fill="none" stroke="rgb(179,179,179)" stroke-linejoin="round" d="M 15691,7165 L 2243,7165"/>
 <path fill="none" stroke="rgb(179,179,179)" stroke-linejoin="round" d="M 15691,6164 L 2243,6164"/>
 <path fill="none" stroke="rgb(179,179,179)" stroke-linejoin="round" d="M 15691,5163 L 2243,5163"/>
 <path fill="none" stroke="rgb(179,179,179)" stroke-linejoin="round" d="M 15691,4163 L 2243,4163"/>
 <path fill="none" stroke="rgb(179,179,179)" stroke-linejoin="round" d="M 15691,3162 L 2243,3162"/>
 <path fill="none" stroke="rgb(179,179,179)" stroke-linejoin="round" d="M 15691,2161 L 2243,2161"/>
 <path fill="none" stroke="rgb(179,179,179)" stroke-linejoin="round" d="M 15691,1160 L 2243,1160"/>
 <path fill="none" stroke="rgb(179,179,179)" stroke-linejoin="round" d="M 2243,8316 L 2243,8166"/>
 <path fill="none" stroke="rgb(179,179,179)" stroke-linejoin="round" d="M 2243,8316 L 2243,8166"/>
 <path fill="none" stroke="rgb(179,179,179)" stroke-linejoin="round" d="M 3363,8316 L 3363,8166"/>
 <path fill="none" stroke="rgb(179,179,179)" stroke-linejoin="round" d="M 3363,8316 L 3363,8166"/>
 <path fill="none" stroke="rgb(179,179,179)" stroke-linejoin="round" d="M 4484,8316 L 4484,8166"/>
 <path fill="none" stroke="rgb(179,179,179)" stroke-linejoin="round" d="M 4484,8316 L 4484,8166"/>
 <path fill="none" stroke="rgb(179,179,179)" stroke-linejoin="round" d="M 5605,8316 L 5605,8166"/>
 <path fill="none" stroke="rgb(179,179,179)" stroke-linejoin="round" d="M 5605,8316 L 5605,8166"/>
 <path fill="none" stroke="rgb(179,179,179)" stroke-linejoin="round" d="M 6726,8316 L 6726,8166"/>
 <path fill="none" stroke="rgb(179,179,179)" stroke-linejoin="round" d="M 6726,8316 L 6726,8166"/>
 <path fill="none" stroke="rgb(179,179,179)" stroke-linejoin="round" d="M 7847,8316 L 7847,8166"/>
 <path fill="none" stroke="rgb(179,179,179)" stroke-linejoin="round" d="M 7847,8316 L 7847,8166"/>
 <path fill="none" stroke="rgb(179,179,179)" stroke-linejoin="round" d="M 8967,8316 L 8967,8166"/>
 <path fill="none" stroke="rgb(179,179,179)" stroke-linejoin="round" d="M 8967,8316 L 8967,8166"/>
 <path fill="none" stroke="rgb(179,179,179)" stroke-linejoin="round" d="M 10087,8316 L 10087,8166"/>
 <path fill="none" stroke="rgb(179,179,179)" stroke-linejoin="round" d="M 10087,8316 L 10087,8166"/>
 <path fill="none" stroke="rgb(179,179,179)" stroke-linejoin="round" d="M 11208,8316 L 11208,8166"/>
 <path fill="none" stroke="rgb(179,179,179)" stroke-linejoin="round" d="M 11208,8316 L 11208,8166"/>
 <path fill="none" stroke="rgb(179,179,179)" stroke-linejoin="round" d="M 12329,8316 L 12329,8166"/>
 <path fill="none" stroke="rgb(179,179,179)" stroke-linejoin="round" d="M 12329,8316 L 12329,8166"/>
 <path fill="none" stroke="rgb(179,179,179)" stroke-linejoin="round" d="M 13450,8316 L 13450,8166"/>
 <path fill="none" stroke="rgb(179,179,179)" stroke-linejoin="round" d="M 13450,8316 L 13450,8166"/>
 <path fill="none" stroke="rgb(179,179,179)" stroke-linejoin="round" d="M 14571,8316 L 14571,8166"/>
 <path fill="none" stroke="rgb(179,179,179)" stroke-linejoin="round" d="M 14571,8316 L 14571,8166"/>
 <path fill="none" stroke="rgb(179,179,179)" stroke-linejoin="round" d="M 15691,8316 L 15691,8166"/>
 <path fill="none" stroke="rgb(179,179,179)" stroke-linejoin="round" d="M 15691,8316 L 15691,8166"/>
 <path fill="none" stroke="rgb(179,179,179)" stroke-linejoin="round" d="M 2243,8166 L 15691,8166"/>
 <path fill="none" stroke="rgb(179,179,179)" stroke-linejoin="round" d="M 2093,8166 L 2243,8166"/>
 <path fill="none" stroke="rgb(179,179,179)" stroke-linejoin="round" d="M 2093,8166 L 2243,8166"/>
 <path fill="none" stroke="rgb(179,179,179)" stroke-linejoin="round" d="M 2093,7165 L 2243,7165"/>
 <path fill="none" stroke="rgb(179,179,179)" stroke-linejoin="round" d="M 2093,7165 L 2243,7165"/>
 <path fill="none" stroke="rgb(179,179,179)" stroke-linejoin="round" d="M 2093,6164 L 2243,6164"/>
 <path fill="none" stroke="rgb(179,179,179)" stroke-linejoin="round" d="M 2093,6164 L 2243,6164"/>
 <path fill="none" stroke="rgb(179,179,179)" stroke-linejoin="round" d="M 2093,5163 L 2243,5163"/>
 <path fill="none" stroke="rgb(179,179,179)" stroke-linejoin="round" d="M 2093,5163 L 2243,5163"/>
 <path fill="none" stroke="rgb(179,179,179)" stroke-linejoin="round" d="M 2093,4163 L 2243,4163"/>
 <path fill="none" stroke="rgb(179,179,179)" stroke-linejoin="round" d="M 2093,4163 L 2243,4163"/>
 <path fill="none" stroke="rgb(179,179,179)" stroke-linejoin="round" d="M 2093,3162 L 2243,3162"/>
 <path fill="none" stroke="rgb(179,179,179)" stroke-linejoin="round" d="M 2093,3162 L 2243,3162"/>
 <path fill="none" stroke="rgb(179,179,179)" stroke-linejoin="round" d="M 2093,2161 L 2243,2161"/>
 <path fill="none" stroke="rgb(179,179,179)" stroke-linejoin="round" d="M 2093,2161 L 2243,2161"/>
 <path fill="none" stroke="rgb(179,179,179)" stroke-linejoin="round" d="M 2093,1160 L 2243,1160"/>
 <path fill="none" stroke="rgb(179,179,179)" stroke-linejoin="round" d="M 2093,1160 L 2243,1160"/>
 <path fill="none" stroke="rgb(179,179,179)" stroke-linejoin="round" d="M 2243,8166 L 2243,1160"/>
 <path fill="rgb(174,207,0)" stroke="none" d="M 14683,8166 L 14907,8166 14907,5235 14683,5235 14683,8166 Z"/>
 <path fill="rgb(174,207,0)" stroke="none" d="M 13562,8166 L 13786,8166 13786,5963 13562,5963 13562,8166 Z"/>
 <path fill="rgb(174,207,0)" stroke="none" d="M 12441,8166 L 12665,8166 12665,5563 12441,5563 12441,8166 Z"/>
 <path fill="rgb(174,207,0)" stroke="none" d="M 11320,8166 L 11544,8166 11544,7365 11320,7365 11320,8166 Z"/>
 <path fill="rgb(174,207,0)" stroke="none" d="M 10199,8166 L 10424,8166 10424,5963 10199,5963 10199,8166 Z"/>
 <path fill="rgb(174,207,0)" stroke="none" d="M 9079,8166 L 9303,8166 9303,4562 9079,4562 9079,8166 Z"/>
 <path fill="rgb(174,207,0)" stroke="none" d="M 7959,8166 L 8182,8166 8182,4962 7959,4962 7959,8166 Z"/>
 <path fill="rgb(174,207,0)" stroke="none" d="M 6838,8166 L 7062,8166 7062,4163 6838,4163 6838,8166 Z"/>
 <path fill="rgb(174,207,0)" stroke="none" d="M 5717,8166 L 5941,8166 5941,1960 5717,1960 5717,8166 Z"/>
 <path fill="rgb(174,207,0)" stroke="none" d="M 4596,8166 L 4820,8166 4820,6164 4596,6164 4596,8166 Z"/>
 <path fill="rgb(174,207,0)" stroke="none" d="M 3475,8166 L 3700,8166 3700,4762 3475,4762 3475,8166 Z"/>
 <path fill="rgb(174,207,0)" stroke="none" d="M 2355,8166 L 2579,8166 2579,6164 2355,6164 2355,8166 Z"/>
 <path fill="rgb(255,66,14)" stroke="none" d="M 14907,8166 L 15131,8166 15131,6382 14907,6382 14907,8166 Z"/>
 <path fill="rgb(255,66,14)" stroke="none" d="M 13786,8166 L 14010,8166 14010,7165 13786,7165 13786,8166 Z"/>
 <path fill="rgb(255,66,14)" stroke="none" d="M 12665,8166 L 12889,8166 12889,6364 12665,6364 12665,8166 Z"/>
 <path fill="rgb(255,66,14)" stroke="none" d="M 11544,8166 L 11769,8166 11769,6764 11544,6764 11544,8166 Z"/>
 <path fill="rgb(255,66,14)" stroke="none" d="M 10424,8166 L 10648,8166 10648,6564 10424,6564 10424,8166 Z"/>
 <path fill="rgb(255,66,14)" stroke="none" d="M 9303,8166 L 9527,8166 9527,5963 9303,5963 9303,8166 Z"/>
 <path fill="rgb(255,66,14)" stroke="none" d="M 8182,8166 L 8406,8166 8406,6164 8182,6164 8182,8166 Z"/>
 <path fill="rgb(255,66,14)" stroke="none" d="M 7062,8166 L 7286,8166 7286,5963 7062,5963 7062,8166 Z"/>
 <path fill="rgb(255,66,14)" stroke="none" d="M 5941,8166 L 6165,8166 6165,4762 5941,4762 5941,8166 Z"/>
 <path fill="rgb(255,66,14)" stroke="none" d="M 4820,8166 L 5045,8166 5045,6964 4820,6964 4820,8166 Z"/>
 <path fill="rgb(255,66,14)" stroke="none" d="M 3700,8166 L 3924,8166 3924,6164 3700,6164 3700,8166 Z"/>
 <path fill="rgb(255,66,14)" stroke="none" d="M 2579,8166 L 2803,8166 2803,7365 2579,7365 2579,8166 Z"/>
 <path fill="rgb(131,202,255)" stroke="none" d="M 15131,8166 L 15355,8166 15355,5963 15131,5963 15131,8166 Z"/>
 <path fill="rgb(131,202,255)" stroke="none" d="M 14010,8166 L 14234,8166 14234,6564 14010,6564 14010,8166 Z"/>
 <path fill="rgb(131,202,255)" stroke="none" d="M 12889,8166 L 13114,8166 13114,5763 12889,5763 12889,8166 Z"/>
 <path fill="rgb(131,202,255)" stroke="none" d="M 11769,8166 L 11993,8166 11993,6164 11769,6164 11769,8166 Z"/>
 <path fill="rgb(131,202,255)" stroke="none" d="M 10648,8166 L 10872,8166 10872,6364 10648,6364 10648,8166 Z"/>
 <path fill="rgb(131,202,255)" stroke="none" d="M 9527,8166 L 9751,8166 9751,5163 9527,5163 9527,8166 Z"/>
 <path fill="rgb(131,202,255)" stroke="none" d="M 8406,8166 L 8630,8166 8630,5563 8406,5563 8406,8166 Z"/>
 <path fill="rgb(131,202,255)" stroke="none" d="M 7286,8166 L 7510,8166 7510,5163 7286,5163 7286,8166 Z"/>
 <path fill="rgb(131,202,255)" stroke="none" d="M 6165,8166 L 6390,8166 6390,5163 6165,5163 6165,8166 Z"/>
 <path fill="rgb(131,202,255)" stroke="none" d="M 5045,8166 L 5269,8166 5269,6964 5045,6964 5045,8166 Z"/>
 <path fill="rgb(131,202,255)" stroke="none" d="M 3924,8166 L 4148,8166 4148,5963 3924,5963 3924,8166 Z"/>
 <path fill="rgb(131,202,255)" stroke="none" d="M 2803,8166 L 3027,8166 3027,6764 2803,6764 2803,8166 Z"/>
 <path fill="rgb(255,211,32)" stroke="none" d="M 15355,8166 L 15579,8166 15579,6036 15355,6036 15355,8166 Z"/>
 <path fill="rgb(255,211,32)" stroke="none" d="M 14234,8166 L 14459,8166 14459,6764 14234,6764 14234,8166 Z"/>
 <path fill="rgb(255,211,32)" stroke="none" d="M 13114,8166 L 13338,8166 13338,5563 13114,5563 13114,8166 Z"/>
 <path fill="rgb(255,211,32)" stroke="none" d="M 11993,8166 L 12217,8166 12217,6764 11993,6764 11993,8166 Z"/>
 <path fill="rgb(255,211,32)" stroke="none" d="M 10872,8166 L 11096,8166 11096,6364 10872,6364 10872,8166 Z"/>
 <path fill="rgb(255,211,32)" stroke="none" d="M 9751,8166 L 9975,8166 9975,5763 9751,5763 9751,8166 Z"/>
 <path fill="rgb(255,211,32)" stroke="none" d="M 8630,8166 L 8854,8166 8854,6164 8630,6164 8630,8166 Z"/>
 <path fill="rgb(255,211,32)" stroke="none" d="M 7510,8166 L 7735,8166 7735,5363 7510,5363 7510,8166 Z"/>
 <path fill="rgb(255,211,32)" stroke="none" d="M 6390,8166 L 6614,8166 6614,4363 6390,4363 6390,8166 Z"/>
 <path fill="rgb(255,211,32)" stroke="none" d="M 5269,8166 L 5493,8166 5493,6364 5269,6364 5269,8166 Z"/>
 <path fill="rgb(255,211,32)" stroke="none" d="M 4148,8166 L 4372,8166 4372,5963 4148,5963 4148,8166 Z"/>
 <path fill="rgb(255,211,32)" stroke="none" d="M 3027,8166 L 3251,8166 3251,6964 3027,6964 3027,8166 Z"/>
 <text class="TextShape"><tspan class="TextParagraph" font-family="Liberation Sans, sans-serif" font-size="353px" font-weight="400"><tspan class="TextPosition" x="2393" y="8734"><tspan fill="rgb(0,0,0)" stroke="none">DM 1</tspan></tspan></tspan></text>
 <text class="TextShape"><tspan class="TextParagraph" font-family="Liberation Sans, sans-serif" font-size="353px" font-weight="400"><tspan class="TextPosition" x="3514" y="8734"><tspan fill="rgb(0,0,0)" stroke="none">DM 2</tspan></tspan></tspan></text>
 <text class="TextShape"><tspan class="TextParagraph" font-family="Liberation Sans, sans-serif" font-size="353px" font-weight="400"><tspan class="TextPosition" x="4635" y="8734"><tspan fill="rgb(0,0,0)" stroke="none">DM 3</tspan></tspan></tspan></text>
 <text class="TextShape"><tspan class="TextParagraph" font-family="Liberation Sans, sans-serif" font-size="353px" font-weight="400"><tspan class="TextPosition" x="5755" y="8734"><tspan fill="rgb(0,0,0)" stroke="none">DM 4</tspan></tspan></tspan></text>
 <text class="TextShape"><tspan class="TextParagraph" font-family="Liberation Sans, sans-serif" font-size="353px" font-weight="400"><tspan class="TextPosition" x="6876" y="8734"><tspan fill="rgb(0,0,0)" stroke="none">DM 5</tspan></tspan></tspan></text>
 <text class="TextShape"><tspan class="TextParagraph" font-family="Liberation Sans, sans-serif" font-size="353px" font-weight="400"><tspan class="TextPosition" x="7997" y="8734"><tspan fill="rgb(0,0,0)" stroke="none">DM 6</tspan></tspan></tspan></text>
 <text class="TextShape"><tspan class="TextParagraph" font-family="Liberation Sans, sans-serif" font-size="353px" font-weight="400"><tspan class="TextPosition" x="9118" y="8734"><tspan fill="rgb(0,0,0)" stroke="none">DM 7</tspan></tspan></tspan></text>
 <text class="TextShape"><tspan class="TextParagraph" font-family="Liberation Sans, sans-serif" font-size="353px" font-weight="400"><tspan class="TextPosition" x="10239" y="8734"><tspan fill="rgb(0,0,0)" stroke="none">DM 8</tspan></tspan></tspan></text>
 <text class="TextShape"><tspan class="TextParagraph" font-family="Liberation Sans, sans-serif" font-size="353px" font-weight="400"><tspan class="TextPosition" x="11360" y="8734"><tspan fill="rgb(0,0,0)" stroke="none">DM 9</tspan></tspan></tspan></text>
 <text class="TextShape"><tspan class="TextParagraph" font-family="Liberation Sans, sans-serif" font-size="353px" font-weight="400"><tspan class="TextPosition" x="12387" y="8734"><tspan fill="rgb(0,0,0)" stroke="none">DM 10</tspan></tspan></tspan></text>
 <text class="TextShape"><tspan class="TextParagraph" font-family="Liberation Sans, sans-serif" font-size="353px" font-weight="400"><tspan class="TextPosition" x="13508" y="8734"><tspan fill="rgb(0,0,0)" stroke="none">DM 11</tspan></tspan></tspan></text>
 <text class="TextShape"><tspan class="TextParagraph" font-family="Liberation Sans, sans-serif" font-size="353px" font-weight="400"><tspan class="TextPosition" x="14576" y="8734"><tspan fill="rgb(0,0,0)" stroke="none">Median</tspan></tspan></tspan></text>
 <text class="TextShape"><tspan class="TextParagraph" font-family="Liberation Sans, sans-serif" font-size="353px" font-weight="400"><tspan class="TextPosition" x="1332" y="8287"><tspan fill="rgb(0,0,0)" stroke="none">0.00</tspan></tspan></tspan></text>
 <text class="TextShape"><tspan class="TextParagraph" font-family="Liberation Sans, sans-serif" font-size="353px" font-weight="400"><tspan class="TextPosition" x="1332" y="7286"><tspan fill="rgb(0,0,0)" stroke="none">0.05</tspan></tspan></tspan></text>
 <text class="TextShape"><tspan class="TextParagraph" font-family="Liberation Sans, sans-serif" font-size="353px" font-weight="400"><tspan class="TextPosition" x="1332" y="6285"><tspan fill="rgb(0,0,0)" stroke="none">0.10</tspan></tspan></tspan></text>
 <text class="TextShape"><tspan class="TextParagraph" font-family="Liberation Sans, sans-serif" font-size="353px" font-weight="400"><tspan class="TextPosition" x="1332" y="5284"><tspan fill="rgb(0,0,0)" stroke="none">0.15</tspan></tspan></tspan></text>
 <text class="TextShape"><tspan class="TextParagraph" font-family="Liberation Sans, sans-serif" font-size="353px" font-weight="400"><tspan class="TextPosition" x="1332" y="4283"><tspan fill="rgb(0,0,0)" stroke="none">0.20</tspan></tspan></tspan></text>
 <text class="TextShape"><tspan class="TextParagraph" font-family="Liberation Sans, sans-serif" font-size="353px" font-weight="400"><tspan class="TextPosition" x="1332" y="3282"><tspan fill="rgb(0,0,0)" stroke="none">0.25</tspan></tspan></tspan></text>
 <text class="TextShape"><tspan class="TextParagraph" font-family="Liberation Sans, sans-serif" font-size="353px" font-weight="400"><tspan class="TextPosition" x="1332" y="2281"><tspan fill="rgb(0,0,0)" stroke="none">0.30</tspan></tspan></tspan></text>
 <text class="TextShape"><tspan class="TextParagraph" font-family="Liberation Sans, sans-serif" font-size="353px" font-weight="400"><tspan class="TextPosition" x="1332" y="1280"><tspan fill="rgb(0,0,0)" stroke="none">0.35</tspan></tspan></tspan></text>
 <path fill="rgb(174,207,0)" stroke="none" d="M 4703,589 L 4598,589 4598,378 4809,378 4809,589 4703,589 Z"/>
 <path fill="rgb(255,66,14)" stroke="none" d="M 7021,589 L 6916,589 6916,378 7127,378 7127,589 7021,589 Z"/>
 <path fill="rgb(131,202,255)" stroke="none" d="M 9524,589 L 9418,589 9418,378 9629,378 9629,589 9524,589 Z"/>
 <path fill="rgb(255,211,32)" stroke="none" d="M 10439,589 L 10333,589 10333,378 10544,378 10544,589 10439,589 Z"/>
 <text class="TextShape"><tspan class="TextParagraph" font-family="Liberation Sans, sans-serif" font-size="353px" font-weight="400"><tspan class="TextPosition" x="4909" y="603"><tspan fill="rgb(0,0,0)" stroke="none">MLP (2500)</tspan></tspan></tspan></text>
 <text class="TextShape"><tspan class="TextParagraph" font-family="Liberation Sans, sans-serif" font-size="353px" font-weight="400"><tspan class="TextPosition" x="7227" y="603"><tspan fill="rgb(0,0,0)" stroke="none">RandomTree</tspan></tspan></tspan></text>
 <text class="TextShape"><tspan class="TextParagraph" font-family="Liberation Sans, sans-serif" font-size="353px" font-weight="400"><tspan class="TextPosition" x="9729" y="603"><tspan fill="rgb(0,0,0)" stroke="none">K*</tspan></tspan></tspan></text>
 <text class="TextShape"><tspan class="TextParagraph" font-family="Liberation Sans, sans-serif" font-size="353px" font-weight="400"><tspan class="TextPosition" x="10644" y="603"><tspan fill="rgb(0,0,0)" stroke="none">MCS</tspan></tspan></tspan></text>
 <text class="TextShape" transform="rotate(-90 837 7348)"><tspan class="TextParagraph" font-family="Liberation Sans, sans-serif" font-size="318px" font-weight="400"><tspan class="TextPosition" x="837" y="7348"><tspan fill="rgb(0,0,0)" stroke="none">Root Mean Squared Error (RMSE)</tspan></tspan></tspan></text>
</svg>