<?xml version="1.0" encoding="UTF-8"?>
<!DOCTYPE svg PUBLIC "-//W3C//DTD SVG 1.1//EN" "http://www.w3.org/Graphics/SVG/1.1/DTD/svg11.dtd">
<svg width="160mm" height="90mm" viewBox="0 0 16000 9000" version="1.1" xmlns="http://www.w3.org/2000/svg" xmlns:xlink="http://www.w3.org/1999/xlink" stroke-width="28.222" stroke-linejoin="round" xml:space="preserve">
 <path fill="rgb(255,255,255)" stroke="none" d="M 8006,8992 L 0,8992 0,0 16011,0 16011,8992 8006,8992 Z"/>
 <path fill="none" stroke="rgb(179,179,179)" stroke-linejoin="round" d="M 8965,8166 L 2429,8166 2429,1161 15502,1161 15502,8166 8965,8166 Z"/>
 <path fill="none" stroke="rgb(179,179,179)" stroke-linejoin="round" d="M 15502,8165 L 2429,8165"/>
 <path fill="none" stroke="rgb(179,179,179)" stroke-linejoin="round" d="M 15502,6763 L 2429,6763"/>
 <path fill="none" stroke="rgb(179,179,179)" stroke-linejoin="round" d="M 15502,5362 L 2429,5362"/>
 <path fill="none" stroke="rgb(179,179,179)" stroke-linejoin="round" d="M 15502,3962 L 2429,3962"/>
 <path fill="none" stroke="rgb(179,179,179)" stroke-linejoin="round" d="M 15502,2561 L 2429,2561"/>
 <path fill="none" stroke="rgb(179,179,179)" stroke-linejoin="round" d="M 15502,1160 L 2429,1160"/>
 <path fill="none" stroke="rgb(179,179,179)" stroke-linejoin="round" d="M 2429,8315 L 2429,8165"/>
 <path fill="none" stroke="rgb(179,179,179)" stroke-linejoin="round" d="M 2429,8315 L 2429,8165"/>
 <path fill="none" stroke="rgb(179,179,179)" stroke-linejoin="round" d="M 3518,8315 L 3518,8165"/>
 <path fill="none" stroke="rgb(179,179,179)" stroke-linejoin="round" d="M 3518,8315 L 3518,8165"/>
 <path fill="none" stroke="rgb(179,179,179)" stroke-linejoin="round" d="M 4608,8315 L 4608,8165"/>
 <path fill="none" stroke="rgb(179,179,179)" stroke-linejoin="round" d="M 4608,8315 L 4608,8165"/>
 <path fill="none" stroke="rgb(179,179,179)" stroke-linejoin="round" d="M 5697,8315 L 5697,8165"/>
 <path fill="none" stroke="rgb(179,179,179)" stroke-linejoin="round" d="M 5697,8315 L 5697,8165"/>
 <path fill="none" stroke="rgb(179,179,179)" stroke-linejoin="round" d="M 6787,8315 L 6787,8165"/>
 <path fill="none" stroke="rgb(179,179,179)" stroke-linejoin="round" d="M 6787,8315 L 6787,8165"/>
 <path fill="none" stroke="rgb(179,179,179)" stroke-linejoin="round" d="M 7876,8315 L 7876,8165"/>
 <path fill="none" stroke="rgb(179,179,179)" stroke-linejoin="round" d="M 7876,8315 L 7876,8165"/>
 <path fill="none" stroke="rgb(179,179,179)" stroke-linejoin="round" d="M 8965,8315 L 8965,8165"/>
 <path fill="none" stroke="rgb(179,179,179)" stroke-linejoin="round" d="M 8965,8315 L 8965,8165"/>
 <path fill="none" stroke="rgb(179,179,179)" stroke-linejoin="round" d="M 10054,8315 L 10054,8165"/>
 <path fill="none" stroke="rgb(179,179,179)" stroke-linejoin="round" d="M 10054,8315 L 10054,8165"/>
 <path fill="none" stroke="rgb(179,179,179)" stroke-linejoin="round" d="M 11144,8315 L 11144,8165"/>
 <path fill="none" stroke="rgb(179,179,179)" stroke-linejoin="round" d="M 11144,8315 L 11144,8165"/>
 <path fill="none" stroke="rgb(179,179,179)" stroke-linejoin="round" d="M 12233,8315 L 12233,8165"/>
 <path fill="none" stroke="rgb(179,179,179)" stroke-linejoin="round" d="M 12233,8315 L 12233,8165"/>
 <path fill="none" stroke="rgb(179,179,179)" stroke-linejoin="round" d="M 13322,8315 L 13322,8165"/>
 <path fill="none" stroke="rgb(179,179,179)" stroke-linejoin="round" d="M 13322,8315 L 13322,8165"/>
 <path fill="none" stroke="rgb(179,179,179)" stroke-linejoin="round" d="M 14412,8315 L 14412,8165"/>
 <path fill="none" stroke="rgb(179,179,179)" stroke-linejoin="round" d="M 14412,8315 L 14412,8165"/>
 <path fill="none" stroke="rgb(179,179,179)" stroke-linejoin="round" d="M 15502,8315 L 15502,8165"/>
 <path fill="none" stroke="rgb(179,179,179)" stroke-linejoin="round" d="M 15502,8315 L 15502,8165"/>
 <path fill="none" stroke="rgb(179,179,179)" stroke-linejoin="round" d="M 2429,8165 L 15502,8165"/>
 <path fill="none" stroke="rgb(179,179,179)" stroke-linejoin="round" d="M 2279,8165 L 2429,8165"/>
 <path fill="none" stroke="rgb(179,179,179)" stroke-linejoin="round" d="M 2279,8165 L 2429,8165"/>
 <path fill="none" stroke="rgb(179,179,179)" stroke-linejoin="round" d="M 2279,6763 L 2429,6763"/>
 <path fill="none" stroke="rgb(179,179,179)" stroke-linejoin="round" d="M 2279,6763 L 2429,6763"/>
 <path fill="none" stroke="rgb(179,179,179)" stroke-linejoin="round" d="M 2279,5362 L 2429,5362"/>
 <path fill="none" stroke="rgb(179,179,179)" stroke-linejoin="round" d="M 2279,5362 L 2429,5362"/>
 <path fill="none" stroke="rgb(179,179,179)" stroke-linejoin="round" d="M 2279,3962 L 2429,3962"/>
 <path fill="none" stroke="rgb(179,179,179)" stroke-linejoin="round" d="M 2279,3962 L 2429,3962"/>
 <path fill="none" stroke="rgb(179,179,179)" stroke-linejoin="round" d="M 2279,2561 L 2429,2561"/>
 <path fill="none" stroke="rgb(179,179,179)" stroke-linejoin="round" d="M 2279,2561 L 2429,2561"/>
 <path fill="none" stroke="rgb(179,179,179)" stroke-linejoin="round" d="M 2279,1160 L 2429,1160"/>
 <path fill="none" stroke="rgb(179,179,179)" stroke-linejoin="round" d="M 2279,1160 L 2429,1160"/>
 <path fill="none" stroke="rgb(179,179,179)" stroke-linejoin="round" d="M 2429,8165 L 2429,1160"/>
 <path fill="rgb(174,207,0)" stroke="none" d="M 14521,8165 L 14739,8165 14739,5567 14521,5567 14521,8165 Z"/>
 <path fill="rgb(174,207,0)" stroke="none" d="M 13431,8165 L 13649,8165 13649,3121 13431,3121 13431,8165 Z"/>
 <path fill="rgb(174,207,0)" stroke="none" d="M 12342,8165 L 12560,8165 12560,3976 12342,3976 12342,8165 Z"/>
 <path fill="rgb(174,207,0)" stroke="none" d="M 11252,8165 L 11470,8165 11470,1902 11252,1902 11252,8165 Z"/>
 <path fill="rgb(174,207,0)" stroke="none" d="M 10163,8165 L 10381,8165 10381,3401 10163,3401 10163,8165 Z"/>
 <path fill="rgb(174,207,0)" stroke="none" d="M 9073,8165 L 9291,8165 9291,6469 9073,6469 9073,8165 Z"/>
 <path fill="rgb(174,207,0)" stroke="none" d="M 7985,8165 L 8202,8165 8202,5390 7985,5390 7985,8165 Z"/>
 <path fill="rgb(174,207,0)" stroke="none" d="M 6895,8165 L 7113,8165 7113,7548 6895,7548 6895,8165 Z"/>
 <path fill="rgb(174,207,0)" stroke="none" d="M 4716,8165 L 4934,8165 4934,3051 4716,3051 4716,8165 Z"/>
 <path fill="rgb(174,207,0)" stroke="none" d="M 3627,8165 L 3845,8165 3845,5881 3627,5881 3627,8165 Z"/>
 <path fill="rgb(174,207,0)" stroke="none" d="M 2537,8165 L 2755,8165 2755,3163 2537,3163 2537,8165 Z"/>
 <path fill="rgb(255,66,14)" stroke="none" d="M 14739,8165 L 14957,8165 14957,2965 14739,2965 14739,8165 Z"/>
 <path fill="rgb(255,66,14)" stroke="none" d="M 13649,8165 L 13867,8165 13867,1664 13649,1664 13649,8165 Z"/>
 <path fill="rgb(255,66,14)" stroke="none" d="M 12560,8165 L 12778,8165 12778,2252 12560,2252 12560,8165 Z"/>
 <path fill="rgb(255,66,14)" stroke="none" d="M 11470,8165 L 11688,8165 11688,2603 11470,2603 11470,8165 Z"/>
 <path fill="rgb(255,66,14)" stroke="none" d="M 10381,8165 L 10599,8165 10599,2182 10381,2182 10381,8165 Z"/>
 <path fill="rgb(255,66,14)" stroke="none" d="M 9291,8165 L 9509,8165 9509,3303 9291,3303 9291,8165 Z"/>
 <path fill="rgb(255,66,14)" stroke="none" d="M 8202,8165 L 8420,8165 8420,2995 8202,2995 8202,8165 Z"/>
 <path fill="rgb(255,66,14)" stroke="none" d="M 7113,8165 L 7331,8165 7331,3429 7113,3429 7113,8165 Z"/>
 <path fill="rgb(255,66,14)" stroke="none" d="M 6024,8165 L 6242,8165 6242,7674 6024,7674 6024,8165 Z"/>
 <path fill="rgb(255,66,14)" stroke="none" d="M 4934,8165 L 5152,8165 5152,1804 4934,1804 4934,8165 Z"/>
 <path fill="rgb(255,66,14)" stroke="none" d="M 3845,8165 L 4063,8165 4063,2911 3845,2911 3845,8165 Z"/>
 <path fill="rgb(255,66,14)" stroke="none" d="M 2755,8165 L 2973,8165 2973,1790 2755,1790 2755,8165 Z"/>
 <path fill="rgb(131,202,255)" stroke="none" d="M 14957,8165 L 15175,8165 15175,3060 14957,3060 14957,8165 Z"/>
 <path fill="rgb(131,202,255)" stroke="none" d="M 13867,8165 L 14085,8165 14085,2028 13867,2028 13867,8165 Z"/>
 <path fill="rgb(131,202,255)" stroke="none" d="M 12778,8165 L 12996,8165 12996,4032 12778,4032 12778,8165 Z"/>
 <path fill="rgb(131,202,255)" stroke="none" d="M 11688,8165 L 11906,8165 11906,2322 11688,2322 11688,8165 Z"/>
 <path fill="rgb(131,202,255)" stroke="none" d="M 10599,8165 L 10817,8165 10817,2252 10599,2252 10599,8165 Z"/>
 <path fill="rgb(131,202,255)" stroke="none" d="M 9509,8165 L 9727,8165 9727,4018 9509,4018 9509,8165 Z"/>
 <path fill="rgb(131,202,255)" stroke="none" d="M 8420,8165 L 8638,8165 8638,3500 8420,3500 8420,8165 Z"/>
 <path fill="rgb(131,202,255)" stroke="none" d="M 7331,8165 L 7549,8165 7549,4214 7331,4214 7331,8165 Z"/>
 <path fill="rgb(131,202,255)" stroke="none" d="M 6242,8165 L 6460,8165 6460,5138 6242,5138 6242,8165 Z"/>
 <path fill="rgb(131,202,255)" stroke="none" d="M 5152,8165 L 5370,8165 5370,1482 5152,1482 5152,8165 Z"/>
 <path fill="rgb(131,202,255)" stroke="none" d="M 4063,8165 L 4281,8165 4281,2925 4063,2925 4063,8165 Z"/>
 <path fill="rgb(131,202,255)" stroke="none" d="M 2973,8165 L 3191,8165 3191,1748 2973,1748 2973,8165 Z"/>
 <path fill="rgb(255,211,32)" stroke="none" d="M 15175,8165 L 15393,8165 15393,2995 15175,2995 15175,8165 Z"/>
 <path fill="rgb(255,211,32)" stroke="none" d="M 14085,8165 L 14303,8165 14303,1692 14085,1692 14085,8165 Z"/>
 <path fill="rgb(255,211,32)" stroke="none" d="M 12996,8165 L 13214,8165 13214,4074 12996,4074 12996,8165 Z"/>
 <path fill="rgb(255,211,32)" stroke="none" d="M 11906,8165 L 12124,8165 12124,2294 11906,2294 11906,8165 Z"/>
 <path fill="rgb(255,211,32)" stroke="none" d="M 10817,8165 L 11035,8165 11035,2308 10817,2308 10817,8165 Z"/>
 <path fill="rgb(255,211,32)" stroke="none" d="M 9727,8165 L 9945,8165 9945,3121 9727,3121 9727,8165 Z"/>
 <path fill="rgb(255,211,32)" stroke="none" d="M 8638,8165 L 8856,8165 8856,3093 8638,3093 8638,8165 Z"/>
 <path fill="rgb(255,211,32)" stroke="none" d="M 7549,8165 L 7767,8165 7767,3668 7549,3668 7549,8165 Z"/>
 <path fill="rgb(255,211,32)" stroke="none" d="M 6460,8165 L 6678,8165 6678,6021 6460,6021 6460,8165 Z"/>
 <path fill="rgb(255,211,32)" stroke="none" d="M 5370,8165 L 5588,8165 5588,1776 5370,1776 5370,8165 Z"/>
 <path fill="rgb(255,211,32)" stroke="none" d="M 4281,8165 L 4499,8165 4499,3233 4281,3233 4281,8165 Z"/>
 <path fill="rgb(255,211,32)" stroke="none" d="M 3191,8165 L 3409,8165 3409,1664 3191,1664 3191,8165 Z"/>
 <text class="TextShape"><tspan class="TextParagraph" font-family="Liberation Sans, sans-serif" font-size="353px" font-weight="400"><tspan class="TextPosition" x="2563" y="8733"><tspan fill="rgb(0,0,0)" stroke="none">DM 1</tspan></tspan></tspan></text>
 <text class="TextShape"><tspan class="TextParagraph" font-family="Liberation Sans, sans-serif" font-size="353px" font-weight="400"><tspan class="TextPosition" x="3653" y="8733"><tspan fill="rgb(0,0,0)" stroke="none">DM 2</tspan></tspan></tspan></text>
 <text class="TextShape"><tspan class="TextParagraph" font-family="Liberation Sans, sans-serif" font-size="353px" font-weight="400"><tspan class="TextPosition" x="4742" y="8733"><tspan fill="rgb(0,0,0)" stroke="none">DM 3</tspan></tspan></tspan></text>
 <text class="TextShape"><tspan class="TextParagraph" font-family="Liberation Sans, sans-serif" font-size="353px" font-weight="400"><tspan class="TextPosition" x="5832" y="8733"><tspan fill="rgb(0,0,0)" stroke="none">DM 4</tspan></tspan></tspan></text>
 <text class="TextShape"><tspan class="TextParagraph" font-family="Liberation Sans, sans-serif" font-size="353px" font-weight="400"><tspan class="TextPosition" x="6921" y="8733"><tspan fill="rgb(0,0,0)" stroke="none">DM 5</tspan></tspan></tspan></text>
 <text class="TextShape"><tspan class="TextParagraph" font-family="Liberation Sans, sans-serif" font-size="353px" font-weight="400"><tspan class="TextPosition" x="8011" y="8733"><tspan fill="rgb(0,0,0)" stroke="none">DM 6</tspan></tspan></tspan></text>
 <text class="TextShape"><tspan class="TextParagraph" font-family="Liberation Sans, sans-serif" font-size="353px" font-weight="400"><tspan class="TextPosition" x="9100" y="8733"><tspan fill="rgb(0,0,0)" stroke="none">DM 7</tspan></tspan></tspan></text>
 <text class="TextShape"><tspan class="TextParagraph" font-family="Liberation Sans, sans-serif" font-size="353px" font-weight="400"><tspan class="TextPosition" x="10190" y="8733"><tspan fill="rgb(0,0,0)" stroke="none">DM 8</tspan></tspan></tspan></text>
 <text class="TextShape"><tspan class="TextParagraph" font-family="Liberation Sans, sans-serif" font-size="353px" font-weight="400"><tspan class="TextPosition" x="11279" y="8733"><tspan fill="rgb(0,0,0)" stroke="none">DM 9</tspan></tspan></tspan></text>
 <text class="TextShape"><tspan class="TextParagraph" font-family="Liberation Sans, sans-serif" font-size="353px" font-weight="400"><tspan class="TextPosition" x="12276" y="8733"><tspan fill="rgb(0,0,0)" stroke="none">DM 10</tspan></tspan></tspan></text>
 <text class="TextShape"><tspan class="TextParagraph" font-family="Liberation Sans, sans-serif" font-size="353px" font-weight="400"><tspan class="TextPosition" x="13365" y="8733"><tspan fill="rgb(0,0,0)" stroke="none">DM 11</tspan></tspan></tspan></text>
 <text class="TextShape"><tspan class="TextParagraph" font-family="Liberation Sans, sans-serif" font-size="353px" font-weight="400"><tspan class="TextPosition" x="14402" y="8733"><tspan fill="rgb(0,0,0)" stroke="none">Median</tspan></tspan></tspan></text>
 <text class="TextShape"><tspan class="TextParagraph" font-family="Liberation Sans, sans-serif" font-size="353px" font-weight="400"><tspan class="TextPosition" x="1332" y="8286"><tspan fill="rgb(0,0,0)" stroke="none">95.00</tspan></tspan></tspan></text>
 <text class="TextShape"><tspan class="TextParagraph" font-family="Liberation Sans, sans-serif" font-size="353px" font-weight="400"><tspan class="TextPosition" x="1332" y="6884"><tspan fill="rgb(0,0,0)" stroke="none">96.00</tspan></tspan></tspan></text>
 <text class="TextShape"><tspan class="TextParagraph" font-family="Liberation Sans, sans-serif" font-size="353px" font-weight="400"><tspan class="TextPosition" x="1332" y="5483"><tspan fill="rgb(0,0,0)" stroke="none">97.00</tspan></tspan></tspan></text>
 <text class="TextShape"><tspan class="TextParagraph" font-family="Liberation Sans, sans-serif" font-size="353px" font-weight="400"><tspan class="TextPosition" x="1332" y="4082"><tspan fill="rgb(0,0,0)" stroke="none">98.00</tspan></tspan></tspan></text>
 <text class="TextShape"><tspan class="TextParagraph" font-family="Liberation Sans, sans-serif" font-size="353px" font-weight="400"><tspan class="TextPosition" x="1332" y="2681"><tspan fill="rgb(0,0,0)" stroke="none">99.00</tspan></tspan></tspan></text>
 <text class="TextShape"><tspan class="TextParagraph" font-family="Liberation Sans, sans-serif" font-size="353px" font-weight="400"><tspan class="TextPosition" x="1147" y="1280"><tspan fill="rgb(0,0,0)" stroke="none">100.00</tspan></tspan></tspan></text>
 <path fill="rgb(174,207,0)" stroke="none" d="M 4703,589 L 4598,589 4598,378 4809,378 4809,589 4703,589 Z"/>
 <path fill="rgb(255,66,14)" stroke="none" d="M 7021,589 L 6916,589 6916,378 7127,378 7127,589 7021,589 Z"/>
 <path fill="rgb(131,202,255)" stroke="none" d="M 9524,589 L 9418,589 9418,378 9629,378 9629,589 9524,589 Z"/>
 <path fill="rgb(255,211,32)" stroke="none" d="M 10439,589 L 10333,589 10333,378 10544,378 10544,589 10439,589 Z"/>
 <text class="TextShape"><tspan class="TextParagraph" font-family="Liberation Sans, sans-serif" font-size="353px" font-weight="400"><tspan class="TextPosition" x="4909" y="603"><tspan fill="rgb(0,0,0)" stroke="none">MLP (2500)</tspan></tspan></tspan></text>
 <text class="TextShape"><tspan class="TextParagraph" font-family="Liberation Sans, sans-serif" font-size="353px" font-weight="400"><tspan class="TextPosition" x="7227" y="603"><tspan fill="rgb(0,0,0)" stroke="none">RandomTree</tspan></tspan></tspan></text>
 <text class="TextShape"><tspan class="TextParagraph" font-family="Liberation Sans, sans-serif" font-size="353px" font-weight="400"><tspan class="TextPosition" x="9729" y="603"><tspan fill="rgb(0,0,0)" stroke="none">K*</tspan></tspan></tspan></text>
 <text class="TextShape"><tspan class="TextParagraph" font-family="Liberation Sans, sans-serif" font-size="353px" font-weight="400"><tspan class="TextPosition" x="10644" y="603"><tspan fill="rgb(0,0,0)" stroke="none">MCS</tspan></tspan></tspan></text>
 <text class="TextShape" transform="rotate(-90 837 7295)"><tspan class="TextParagraph" font-family="Liberation Sans, sans-serif" font-size="318px" font-weight="400"><tspan class="TextPosition" x="837" y="7295"><tspan fill="rgb(0,0,0)" stroke="none">% of correctly classified instances</tspan></tspan></tspan></text>
</svg>