<?xml version="1.0" encoding="UTF-8"?>
<!DOCTYPE svg PUBLIC "-//W3C//DTD SVG 1.1//EN" "http://www.w3.org/Graphics/SVG/1.1/DTD/svg11.dtd">
<svg width="160mm" height="90mm" viewBox="0 0 16000 9000" version="1.1" xmlns="http://www.w3.org/2000/svg" xmlns:xlink="http://www.w3.org/1999/xlink" stroke-width="28.222" stroke-linejoin="round" xml:space="preserve">
 <path fill="rgb(255,255,255)" stroke="none" d="M 8006,8992 L 0,8992 0,0 16011,0 16011,8992 8006,8992 Z"/>
 <path fill="none" stroke="rgb(179,179,179)" stroke-linejoin="round" d="M 8967,8166 L 2243,8166 2243,1161 15691,1161 15691,8166 8967,8166 Z"/>
 <path fill="none" stroke="rgb(179,179,179)" stroke-linejoin="round" d="M 15691,8165 L 2243,8165"/>
 <path fill="none" stroke="rgb(179,179,179)" stroke-linejoin="round" d="M 15691,7289 L 2243,7289"/>
 <path fill="none" stroke="rgb(179,179,179)" stroke-linejoin="round" d="M 15691,6413 L 2243,6413"/>
 <path fill="none" stroke="rgb(179,179,179)" stroke-linejoin="round" d="M 15691,5537 L 2243,5537"/>
 <path fill="none" stroke="rgb(179,179,179)" stroke-linejoin="round" d="M 15691,4662 L 2243,4662"/>
 <path fill="none" stroke="rgb(179,179,179)" stroke-linejoin="round" d="M 15691,3787 L 2243,3787"/>
 <path fill="none" stroke="rgb(179,179,179)" stroke-linejoin="round" d="M 15691,2911 L 2243,2911"/>
 <path fill="none" stroke="rgb(179,179,179)" stroke-linejoin="round" d="M 15691,2035 L 2243,2035"/>
 <path fill="none" stroke="rgb(179,179,179)" stroke-linejoin="round" d="M 15691,1160 L 2243,1160"/>
 <path fill="none" stroke="rgb(179,179,179)" stroke-linejoin="round" d="M 2243,8315 L 2243,8165"/>
 <path fill="none" stroke="rgb(179,179,179)" stroke-linejoin="round" d="M 2243,8315 L 2243,8165"/>
 <path fill="none" stroke="rgb(179,179,179)" stroke-linejoin="round" d="M 3363,8315 L 3363,8165"/>
 <path fill="none" stroke="rgb(179,179,179)" stroke-linejoin="round" d="M 3363,8315 L 3363,8165"/>
 <path fill="none" stroke="rgb(179,179,179)" stroke-linejoin="round" d="M 4484,8315 L 4484,8165"/>
 <path fill="none" stroke="rgb(179,179,179)" stroke-linejoin="round" d="M 4484,8315 L 4484,8165"/>
 <path fill="none" stroke="rgb(179,179,179)" stroke-linejoin="round" d="M 5605,8315 L 5605,8165"/>
 <path fill="none" stroke="rgb(179,179,179)" stroke-linejoin="round" d="M 5605,8315 L 5605,8165"/>
 <path fill="none" stroke="rgb(179,179,179)" stroke-linejoin="round" d="M 6726,8315 L 6726,8165"/>
 <path fill="none" stroke="rgb(179,179,179)" stroke-linejoin="round" d="M 6726,8315 L 6726,8165"/>
 <path fill="none" stroke="rgb(179,179,179)" stroke-linejoin="round" d="M 7846,8315 L 7846,8165"/>
 <path fill="none" stroke="rgb(179,179,179)" stroke-linejoin="round" d="M 7846,8315 L 7846,8165"/>
 <path fill="none" stroke="rgb(179,179,179)" stroke-linejoin="round" d="M 8966,8315 L 8966,8165"/>
 <path fill="none" stroke="rgb(179,179,179)" stroke-linejoin="round" d="M 8966,8315 L 8966,8165"/>
 <path fill="none" stroke="rgb(179,179,179)" stroke-linejoin="round" d="M 10087,8315 L 10087,8165"/>
 <path fill="none" stroke="rgb(179,179,179)" stroke-linejoin="round" d="M 10087,8315 L 10087,8165"/>
 <path fill="none" stroke="rgb(179,179,179)" stroke-linejoin="round" d="M 11208,8315 L 11208,8165"/>
 <path fill="none" stroke="rgb(179,179,179)" stroke-linejoin="round" d="M 11208,8315 L 11208,8165"/>
 <path fill="none" stroke="rgb(179,179,179)" stroke-linejoin="round" d="M 12328,8315 L 12328,8165"/>
 <path fill="none" stroke="rgb(179,179,179)" stroke-linejoin="round" d="M 12328,8315 L 12328,8165"/>
 <path fill="none" stroke="rgb(179,179,179)" stroke-linejoin="round" d="M 13449,8315 L 13449,8165"/>
 <path fill="none" stroke="rgb(179,179,179)" stroke-linejoin="round" d="M 13449,8315 L 13449,8165"/>
 <path fill="none" stroke="rgb(179,179,179)" stroke-linejoin="round" d="M 14570,8315 L 14570,8165"/>
 <path fill="none" stroke="rgb(179,179,179)" stroke-linejoin="round" d="M 14570,8315 L 14570,8165"/>
 <path fill="none" stroke="rgb(179,179,179)" stroke-linejoin="round" d="M 15691,8315 L 15691,8165"/>
 <path fill="none" stroke="rgb(179,179,179)" stroke-linejoin="round" d="M 15691,8315 L 15691,8165"/>
 <path fill="none" stroke="rgb(179,179,179)" stroke-linejoin="round" d="M 2243,8165 L 15691,8165"/>
 <path fill="none" stroke="rgb(179,179,179)" stroke-linejoin="round" d="M 2093,8165 L 2243,8165"/>
 <path fill="none" stroke="rgb(179,179,179)" stroke-linejoin="round" d="M 2093,8165 L 2243,8165"/>
 <path fill="none" stroke="rgb(179,179,179)" stroke-linejoin="round" d="M 2093,7289 L 2243,7289"/>
 <path fill="none" stroke="rgb(179,179,179)" stroke-linejoin="round" d="M 2093,7289 L 2243,7289"/>
 <path fill="none" stroke="rgb(179,179,179)" stroke-linejoin="round" d="M 2093,6413 L 2243,6413"/>
 <path fill="none" stroke="rgb(179,179,179)" stroke-linejoin="round" d="M 2093,6413 L 2243,6413"/>
 <path fill="none" stroke="rgb(179,179,179)" stroke-linejoin="round" d="M 2093,5537 L 2243,5537"/>
 <path fill="none" stroke="rgb(179,179,179)" stroke-linejoin="round" d="M 2093,5537 L 2243,5537"/>
 <path fill="none" stroke="rgb(179,179,179)" stroke-linejoin="round" d="M 2093,4661 L 2243,4661"/>
 <path fill="none" stroke="rgb(179,179,179)" stroke-linejoin="round" d="M 2093,4661 L 2243,4661"/>
 <path fill="none" stroke="rgb(179,179,179)" stroke-linejoin="round" d="M 2093,3787 L 2243,3787"/>
 <path fill="none" stroke="rgb(179,179,179)" stroke-linejoin="round" d="M 2093,3787 L 2243,3787"/>
 <path fill="none" stroke="rgb(179,179,179)" stroke-linejoin="round" d="M 2093,2911 L 2243,2911"/>
 <path fill="none" stroke="rgb(179,179,179)" stroke-linejoin="round" d="M 2093,2911 L 2243,2911"/>
 <path fill="none" stroke="rgb(179,179,179)" stroke-linejoin="round" d="M 2093,2035 L 2243,2035"/>
 <path fill="none" stroke="rgb(179,179,179)" stroke-linejoin="round" d="M 2093,2035 L 2243,2035"/>
 <path fill="none" stroke="rgb(179,179,179)" stroke-linejoin="round" d="M 2093,1160 L 2243,1160"/>
 <path fill="none" stroke="rgb(179,179,179)" stroke-linejoin="round" d="M 2093,1160 L 2243,1160"/>
 <path fill="none" stroke="rgb(179,179,179)" stroke-linejoin="round" d="M 2243,8165 L 2243,1160"/>
 <path fill="rgb(174,207,0)" stroke="none" d="M 14682,8165 L 14906,8165 14906,4598 14682,4598 14682,8165 Z"/>
 <path fill="rgb(174,207,0)" stroke="none" d="M 13561,8165 L 13785,8165 13785,2561 13561,2561 13561,8165 Z"/>
 <path fill="rgb(174,207,0)" stroke="none" d="M 12440,8165 L 12664,8165 12664,4837 12440,4837 12440,8165 Z"/>
 <path fill="rgb(174,207,0)" stroke="none" d="M 11320,8165 L 11544,8165 11544,3787 11320,3787 11320,8165 Z"/>
 <path fill="rgb(174,207,0)" stroke="none" d="M 10199,8165 L 10423,8165 10423,6938 10199,6938 10199,8165 Z"/>
 <path fill="rgb(174,207,0)" stroke="none" d="M 7958,8165 L 8181,8165 8181,5012 7958,5012 7958,8165 Z"/>
 <path fill="rgb(174,207,0)" stroke="none" d="M 6838,8165 L 7062,8165 7062,3787 6838,3787 6838,8165 Z"/>
 <path fill="rgb(174,207,0)" stroke="none" d="M 5717,8165 L 5941,8165 5941,5537 5717,5537 5717,8165 Z"/>
 <path fill="rgb(174,207,0)" stroke="none" d="M 4596,8165 L 4820,8165 4820,2210 4596,2210 4596,8165 Z"/>
 <path fill="rgb(174,207,0)" stroke="none" d="M 3475,8165 L 3699,8165 3699,3612 3475,3612 3475,8165 Z"/>
 <path fill="rgb(174,207,0)" stroke="none" d="M 2355,8165 L 2579,8165 2579,3787 2355,3787 2355,8165 Z"/>
 <path fill="rgb(255,66,14)" stroke="none" d="M 14906,8165 L 15130,8165 15130,2672 14906,2672 14906,8165 Z"/>
 <path fill="rgb(255,66,14)" stroke="none" d="M 13785,8165 L 14009,8165 14009,1510 13785,1510 13785,8165 Z"/>
 <path fill="rgb(255,66,14)" stroke="none" d="M 12664,8165 L 12889,8165 12889,2561 12664,2561 12664,8165 Z"/>
 <path fill="rgb(255,66,14)" stroke="none" d="M 11544,8165 L 11768,8165 11768,4837 11544,4837 11544,8165 Z"/>
 <path fill="rgb(255,66,14)" stroke="none" d="M 10423,8165 L 10647,8165 10647,3612 10423,3612 10423,8165 Z"/>
 <path fill="rgb(255,66,14)" stroke="none" d="M 9302,8165 L 9526,8165 9526,3787 9302,3787 9302,8165 Z"/>
 <path fill="rgb(255,66,14)" stroke="none" d="M 8181,8165 L 8406,8165 8406,2736 8181,2736 8181,8165 Z"/>
 <path fill="rgb(255,66,14)" stroke="none" d="M 7062,8165 L 7286,8165 7286,2035 7062,2035 7062,8165 Z"/>
 <path fill="rgb(255,66,14)" stroke="none" d="M 5941,8165 L 6165,8165 6165,2911 5941,2911 5941,8165 Z"/>
 <path fill="rgb(255,66,14)" stroke="none" d="M 4820,8165 L 5044,8165 5044,1510 4820,1510 4820,8165 Z"/>
 <path fill="rgb(255,66,14)" stroke="none" d="M 3699,8165 L 3924,8165 3924,2035 3699,2035 3699,8165 Z"/>
 <path fill="rgb(255,66,14)" stroke="none" d="M 2579,8165 L 2803,8165 2803,1860 2579,1860 2579,8165 Z"/>
 <path fill="rgb(131,202,255)" stroke="none" d="M 15130,8165 L 15354,8165 15354,2831 15130,2831 15130,8165 Z"/>
 <path fill="rgb(131,202,255)" stroke="none" d="M 14009,8165 L 14234,8165 14234,1685 14009,1685 14009,8165 Z"/>
 <path fill="rgb(131,202,255)" stroke="none" d="M 12889,8165 L 13113,8165 13113,4137 12889,4137 12889,8165 Z"/>
 <path fill="rgb(131,202,255)" stroke="none" d="M 11768,8165 L 11992,8165 11992,4312 11768,4312 11768,8165 Z"/>
 <path fill="rgb(131,202,255)" stroke="none" d="M 10647,8165 L 10871,8165 10871,3612 10647,3612 10647,8165 Z"/>
 <path fill="rgb(131,202,255)" stroke="none" d="M 9526,8165 L 9751,8165 9751,4487 9526,4487 9526,8165 Z"/>
 <path fill="rgb(131,202,255)" stroke="none" d="M 8406,8165 L 8630,8165 8630,3086 8406,3086 8406,8165 Z"/>
 <path fill="rgb(131,202,255)" stroke="none" d="M 7286,8165 L 7510,8165 7510,2386 7286,2386 7286,8165 Z"/>
 <path fill="rgb(131,202,255)" stroke="none" d="M 6165,8165 L 6389,8165 6389,2210 6165,2210 6165,8165 Z"/>
 <path fill="rgb(131,202,255)" stroke="none" d="M 5044,8165 L 5269,8165 5269,1335 5044,1335 5044,8165 Z"/>
 <path fill="rgb(131,202,255)" stroke="none" d="M 3924,8165 L 4148,8165 4148,2035 3924,2035 3924,8165 Z"/>
 <path fill="rgb(131,202,255)" stroke="none" d="M 2803,8165 L 3027,8165 3027,1860 2803,1860 2803,8165 Z"/>
 <path fill="rgb(255,211,32)" stroke="none" d="M 15354,8165 L 15578,8165 15578,2831 15354,2831 15354,8165 Z"/>
 <path fill="rgb(255,211,32)" stroke="none" d="M 14234,8165 L 14458,8165 14458,1510 14234,1510 14234,8165 Z"/>
 <path fill="rgb(255,211,32)" stroke="none" d="M 13113,8165 L 13337,8165 13337,4487 13113,4487 13113,8165 Z"/>
 <path fill="rgb(255,211,32)" stroke="none" d="M 11992,8165 L 12216,8165 12216,4312 11992,4312 11992,8165 Z"/>
 <path fill="rgb(255,211,32)" stroke="none" d="M 10871,8165 L 11095,8165 11095,3962 10871,3962 10871,8165 Z"/>
 <path fill="rgb(255,211,32)" stroke="none" d="M 9751,8165 L 9975,8165 9975,3787 9751,3787 9751,8165 Z"/>
 <path fill="rgb(255,211,32)" stroke="none" d="M 8630,8165 L 8854,8165 8854,2911 8630,2911 8630,8165 Z"/>
 <path fill="rgb(255,211,32)" stroke="none" d="M 7510,8165 L 7734,8165 7734,2210 7510,2210 7510,8165 Z"/>
 <path fill="rgb(255,211,32)" stroke="none" d="M 6389,8165 L 6613,8165 6613,2561 6389,2561 6389,8165 Z"/>
 <path fill="rgb(255,211,32)" stroke="none" d="M 5269,8165 L 5493,8165 5493,1510 5269,1510 5269,8165 Z"/>
 <path fill="rgb(255,211,32)" stroke="none" d="M 4148,8165 L 4372,8165 4372,2210 4148,2210 4148,8165 Z"/>
 <path fill="rgb(255,211,32)" stroke="none" d="M 3027,8165 L 3251,8165 3251,1685 3027,1685 3027,8165 Z"/>
 <text class="TextShape"><tspan class="TextParagraph" font-family="Liberation Sans, sans-serif" font-size="353px" font-weight="400"><tspan class="TextPosition" x="2393" y="8733"><tspan fill="rgb(0,0,0)" stroke="none">DM 1</tspan></tspan></tspan></text>
 <text class="TextShape"><tspan class="TextParagraph" font-family="Liberation Sans, sans-serif" font-size="353px" font-weight="400"><tspan class="TextPosition" x="3514" y="8733"><tspan fill="rgb(0,0,0)" stroke="none">DM 2</tspan></tspan></tspan></text>
 <text class="TextShape"><tspan class="TextParagraph" font-family="Liberation Sans, sans-serif" font-size="353px" font-weight="400"><tspan class="TextPosition" x="4634" y="8733"><tspan fill="rgb(0,0,0)" stroke="none">DM 3</tspan></tspan></tspan></text>
 <text class="TextShape"><tspan class="TextParagraph" font-family="Liberation Sans, sans-serif" font-size="353px" font-weight="400"><tspan class="TextPosition" x="5755" y="8733"><tspan fill="rgb(0,0,0)" stroke="none">DM 4</tspan></tspan></tspan></text>
 <text class="TextShape"><tspan class="TextParagraph" font-family="Liberation Sans, sans-serif" font-size="353px" font-weight="400"><tspan class="TextPosition" x="6876" y="8733"><tspan fill="rgb(0,0,0)" stroke="none">DM 5</tspan></tspan></tspan></text>
 <text class="TextShape"><tspan class="TextParagraph" font-family="Liberation Sans, sans-serif" font-size="353px" font-weight="400"><tspan class="TextPosition" x="7997" y="8733"><tspan fill="rgb(0,0,0)" stroke="none">DM 6</tspan></tspan></tspan></text>
 <text class="TextShape"><tspan class="TextParagraph" font-family="Liberation Sans, sans-serif" font-size="353px" font-weight="400"><tspan class="TextPosition" x="9117" y="8733"><tspan fill="rgb(0,0,0)" stroke="none">DM 7</tspan></tspan></tspan></text>
 <text class="TextShape"><tspan class="TextParagraph" font-family="Liberation Sans, sans-serif" font-size="353px" font-weight="400"><tspan class="TextPosition" x="10238" y="8733"><tspan fill="rgb(0,0,0)" stroke="none">DM 8</tspan></tspan></tspan></text>
 <text class="TextShape"><tspan class="TextParagraph" font-family="Liberation Sans, sans-serif" font-size="353px" font-weight="400"><tspan class="TextPosition" x="11359" y="8733"><tspan fill="rgb(0,0,0)" stroke="none">DM 9</tspan></tspan></tspan></text>
 <text class="TextShape"><tspan class="TextParagraph" font-family="Liberation Sans, sans-serif" font-size="353px" font-weight="400"><tspan class="TextPosition" x="12387" y="8733"><tspan fill="rgb(0,0,0)" stroke="none">DM 10</tspan></tspan></tspan></text>
 <text class="TextShape"><tspan class="TextParagraph" font-family="Liberation Sans, sans-serif" font-size="353px" font-weight="400"><tspan class="TextPosition" x="13507" y="8733"><tspan fill="rgb(0,0,0)" stroke="none">DM 11</tspan></tspan></tspan></text>
 <text class="TextShape"><tspan class="TextParagraph" font-family="Liberation Sans, sans-serif" font-size="353px" font-weight="400"><tspan class="TextPosition" x="14575" y="8733"><tspan fill="rgb(0,0,0)" stroke="none">Median</tspan></tspan></tspan></text>
 <text class="TextShape"><tspan class="TextParagraph" font-family="Liberation Sans, sans-serif" font-size="353px" font-weight="400"><tspan class="TextPosition" x="1332" y="8286"><tspan fill="rgb(0,0,0)" stroke="none">0.60</tspan></tspan></tspan></text>
 <text class="TextShape"><tspan class="TextParagraph" font-family="Liberation Sans, sans-serif" font-size="353px" font-weight="400"><tspan class="TextPosition" x="1332" y="7410"><tspan fill="rgb(0,0,0)" stroke="none">0.65</tspan></tspan></tspan></text>
 <text class="TextShape"><tspan class="TextParagraph" font-family="Liberation Sans, sans-serif" font-size="353px" font-weight="400"><tspan class="TextPosition" x="1332" y="6534"><tspan fill="rgb(0,0,0)" stroke="none">0.70</tspan></tspan></tspan></text>
 <text class="TextShape"><tspan class="TextParagraph" font-family="Liberation Sans, sans-serif" font-size="353px" font-weight="400"><tspan class="TextPosition" x="1332" y="5658"><tspan fill="rgb(0,0,0)" stroke="none">0.75</tspan></tspan></tspan></text>
 <text class="TextShape"><tspan class="TextParagraph" font-family="Liberation Sans, sans-serif" font-size="353px" font-weight="400"><tspan class="TextPosition" x="1332" y="4782"><tspan fill="rgb(0,0,0)" stroke="none">0.80</tspan></tspan></tspan></text>
 <text class="TextShape"><tspan class="TextParagraph" font-family="Liberation Sans, sans-serif" font-size="353px" font-weight="400"><tspan class="TextPosition" x="1332" y="3907"><tspan fill="rgb(0,0,0)" stroke="none">0.85</tspan></tspan></tspan></text>
 <text class="TextShape"><tspan class="TextParagraph" font-family="Liberation Sans, sans-serif" font-size="353px" font-weight="400"><tspan class="TextPosition" x="1332" y="3031"><tspan fill="rgb(0,0,0)" stroke="none">0.90</tspan></tspan></tspan></text>
 <text class="TextShape"><tspan class="TextParagraph" font-family="Liberation Sans, sans-serif" font-size="353px" font-weight="400"><tspan class="TextPosition" x="1332" y="2155"><tspan fill="rgb(0,0,0)" stroke="none">0.95</tspan></tspan></tspan></text>
 <text class="TextShape"><tspan class="TextParagraph" font-family="Liberation Sans, sans-serif" font-size="353px" font-weight="400"><tspan class="TextPosition" x="1332" y="1280"><tspan fill="rgb(0,0,0)" stroke="none">1.00</tspan></tspan></tspan></text>
 <path fill="rgb(174,207,0)" stroke="none" d="M 4703,589 L 4598,589 4598,378 4809,378 4809,589 4703,589 Z"/>
 <path fill="rgb(255,66,14)" stroke="none" d="M 7021,589 L 6916,589 6916,378 7127,378 7127,589 7021,589 Z"/>
 <path fill="rgb(131,202,255)" stroke="none" d="M 9524,589 L 9418,589 9418,378 9629,378 9629,589 9524,589 Z"/>
 <path fill="rgb(255,211,32)" stroke="none" d="M 10439,589 L 10333,589 10333,378 10544,378 10544,589 10439,589 Z"/>
 <text class="TextShape"><tspan class="TextParagraph" font-family="Liberation Sans, sans-serif" font-size="353px" font-weight="400"><tspan class="TextPosition" x="4909" y="603"><tspan fill="rgb(0,0,0)" stroke="none">MLP (2500)</tspan></tspan></tspan></text>
 <text class="TextShape"><tspan class="TextParagraph" font-family="Liberation Sans, sans-serif" font-size="353px" font-weight="400"><tspan class="TextPosition" x="7227" y="603"><tspan fill="rgb(0,0,0)" stroke="none">RandomTree</tspan></tspan></tspan></text>
 <text class="TextShape"><tspan class="TextParagraph" font-family="Liberation Sans, sans-serif" font-size="353px" font-weight="400"><tspan class="TextPosition" x="9729" y="603"><tspan fill="rgb(0,0,0)" stroke="none">K*</tspan></tspan></tspan></text>
 <text class="TextShape"><tspan class="TextParagraph" font-family="Liberation Sans, sans-serif" font-size="353px" font-weight="400"><tspan class="TextPosition" x="10644" y="603"><tspan fill="rgb(0,0,0)" stroke="none">MCS</tspan></tspan></tspan></text>
 <text class="TextShape" transform="rotate(-90 837 5364)"><tspan class="TextParagraph" font-family="Liberation Sans, sans-serif" font-size="318px" font-weight="400"><tspan class="TextPosition" x="837" y="5364"><tspan fill="rgb(0,0,0)" stroke="none">Kappa</tspan></tspan></tspan></text>
</svg>