<?xml version="1.0" encoding="UTF-8"?>
<!DOCTYPE svg PUBLIC "-//W3C//DTD SVG 1.1//EN" "http://www.w3.org/Graphics/SVG/1.1/DTD/svg11.dtd">
<svg width="160mm" height="90mm" viewBox="0 0 16000 9000" version="1.1" xmlns="http://www.w3.org/2000/svg" xmlns:xlink="http://www.w3.org/1999/xlink" stroke-width="28.222" stroke-linejoin="round" xml:space="preserve">
 <path fill="rgb(255,255,255)" stroke="none" d="M 8006,8992 L 0,8992 0,0 16011,0 16011,8992 8006,8992 Z"/>
 <path fill="none" stroke="rgb(179,179,179)" stroke-linejoin="round" d="M 9058,8166 L 2429,8166 2429,1161 15687,1161 15687,8166 9058,8166 Z"/>
 <path fill="none" stroke="rgb(179,179,179)" stroke-linejoin="round" d="M 15687,8165 L 2429,8165"/>
 <path fill="none" stroke="rgb(179,179,179)" stroke-linejoin="round" d="M 15687,7289 L 2429,7289"/>
 <path fill="none" stroke="rgb(179,179,179)" stroke-linejoin="round" d="M 15687,6413 L 2429,6413"/>
 <path fill="none" stroke="rgb(179,179,179)" stroke-linejoin="round" d="M 15687,5537 L 2429,5537"/>
 <path fill="none" stroke="rgb(179,179,179)" stroke-linejoin="round" d="M 15687,4662 L 2429,4662"/>
 <path fill="none" stroke="rgb(179,179,179)" stroke-linejoin="round" d="M 15687,3787 L 2429,3787"/>
 <path fill="none" stroke="rgb(179,179,179)" stroke-linejoin="round" d="M 15687,2911 L 2429,2911"/>
 <path fill="none" stroke="rgb(179,179,179)" stroke-linejoin="round" d="M 15687,2035 L 2429,2035"/>
 <path fill="none" stroke="rgb(179,179,179)" stroke-linejoin="round" d="M 15687,1160 L 2429,1160"/>
 <path fill="none" stroke="rgb(179,179,179)" stroke-linejoin="round" d="M 2429,8315 L 2429,8165"/>
 <path fill="none" stroke="rgb(179,179,179)" stroke-linejoin="round" d="M 2429,8315 L 2429,8165"/>
 <path fill="none" stroke="rgb(179,179,179)" stroke-linejoin="round" d="M 3533,8315 L 3533,8165"/>
 <path fill="none" stroke="rgb(179,179,179)" stroke-linejoin="round" d="M 3533,8315 L 3533,8165"/>
 <path fill="none" stroke="rgb(179,179,179)" stroke-linejoin="round" d="M 4638,8315 L 4638,8165"/>
 <path fill="none" stroke="rgb(179,179,179)" stroke-linejoin="round" d="M 4638,8315 L 4638,8165"/>
 <path fill="none" stroke="rgb(179,179,179)" stroke-linejoin="round" d="M 5743,8315 L 5743,8165"/>
 <path fill="none" stroke="rgb(179,179,179)" stroke-linejoin="round" d="M 5743,8315 L 5743,8165"/>
 <path fill="none" stroke="rgb(179,179,179)" stroke-linejoin="round" d="M 6848,8315 L 6848,8165"/>
 <path fill="none" stroke="rgb(179,179,179)" stroke-linejoin="round" d="M 6848,8315 L 6848,8165"/>
 <path fill="none" stroke="rgb(179,179,179)" stroke-linejoin="round" d="M 7953,8315 L 7953,8165"/>
 <path fill="none" stroke="rgb(179,179,179)" stroke-linejoin="round" d="M 7953,8315 L 7953,8165"/>
 <path fill="none" stroke="rgb(179,179,179)" stroke-linejoin="round" d="M 9057,8315 L 9057,8165"/>
 <path fill="none" stroke="rgb(179,179,179)" stroke-linejoin="round" d="M 9057,8315 L 9057,8165"/>
 <path fill="none" stroke="rgb(179,179,179)" stroke-linejoin="round" d="M 10162,8315 L 10162,8165"/>
 <path fill="none" stroke="rgb(179,179,179)" stroke-linejoin="round" d="M 10162,8315 L 10162,8165"/>
 <path fill="none" stroke="rgb(179,179,179)" stroke-linejoin="round" d="M 11267,8315 L 11267,8165"/>
 <path fill="none" stroke="rgb(179,179,179)" stroke-linejoin="round" d="M 11267,8315 L 11267,8165"/>
 <path fill="none" stroke="rgb(179,179,179)" stroke-linejoin="round" d="M 12372,8315 L 12372,8165"/>
 <path fill="none" stroke="rgb(179,179,179)" stroke-linejoin="round" d="M 12372,8315 L 12372,8165"/>
 <path fill="none" stroke="rgb(179,179,179)" stroke-linejoin="round" d="M 13477,8315 L 13477,8165"/>
 <path fill="none" stroke="rgb(179,179,179)" stroke-linejoin="round" d="M 13477,8315 L 13477,8165"/>
 <path fill="none" stroke="rgb(179,179,179)" stroke-linejoin="round" d="M 14582,8315 L 14582,8165"/>
 <path fill="none" stroke="rgb(179,179,179)" stroke-linejoin="round" d="M 14582,8315 L 14582,8165"/>
 <path fill="none" stroke="rgb(179,179,179)" stroke-linejoin="round" d="M 15687,8315 L 15687,8165"/>
 <path fill="none" stroke="rgb(179,179,179)" stroke-linejoin="round" d="M 15687,8315 L 15687,8165"/>
 <path fill="none" stroke="rgb(179,179,179)" stroke-linejoin="round" d="M 2429,8165 L 15687,8165"/>
 <path fill="none" stroke="rgb(179,179,179)" stroke-linejoin="round" d="M 2279,8165 L 2429,8165"/>
 <path fill="none" stroke="rgb(179,179,179)" stroke-linejoin="round" d="M 2279,8165 L 2429,8165"/>
 <path fill="none" stroke="rgb(179,179,179)" stroke-linejoin="round" d="M 2279,7289 L 2429,7289"/>
 <path fill="none" stroke="rgb(179,179,179)" stroke-linejoin="round" d="M 2279,7289 L 2429,7289"/>
 <path fill="none" stroke="rgb(179,179,179)" stroke-linejoin="round" d="M 2279,6413 L 2429,6413"/>
 <path fill="none" stroke="rgb(179,179,179)" stroke-linejoin="round" d="M 2279,6413 L 2429,6413"/>
 <path fill="none" stroke="rgb(179,179,179)" stroke-linejoin="round" d="M 2279,5537 L 2429,5537"/>
 <path fill="none" stroke="rgb(179,179,179)" stroke-linejoin="round" d="M 2279,5537 L 2429,5537"/>
 <path fill="none" stroke="rgb(179,179,179)" stroke-linejoin="round" d="M 2279,4662 L 2429,4662"/>
 <path fill="none" stroke="rgb(179,179,179)" stroke-linejoin="round" d="M 2279,4662 L 2429,4662"/>
 <path fill="none" stroke="rgb(179,179,179)" stroke-linejoin="round" d="M 2279,3787 L 2429,3787"/>
 <path fill="none" stroke="rgb(179,179,179)" stroke-linejoin="round" d="M 2279,3787 L 2429,3787"/>
 <path fill="none" stroke="rgb(179,179,179)" stroke-linejoin="round" d="M 2279,2911 L 2429,2911"/>
 <path fill="none" stroke="rgb(179,179,179)" stroke-linejoin="round" d="M 2279,2911 L 2429,2911"/>
 <path fill="none" stroke="rgb(179,179,179)" stroke-linejoin="round" d="M 2279,2035 L 2429,2035"/>
 <path fill="none" stroke="rgb(179,179,179)" stroke-linejoin="round" d="M 2279,2035 L 2429,2035"/>
 <path fill="none" stroke="rgb(179,179,179)" stroke-linejoin="round" d="M 2279,1160 L 2429,1160"/>
 <path fill="none" stroke="rgb(179,179,179)" stroke-linejoin="round" d="M 2279,1160 L 2429,1160"/>
 <path fill="none" stroke="rgb(179,179,179)" stroke-linejoin="round" d="M 2429,8165 L 2429,1160"/>
 <path fill="rgb(174,207,0)" stroke="none" d="M 14692,8165 L 14913,8165 14913,4662 14692,4662 14692,8165 Z"/>
 <path fill="rgb(174,207,0)" stroke="none" d="M 13587,8165 L 13808,8165 13808,6509 13587,6509 13587,8165 Z"/>
 <path fill="rgb(174,207,0)" stroke="none" d="M 12482,8165 L 12703,8165 12703,4377 12482,4377 12482,8165 Z"/>
 <path fill="rgb(174,207,0)" stroke="none" d="M 11377,8165 L 11598,8165 11598,5719 11377,5719 11377,8165 Z"/>
 <path fill="rgb(174,207,0)" stroke="none" d="M 10272,8165 L 10493,8165 10493,2790 10272,2790 10272,8165 Z"/>
 <path fill="rgb(174,207,0)" stroke="none" d="M 9167,8165 L 9388,8165 9388,1597 9167,1597 9167,8165 Z"/>
 <path fill="rgb(174,207,0)" stroke="none" d="M 8063,8165 L 8284,8165 8284,4153 8063,4153 8063,8165 Z"/>
 <path fill="rgb(174,207,0)" stroke="none" d="M 6959,8165 L 7180,8165 7180,5220 6959,5220 6959,8165 Z"/>
 <path fill="rgb(174,207,0)" stroke="none" d="M 5854,8165 L 6075,8165 6075,3196 5854,3196 5854,8165 Z"/>
 <path fill="rgb(174,207,0)" stroke="none" d="M 4749,8165 L 4970,8165 4970,6924 4749,6924 4749,8165 Z"/>
 <path fill="rgb(174,207,0)" stroke="none" d="M 3644,8165 L 3865,8165 3865,5301 3644,5301 3644,8165 Z"/>
 <path fill="rgb(174,207,0)" stroke="none" d="M 2539,8165 L 2760,8165 2760,5499 2539,5499 2539,8165 Z"/>
 <path fill="rgb(255,66,14)" stroke="none" d="M 14913,8165 L 15134,8165 15134,6056 14913,6056 14913,8165 Z"/>
 <path fill="rgb(255,66,14)" stroke="none" d="M 13808,8165 L 14029,8165 14029,7629 13808,7629 13808,8165 Z"/>
 <path fill="rgb(255,66,14)" stroke="none" d="M 12703,8165 L 12924,8165 12924,5402 12703,5402 12703,8165 Z"/>
 <path fill="rgb(255,66,14)" stroke="none" d="M 11598,8165 L 11819,8165 11819,4482 11598,4482 11598,8165 Z"/>
 <path fill="rgb(255,66,14)" stroke="none" d="M 10493,8165 L 10714,8165 10714,4393 10493,4393 10493,8165 Z"/>
 <path fill="rgb(255,66,14)" stroke="none" d="M 9388,8165 L 9609,8165 9609,4132 9388,4132 9388,8165 Z"/>
 <path fill="rgb(255,66,14)" stroke="none" d="M 8284,8165 L 8505,8165 8505,6206 8284,6206 8284,8165 Z"/>
 <path fill="rgb(255,66,14)" stroke="none" d="M 7180,8165 L 7401,8165 7401,6907 7180,6907 7180,8165 Z"/>
 <path fill="rgb(255,66,14)" stroke="none" d="M 6075,8165 L 6296,8165 6296,5958 6075,5958 6075,8165 Z"/>
 <path fill="rgb(255,66,14)" stroke="none" d="M 4970,8165 L 5191,8165 5191,7362 4970,7362 4970,8165 Z"/>
 <path fill="rgb(255,66,14)" stroke="none" d="M 3865,8165 L 4086,8165 4086,6779 3865,6779 3865,8165 Z"/>
 <path fill="rgb(255,66,14)" stroke="none" d="M 2760,8165 L 2981,8165 2981,7366 2760,7366 2760,8165 Z"/>
 <path fill="rgb(131,202,255)" stroke="none" d="M 15134,8165 L 15355,8165 15355,5155 15134,5155 15134,8165 Z"/>
 <path fill="rgb(131,202,255)" stroke="none" d="M 14029,8165 L 14250,8165 14250,7087 14029,7087 14029,8165 Z"/>
 <path fill="rgb(131,202,255)" stroke="none" d="M 12924,8165 L 13145,8165 13145,3100 12924,3100 12924,8165 Z"/>
 <path fill="rgb(131,202,255)" stroke="none" d="M 11819,8165 L 12040,8165 12040,1648 11819,1648 11819,8165 Z"/>
 <path fill="rgb(131,202,255)" stroke="none" d="M 10714,8165 L 10935,8165 10935,2997 10714,2997 10714,8165 Z"/>
 <path fill="rgb(131,202,255)" stroke="none" d="M 9609,8165 L 9830,8165 9830,3232 9609,3232 9609,8165 Z"/>
 <path fill="rgb(131,202,255)" stroke="none" d="M 8505,8165 L 8726,8165 8726,4905 8505,4905 8505,8165 Z"/>
 <path fill="rgb(131,202,255)" stroke="none" d="M 7401,8165 L 7622,8165 7622,6346 7401,6346 7401,8165 Z"/>
 <path fill="rgb(131,202,255)" stroke="none" d="M 6296,8165 L 6517,8165 6517,6807 6296,6807 6296,8165 Z"/>
 <path fill="rgb(131,202,255)" stroke="none" d="M 5191,8165 L 5412,8165 5412,7513 5191,7513 5191,8165 Z"/>
 <path fill="rgb(131,202,255)" stroke="none" d="M 4086,8165 L 4307,8165 4307,6513 4086,6513 4086,8165 Z"/>
 <path fill="rgb(131,202,255)" stroke="none" d="M 2981,8165 L 3202,8165 3202,6557 2981,6557 2981,8165 Z"/>
 <path fill="rgb(255,211,32)" stroke="none" d="M 15355,8165 L 15576,8165 15576,5138 15355,5138 15355,8165 Z"/>
 <path fill="rgb(255,211,32)" stroke="none" d="M 14250,8165 L 14471,8165 14471,7007 14250,7007 14250,8165 Z"/>
 <path fill="rgb(255,211,32)" stroke="none" d="M 13145,8165 L 13366,8165 13366,2641 13145,2641 13145,8165 Z"/>
 <path fill="rgb(255,211,32)" stroke="none" d="M 12040,8165 L 12261,8165 12261,3999 12040,3999 12040,8165 Z"/>
 <path fill="rgb(255,211,32)" stroke="none" d="M 10935,8165 L 11156,8165 11156,3077 10935,3077 10935,8165 Z"/>
 <path fill="rgb(255,211,32)" stroke="none" d="M 9830,8165 L 10051,8165 10051,3764 9830,3764 9830,8165 Z"/>
 <path fill="rgb(255,211,32)" stroke="none" d="M 8726,8165 L 8947,8165 8947,5397 8726,5397 8726,8165 Z"/>
 <path fill="rgb(255,211,32)" stroke="none" d="M 7622,8165 L 7843,8165 7843,6003 7622,6003 7622,8165 Z"/>
 <path fill="rgb(255,211,32)" stroke="none" d="M 6517,8165 L 6738,8165 6738,5066 6517,5066 6517,8165 Z"/>
 <path fill="rgb(255,211,32)" stroke="none" d="M 5412,8165 L 5633,8165 5633,6604 5412,6604 5412,8165 Z"/>
 <path fill="rgb(255,211,32)" stroke="none" d="M 4307,8165 L 4528,8165 4528,6210 4307,6210 4307,8165 Z"/>
 <path fill="rgb(255,211,32)" stroke="none" d="M 3202,8165 L 3423,8165 3423,6758 3202,6758 3202,8165 Z"/>
 <text class="TextShape"><tspan class="TextParagraph" font-family="Liberation Sans, sans-serif" font-size="353px" font-weight="400"><tspan class="TextPosition" x="2571" y="8733"><tspan fill="rgb(0,0,0)" stroke="none">DM 1</tspan></tspan></tspan></text>
 <text class="TextShape"><tspan class="TextParagraph" font-family="Liberation Sans, sans-serif" font-size="353px" font-weight="400"><tspan class="TextPosition" x="3676" y="8733"><tspan fill="rgb(0,0,0)" stroke="none">DM 2</tspan></tspan></tspan></text>
 <text class="TextShape"><tspan class="TextParagraph" font-family="Liberation Sans, sans-serif" font-size="353px" font-weight="400"><tspan class="TextPosition" x="4781" y="8733"><tspan fill="rgb(0,0,0)" stroke="none">DM 3</tspan></tspan></tspan></text>
 <text class="TextShape"><tspan class="TextParagraph" font-family="Liberation Sans, sans-serif" font-size="353px" font-weight="400"><tspan class="TextPosition" x="5886" y="8733"><tspan fill="rgb(0,0,0)" stroke="none">DM 4</tspan></tspan></tspan></text>
 <text class="TextShape"><tspan class="TextParagraph" font-family="Liberation Sans, sans-serif" font-size="353px" font-weight="400"><tspan class="TextPosition" x="6991" y="8733"><tspan fill="rgb(0,0,0)" stroke="none">DM 5</tspan></tspan></tspan></text>
 <text class="TextShape"><tspan class="TextParagraph" font-family="Liberation Sans, sans-serif" font-size="353px" font-weight="400"><tspan class="TextPosition" x="8096" y="8733"><tspan fill="rgb(0,0,0)" stroke="none">DM 6</tspan></tspan></tspan></text>
 <text class="TextShape"><tspan class="TextParagraph" font-family="Liberation Sans, sans-serif" font-size="353px" font-weight="400"><tspan class="TextPosition" x="9200" y="8733"><tspan fill="rgb(0,0,0)" stroke="none">DM 7</tspan></tspan></tspan></text>
 <text class="TextShape"><tspan class="TextParagraph" font-family="Liberation Sans, sans-serif" font-size="353px" font-weight="400"><tspan class="TextPosition" x="10305" y="8733"><tspan fill="rgb(0,0,0)" stroke="none">DM 8</tspan></tspan></tspan></text>
 <text class="TextShape"><tspan class="TextParagraph" font-family="Liberation Sans, sans-serif" font-size="353px" font-weight="400"><tspan class="TextPosition" x="11410" y="8733"><tspan fill="rgb(0,0,0)" stroke="none">DM 9</tspan></tspan></tspan></text>
 <text class="TextShape"><tspan class="TextParagraph" font-family="Liberation Sans, sans-serif" font-size="353px" font-weight="400"><tspan class="TextPosition" x="12422" y="8733"><tspan fill="rgb(0,0,0)" stroke="none">DM 10</tspan></tspan></tspan></text>
 <text class="TextShape"><tspan class="TextParagraph" font-family="Liberation Sans, sans-serif" font-size="353px" font-weight="400"><tspan class="TextPosition" x="13527" y="8733"><tspan fill="rgb(0,0,0)" stroke="none">DM 11</tspan></tspan></tspan></text>
 <text class="TextShape"><tspan class="TextParagraph" font-family="Liberation Sans, sans-serif" font-size="353px" font-weight="400"><tspan class="TextPosition" x="14579" y="8733"><tspan fill="rgb(0,0,0)" stroke="none">Median</tspan></tspan></tspan></text>
 <text class="TextShape"><tspan class="TextParagraph" font-family="Liberation Sans, sans-serif" font-size="353px" font-weight="400"><tspan class="TextPosition" x="1518" y="8286"><tspan fill="rgb(0,0,0)" stroke="none">0.00</tspan></tspan></tspan></text>
 <text class="TextShape"><tspan class="TextParagraph" font-family="Liberation Sans, sans-serif" font-size="353px" font-weight="400"><tspan class="TextPosition" x="1518" y="7410"><tspan fill="rgb(0,0,0)" stroke="none">5.00</tspan></tspan></tspan></text>
 <text class="TextShape"><tspan class="TextParagraph" font-family="Liberation Sans, sans-serif" font-size="353px" font-weight="400"><tspan class="TextPosition" x="1332" y="6534"><tspan fill="rgb(0,0,0)" stroke="none">10.00</tspan></tspan></tspan></text>
 <text class="TextShape"><tspan class="TextParagraph" font-family="Liberation Sans, sans-serif" font-size="353px" font-weight="400"><tspan class="TextPosition" x="1332" y="5658"><tspan fill="rgb(0,0,0)" stroke="none">15.00</tspan></tspan></tspan></text>
 <text class="TextShape"><tspan class="TextParagraph" font-family="Liberation Sans, sans-serif" font-size="353px" font-weight="400"><tspan class="TextPosition" x="1332" y="4783"><tspan fill="rgb(0,0,0)" stroke="none">20.00</tspan></tspan></tspan></text>
 <text class="TextShape"><tspan class="TextParagraph" font-family="Liberation Sans, sans-serif" font-size="353px" font-weight="400"><tspan class="TextPosition" x="1332" y="3907"><tspan fill="rgb(0,0,0)" stroke="none">25.00</tspan></tspan></tspan></text>
 <text class="TextShape"><tspan class="TextParagraph" font-family="Liberation Sans, sans-serif" font-size="353px" font-weight="400"><tspan class="TextPosition" x="1332" y="3031"><tspan fill="rgb(0,0,0)" stroke="none">30.00</tspan></tspan></tspan></text>
 <text class="TextShape"><tspan class="TextParagraph" font-family="Liberation Sans, sans-serif" font-size="353px" font-weight="400"><tspan class="TextPosition" x="1332" y="2155"><tspan fill="rgb(0,0,0)" stroke="none">35.00</tspan></tspan></tspan></text>
 <text class="TextShape"><tspan class="TextParagraph" font-family="Liberation Sans, sans-serif" font-size="353px" font-weight="400"><tspan class="TextPosition" x="1332" y="1280"><tspan fill="rgb(0,0,0)" stroke="none">40.00</tspan></tspan></tspan></text>
 <path fill="rgb(174,207,0)" stroke="none" d="M 4703,589 L 4598,589 4598,378 4809,378 4809,589 4703,589 Z"/>
 <path fill="rgb(255,66,14)" stroke="none" d="M 7021,589 L 6916,589 6916,378 7127,378 7127,589 7021,589 Z"/>
 <path fill="rgb(131,202,255)" stroke="none" d="M 9524,589 L 9418,589 9418,378 9629,378 9629,589 9524,589 Z"/>
 <path fill="rgb(255,211,32)" stroke="none" d="M 10439,589 L 10333,589 10333,378 10544,378 10544,589 10439,589 Z"/>
 <text class="TextShape"><tspan class="TextParagraph" font-family="Liberation Sans, sans-serif" font-size="353px" font-weight="400"><tspan class="TextPosition" x="4909" y="603"><tspan fill="rgb(0,0,0)" stroke="none">MLP (2500)</tspan></tspan></tspan></text>
 <text class="TextShape"><tspan class="TextParagraph" font-family="Liberation Sans, sans-serif" font-size="353px" font-weight="400"><tspan class="TextPosition" x="7227" y="603"><tspan fill="rgb(0,0,0)" stroke="none">RandomTree</tspan></tspan></tspan></text>
 <text class="TextShape"><tspan class="TextParagraph" font-family="Liberation Sans, sans-serif" font-size="353px" font-weight="400"><tspan class="TextPosition" x="9729" y="603"><tspan fill="rgb(0,0,0)" stroke="none">K*</tspan></tspan></tspan></text>
 <text class="TextShape"><tspan class="TextParagraph" font-family="Liberation Sans, sans-serif" font-size="353px" font-weight="400"><tspan class="TextPosition" x="10644" y="603"><tspan fill="rgb(0,0,0)" stroke="none">MCS</tspan></tspan></tspan></text>
 <text class="TextShape" transform="rotate(-90 837 6938)"><tspan class="TextParagraph" font-family="Liberation Sans, sans-serif" font-size="318px" font-weight="400"><tspan class="TextPosition" x="837" y="6938"><tspan fill="rgb(0,0,0)" stroke="none">Relative Absolut Error (RAE)</tspan></tspan></tspan></text>
</svg>