<?xml version="1.0" encoding="UTF-8"?>
<!DOCTYPE svg PUBLIC "-//W3C//DTD SVG 1.1//EN" "http://www.w3.org/Graphics/SVG/1.1/DTD/svg11.dtd">
<svg width="160mm" height="90mm" viewBox="0 0 16000 9000" version="1.1" xmlns="http://www.w3.org/2000/svg" xmlns:xlink="http://www.w3.org/1999/xlink" stroke-width="28.222" stroke-linejoin="round" xml:space="preserve">
 <path fill="rgb(255,255,255)" stroke="none" d="M 7999,9005 L 0,9005 0,0 15997,0 15997,9005 7999,9005 Z"/>
 <path fill="none" stroke="rgb(179,179,179)" stroke-linejoin="round" d="M 8785,8178 L 1893,8178 1893,1162 15678,1162 15678,8178 8785,8178 Z"/>
 <path fill="none" stroke="rgb(179,179,179)" stroke-linejoin="round" d="M 15678,8177 L 1893,8177"/>
 <path fill="none" stroke="rgb(179,179,179)" stroke-linejoin="round" d="M 15678,7299 L 1893,7299"/>
 <path fill="none" stroke="rgb(179,179,179)" stroke-linejoin="round" d="M 15678,6422 L 1893,6422"/>
 <path fill="none" stroke="rgb(179,179,179)" stroke-linejoin="round" d="M 15678,5545 L 1893,5545"/>
 <path fill="none" stroke="rgb(179,179,179)" stroke-linejoin="round" d="M 15678,4668 L 1893,4668"/>
 <path fill="none" stroke="rgb(179,179,179)" stroke-linejoin="round" d="M 15678,3792 L 1893,3792"/>
 <path fill="none" stroke="rgb(179,179,179)" stroke-linejoin="round" d="M 15678,2915 L 1893,2915"/>
 <path fill="none" stroke="rgb(179,179,179)" stroke-linejoin="round" d="M 15678,2038 L 1893,2038"/>
 <path fill="none" stroke="rgb(179,179,179)" stroke-linejoin="round" d="M 15678,1161 L 1893,1161"/>
 <path fill="none" stroke="rgb(179,179,179)" stroke-linejoin="round" d="M 1893,8327 L 1893,8177"/>
 <path fill="none" stroke="rgb(179,179,179)" stroke-linejoin="round" d="M 1893,8327 L 1893,8177"/>
 <path fill="none" stroke="rgb(179,179,179)" stroke-linejoin="round" d="M 3146,8327 L 3146,8177"/>
 <path fill="none" stroke="rgb(179,179,179)" stroke-linejoin="round" d="M 3146,8327 L 3146,8177"/>
 <path fill="none" stroke="rgb(179,179,179)" stroke-linejoin="round" d="M 4399,8327 L 4399,8177"/>
 <path fill="none" stroke="rgb(179,179,179)" stroke-linejoin="round" d="M 4399,8327 L 4399,8177"/>
 <path fill="none" stroke="rgb(179,179,179)" stroke-linejoin="round" d="M 5652,8327 L 5652,8177"/>
 <path fill="none" stroke="rgb(179,179,179)" stroke-linejoin="round" d="M 5652,8327 L 5652,8177"/>
 <path fill="none" stroke="rgb(179,179,179)" stroke-linejoin="round" d="M 6906,8327 L 6906,8177"/>
 <path fill="none" stroke="rgb(179,179,179)" stroke-linejoin="round" d="M 6906,8327 L 6906,8177"/>
 <path fill="none" stroke="rgb(179,179,179)" stroke-linejoin="round" d="M 8158,8327 L 8158,8177"/>
 <path fill="none" stroke="rgb(179,179,179)" stroke-linejoin="round" d="M 8158,8327 L 8158,8177"/>
 <path fill="none" stroke="rgb(179,179,179)" stroke-linejoin="round" d="M 9411,8327 L 9411,8177"/>
 <path fill="none" stroke="rgb(179,179,179)" stroke-linejoin="round" d="M 9411,8327 L 9411,8177"/>
 <path fill="none" stroke="rgb(179,179,179)" stroke-linejoin="round" d="M 10664,8327 L 10664,8177"/>
 <path fill="none" stroke="rgb(179,179,179)" stroke-linejoin="round" d="M 10664,8327 L 10664,8177"/>
 <path fill="none" stroke="rgb(179,179,179)" stroke-linejoin="round" d="M 11918,8327 L 11918,8177"/>
 <path fill="none" stroke="rgb(179,179,179)" stroke-linejoin="round" d="M 11918,8327 L 11918,8177"/>
 <path fill="none" stroke="rgb(179,179,179)" stroke-linejoin="round" d="M 13171,8327 L 13171,8177"/>
 <path fill="none" stroke="rgb(179,179,179)" stroke-linejoin="round" d="M 13171,8327 L 13171,8177"/>
 <path fill="none" stroke="rgb(179,179,179)" stroke-linejoin="round" d="M 14424,8327 L 14424,8177"/>
 <path fill="none" stroke="rgb(179,179,179)" stroke-linejoin="round" d="M 14424,8327 L 14424,8177"/>
 <path fill="none" stroke="rgb(179,179,179)" stroke-linejoin="round" d="M 15678,8327 L 15678,8177"/>
 <path fill="none" stroke="rgb(179,179,179)" stroke-linejoin="round" d="M 15678,8327 L 15678,8177"/>
 <path fill="none" stroke="rgb(179,179,179)" stroke-linejoin="round" d="M 1893,8177 L 15678,8177"/>
 <path fill="none" stroke="rgb(179,179,179)" stroke-linejoin="round" d="M 1743,8177 L 1893,8177"/>
 <path fill="none" stroke="rgb(179,179,179)" stroke-linejoin="round" d="M 1743,8177 L 1893,8177"/>
 <path fill="none" stroke="rgb(179,179,179)" stroke-linejoin="round" d="M 1743,7299 L 1893,7299"/>
 <path fill="none" stroke="rgb(179,179,179)" stroke-linejoin="round" d="M 1743,7299 L 1893,7299"/>
 <path fill="none" stroke="rgb(179,179,179)" stroke-linejoin="round" d="M 1743,6422 L 1893,6422"/>
 <path fill="none" stroke="rgb(179,179,179)" stroke-linejoin="round" d="M 1743,6422 L 1893,6422"/>
 <path fill="none" stroke="rgb(179,179,179)" stroke-linejoin="round" d="M 1743,5545 L 1893,5545"/>
 <path fill="none" stroke="rgb(179,179,179)" stroke-linejoin="round" d="M 1743,5545 L 1893,5545"/>
 <path fill="none" stroke="rgb(179,179,179)" stroke-linejoin="round" d="M 1743,4668 L 1893,4668"/>
 <path fill="none" stroke="rgb(179,179,179)" stroke-linejoin="round" d="M 1743,4668 L 1893,4668"/>
 <path fill="none" stroke="rgb(179,179,179)" stroke-linejoin="round" d="M 1743,3792 L 1893,3792"/>
 <path fill="none" stroke="rgb(179,179,179)" stroke-linejoin="round" d="M 1743,3792 L 1893,3792"/>
 <path fill="none" stroke="rgb(179,179,179)" stroke-linejoin="round" d="M 1743,2915 L 1893,2915"/>
 <path fill="none" stroke="rgb(179,179,179)" stroke-linejoin="round" d="M 1743,2915 L 1893,2915"/>
 <path fill="none" stroke="rgb(179,179,179)" stroke-linejoin="round" d="M 1743,2038 L 1893,2038"/>
 <path fill="none" stroke="rgb(179,179,179)" stroke-linejoin="round" d="M 1743,2038 L 1893,2038"/>
 <path fill="none" stroke="rgb(179,179,179)" stroke-linejoin="round" d="M 1743,1161 L 1893,1161"/>
 <path fill="none" stroke="rgb(179,179,179)" stroke-linejoin="round" d="M 1743,1161 L 1893,1161"/>
 <path fill="none" stroke="rgb(179,179,179)" stroke-linejoin="round" d="M 1893,8177 L 1893,1161"/>
 <path fill="rgb(0,69,134)" stroke="none" d="M 14738,8177 L 15364,8177 15364,7854 14738,7854 14738,8177 Z"/>
 <path fill="rgb(0,69,134)" stroke="none" d="M 13484,8177 L 14111,8177 14111,7850 13484,7850 13484,8177 Z"/>
 <path fill="rgb(0,69,134)" stroke="none" d="M 12231,8177 L 12858,8177 12858,8014 12231,8014 12231,8177 Z"/>
 <path fill="rgb(0,69,134)" stroke="none" d="M 10978,8177 L 11604,8177 11604,7845 10978,7845 10978,8177 Z"/>
 <path fill="rgb(0,69,134)" stroke="none" d="M 9724,8177 L 10351,8177 10351,8011 9724,8011 9724,8177 Z"/>
 <path fill="rgb(0,69,134)" stroke="none" d="M 8471,8177 L 9098,8177 9098,7847 8471,7847 8471,8177 Z"/>
 <path fill="rgb(0,69,134)" stroke="none" d="M 7219,8177 L 7846,8177 7846,7854 7219,7854 7219,8177 Z"/>
 <path fill="rgb(0,69,134)" stroke="none" d="M 5966,8177 L 6592,8177 6592,8014 5966,8014 5966,8177 Z"/>
 <path fill="rgb(0,69,134)" stroke="none" d="M 4712,8177 L 5339,8177 5339,8011 4712,8011 4712,8177 Z"/>
 <path fill="rgb(0,69,134)" stroke="none" d="M 3459,8177 L 4086,8177 4086,7850 3459,7850 3459,8177 Z"/>
 <path fill="rgb(0,69,134)" stroke="none" d="M 2206,8177 L 2832,8177 2832,7932 2206,7932 2206,8177 Z"/>
 <path fill="rgb(255,66,14)" stroke="none" d="M 14738,7854 L 15364,7854 15364,7127 14738,7127 14738,7854 Z"/>
 <path fill="rgb(255,66,14)" stroke="none" d="M 13484,7850 L 14111,7850 14111,7523 13484,7523 13484,7850 Z"/>
 <path fill="rgb(255,66,14)" stroke="none" d="M 12231,8014 L 12858,8014 12858,7769 12231,7769 12231,8014 Z"/>
 <path fill="rgb(255,66,14)" stroke="none" d="M 10978,7845 L 11604,7845 11604,7343 10978,7343 10978,7845 Z"/>
 <path fill="rgb(255,66,14)" stroke="none" d="M 9724,8011 L 10351,8011 10351,7845 9724,7845 9724,8011 Z"/>
 <path fill="rgb(255,66,14)" stroke="none" d="M 8471,7847 L 9098,7847 9098,7430 8471,7430 8471,7847 Z"/>
 <path fill="rgb(255,66,14)" stroke="none" d="M 7219,7854 L 7846,7854 7846,7371 7219,7371 7219,7854 Z"/>
 <path fill="rgb(255,66,14)" stroke="none" d="M 5966,8014 L 6592,8014 6592,7851 5966,7851 5966,8014 Z"/>
 <path fill="rgb(255,66,14)" stroke="none" d="M 4712,8011 L 5339,8011 5339,7763 4712,7763 4712,8011 Z"/>
 <path fill="rgb(255,66,14)" stroke="none" d="M 3459,7850 L 4086,7850 4086,7523 3459,7523 3459,7850 Z"/>
 <path fill="rgb(255,66,14)" stroke="none" d="M 2206,7932 L 2832,7932 2832,7441 2206,7441 2206,7932 Z"/>
 <path fill="rgb(255,211,32)" stroke="none" d="M 14738,7127 L 15364,7127 15364,2004 14738,2004 14738,7127 Z"/>
 <path fill="rgb(255,211,32)" stroke="none" d="M 13484,7523 L 14111,7523 14111,6059 13484,6059 13484,7523 Z"/>
 <path fill="rgb(255,211,32)" stroke="none" d="M 12231,7769 L 12858,7769 12858,7033 12231,7033 12231,7769 Z"/>
 <path fill="rgb(255,211,32)" stroke="none" d="M 10978,7343 L 11604,7343 11604,6356 10978,6356 10978,7343 Z"/>
 <path fill="rgb(255,211,32)" stroke="none" d="M 9724,7845 L 10351,7845 10351,7344 9724,7344 9724,7845 Z"/>
 <path fill="rgb(255,211,32)" stroke="none" d="M 8471,7430 L 9098,7430 9098,6178 8471,6178 8471,7430 Z"/>
 <path fill="rgb(255,211,32)" stroke="none" d="M 7219,7371 L 7846,7371 7846,6083 7219,6083 7219,7371 Z"/>
 <path fill="rgb(255,211,32)" stroke="none" d="M 5966,7851 L 6592,7851 6592,7199 5966,7199 5966,7851 Z"/>
 <path fill="rgb(255,211,32)" stroke="none" d="M 4712,7763 L 5339,7763 5339,6426 4712,6426 4712,7763 Z"/>
 <path fill="rgb(255,211,32)" stroke="none" d="M 3459,7523 L 4086,7523 4086,5805 3459,5805 3459,7523 Z"/>
 <path fill="rgb(255,211,32)" stroke="none" d="M 2206,7441 L 2832,7441 2832,6293 2206,6293 2206,7441 Z"/>
 <text class="TextShape"><tspan class="TextParagraph" font-family="Liberation Sans, sans-serif" font-size="353px" font-weight="400"><tspan class="TextPosition" x="2109" y="8745"><tspan fill="rgb(0,0,0)" stroke="none">DM 1</tspan></tspan></tspan></text>
 <text class="TextShape"><tspan class="TextParagraph" font-family="Liberation Sans, sans-serif" font-size="353px" font-weight="400"><tspan class="TextPosition" x="3362" y="8745"><tspan fill="rgb(0,0,0)" stroke="none">DM 2</tspan></tspan></tspan></text>
 <text class="TextShape"><tspan class="TextParagraph" font-family="Liberation Sans, sans-serif" font-size="353px" font-weight="400"><tspan class="TextPosition" x="4616" y="8745"><tspan fill="rgb(0,0,0)" stroke="none">DM 3</tspan></tspan></tspan></text>
 <text class="TextShape"><tspan class="TextParagraph" font-family="Liberation Sans, sans-serif" font-size="353px" font-weight="400"><tspan class="TextPosition" x="5869" y="8745"><tspan fill="rgb(0,0,0)" stroke="none">DM 4</tspan></tspan></tspan></text>
 <text class="TextShape"><tspan class="TextParagraph" font-family="Liberation Sans, sans-serif" font-size="353px" font-weight="400"><tspan class="TextPosition" x="7122" y="8745"><tspan fill="rgb(0,0,0)" stroke="none">DM 5</tspan></tspan></tspan></text>
 <text class="TextShape"><tspan class="TextParagraph" font-family="Liberation Sans, sans-serif" font-size="353px" font-weight="400"><tspan class="TextPosition" x="8376" y="8745"><tspan fill="rgb(0,0,0)" stroke="none">DM 6</tspan></tspan></tspan></text>
 <text class="TextShape"><tspan class="TextParagraph" font-family="Liberation Sans, sans-serif" font-size="353px" font-weight="400"><tspan class="TextPosition" x="9629" y="8745"><tspan fill="rgb(0,0,0)" stroke="none">DM 7</tspan></tspan></tspan></text>
 <text class="TextShape"><tspan class="TextParagraph" font-family="Liberation Sans, sans-serif" font-size="353px" font-weight="400"><tspan class="TextPosition" x="10882" y="8745"><tspan fill="rgb(0,0,0)" stroke="none">DM 8</tspan></tspan></tspan></text>
 <text class="TextShape"><tspan class="TextParagraph" font-family="Liberation Sans, sans-serif" font-size="353px" font-weight="400"><tspan class="TextPosition" x="12135" y="8745"><tspan fill="rgb(0,0,0)" stroke="none">DM 9</tspan></tspan></tspan></text>
 <text class="TextShape"><tspan class="TextParagraph" font-family="Liberation Sans, sans-serif" font-size="353px" font-weight="400"><tspan class="TextPosition" x="13296" y="8745"><tspan fill="rgb(0,0,0)" stroke="none">DM 10</tspan></tspan></tspan></text>
 <text class="TextShape"><tspan class="TextParagraph" font-family="Liberation Sans, sans-serif" font-size="353px" font-weight="400"><tspan class="TextPosition" x="14549" y="8745"><tspan fill="rgb(0,0,0)" stroke="none">DM 11</tspan></tspan></tspan></text>
 <text class="TextShape"><tspan class="TextParagraph" font-family="Liberation Sans, sans-serif" font-size="353px" font-weight="400"><tspan class="TextPosition" x="982" y="8298"><tspan fill="rgb(0,0,0)" stroke="none">0.00</tspan></tspan></tspan></text>
 <text class="TextShape"><tspan class="TextParagraph" font-family="Liberation Sans, sans-serif" font-size="353px" font-weight="400"><tspan class="TextPosition" x="611" y="7420"><tspan fill="rgb(0,0,0)" stroke="none">500.00</tspan></tspan></tspan></text>
 <text class="TextShape"><tspan class="TextParagraph" font-family="Liberation Sans, sans-serif" font-size="353px" font-weight="400"><tspan class="TextPosition" x="320" y="6543"><tspan fill="rgb(0,0,0)" stroke="none">1,000.00</tspan></tspan></tspan></text>
 <text class="TextShape"><tspan class="TextParagraph" font-family="Liberation Sans, sans-serif" font-size="353px" font-weight="400"><tspan class="TextPosition" x="320" y="5666"><tspan fill="rgb(0,0,0)" stroke="none">1,500.00</tspan></tspan></tspan></text>
 <text class="TextShape"><tspan class="TextParagraph" font-family="Liberation Sans, sans-serif" font-size="353px" font-weight="400"><tspan class="TextPosition" x="320" y="4789"><tspan fill="rgb(0,0,0)" stroke="none">2,000.00</tspan></tspan></tspan></text>
 <text class="TextShape"><tspan class="TextParagraph" font-family="Liberation Sans, sans-serif" font-size="353px" font-weight="400"><tspan class="TextPosition" x="320" y="3912"><tspan fill="rgb(0,0,0)" stroke="none">2,500.00</tspan></tspan></tspan></text>
 <text class="TextShape"><tspan class="TextParagraph" font-family="Liberation Sans, sans-serif" font-size="353px" font-weight="400"><tspan class="TextPosition" x="320" y="3035"><tspan fill="rgb(0,0,0)" stroke="none">3,000.00</tspan></tspan></tspan></text>
 <text class="TextShape"><tspan class="TextParagraph" font-family="Liberation Sans, sans-serif" font-size="353px" font-weight="400"><tspan class="TextPosition" x="320" y="2158"><tspan fill="rgb(0,0,0)" stroke="none">3,500.00</tspan></tspan></tspan></text>
 <text class="TextShape"><tspan class="TextParagraph" font-family="Liberation Sans, sans-serif" font-size="353px" font-weight="400"><tspan class="TextPosition" x="320" y="1281"><tspan fill="rgb(0,0,0)" stroke="none">4,000.00</tspan></tspan></tspan></text>
 <path fill="rgb(0,69,134)" stroke="none" d="M 4108,589 L 4003,589 4003,378 4214,378 4214,589 4108,589 Z"/>
 <path fill="rgb(255,66,14)" stroke="none" d="M 6823,589 L 6718,589 6718,378 6929,378 6929,589 6823,589 Z"/>
 <path fill="rgb(255,211,32)" stroke="none" d="M 9617,589 L 9511,589 9511,378 9722,378 9722,589 9617,589 Z"/>
 <text class="TextShape"><tspan class="TextParagraph" font-family="Liberation Sans, sans-serif" font-size="353px" font-weight="400"><tspan class="TextPosition" x="4314" y="603"><tspan fill="rgb(0,0,0)" stroke="none">1st interaction</tspan></tspan></tspan></text>
 <text class="TextShape"><tspan class="TextParagraph" font-family="Liberation Sans, sans-serif" font-size="353px" font-weight="400"><tspan class="TextPosition" x="7029" y="603"><tspan fill="rgb(0,0,0)" stroke="none">2nd interaction</tspan></tspan></tspan></text>
 <text class="TextShape"><tspan class="TextParagraph" font-family="Liberation Sans, sans-serif" font-size="353px" font-weight="400"><tspan class="TextPosition" x="9822" y="603"><tspan fill="rgb(0,0,0)" stroke="none">3rd interaction</tspan></tspan></tspan></text>
</svg>