<?xml version="1.0" encoding="UTF-8"?>
<!DOCTYPE svg PUBLIC "-//W3C//DTD SVG 1.1//EN" "http://www.w3.org/Graphics/SVG/1.1/DTD/svg11.dtd">
<svg width="160mm" height="90mm" viewBox="0 0 16000 9000" version="1.1" xmlns="http://www.w3.org/2000/svg" xmlns:xlink="http://www.w3.org/1999/xlink" stroke-width="28.222" stroke-linejoin="round" xml:space="preserve">
 <path fill="rgb(255,255,255)" stroke="none" d="M 7999,9005 L 0,9005 0,0 15997,0 15997,9005 7999,9005 Z"/>
 <path fill="none" stroke="rgb(179,179,179)" stroke-linejoin="round" d="M 9291,8178 L 2904,8178 2904,1162 15678,1162 15678,8178 9291,8178 Z"/>
 <path fill="none" stroke="rgb(179,179,179)" stroke-linejoin="round" d="M 15678,8177 L 2904,8177"/>
 <path fill="none" stroke="rgb(179,179,179)" stroke-linejoin="round" d="M 15678,7299 L 2904,7299"/>
 <path fill="none" stroke="rgb(179,179,179)" stroke-linejoin="round" d="M 15678,6422 L 2904,6422"/>
 <path fill="none" stroke="rgb(179,179,179)" stroke-linejoin="round" d="M 15678,5545 L 2904,5545"/>
 <path fill="none" stroke="rgb(179,179,179)" stroke-linejoin="round" d="M 15678,4668 L 2904,4668"/>
 <path fill="none" stroke="rgb(179,179,179)" stroke-linejoin="round" d="M 15678,3792 L 2904,3792"/>
 <path fill="none" stroke="rgb(179,179,179)" stroke-linejoin="round" d="M 15678,2915 L 2904,2915"/>
 <path fill="none" stroke="rgb(179,179,179)" stroke-linejoin="round" d="M 15678,2038 L 2904,2038"/>
 <path fill="none" stroke="rgb(179,179,179)" stroke-linejoin="round" d="M 15678,1161 L 2904,1161"/>
 <path fill="none" stroke="rgb(179,179,179)" stroke-linejoin="round" d="M 2904,8327 L 2904,8177"/>
 <path fill="none" stroke="rgb(179,179,179)" stroke-linejoin="round" d="M 2904,8327 L 2904,8177"/>
 <path fill="none" stroke="rgb(179,179,179)" stroke-linejoin="round" d="M 4065,8327 L 4065,8177"/>
 <path fill="none" stroke="rgb(179,179,179)" stroke-linejoin="round" d="M 4065,8327 L 4065,8177"/>
 <path fill="none" stroke="rgb(179,179,179)" stroke-linejoin="round" d="M 5226,8327 L 5226,8177"/>
 <path fill="none" stroke="rgb(179,179,179)" stroke-linejoin="round" d="M 5226,8327 L 5226,8177"/>
 <path fill="none" stroke="rgb(179,179,179)" stroke-linejoin="round" d="M 6388,8327 L 6388,8177"/>
 <path fill="none" stroke="rgb(179,179,179)" stroke-linejoin="round" d="M 6388,8327 L 6388,8177"/>
 <path fill="none" stroke="rgb(179,179,179)" stroke-linejoin="round" d="M 7549,8327 L 7549,8177"/>
 <path fill="none" stroke="rgb(179,179,179)" stroke-linejoin="round" d="M 7549,8327 L 7549,8177"/>
 <path fill="none" stroke="rgb(179,179,179)" stroke-linejoin="round" d="M 8709,8327 L 8709,8177"/>
 <path fill="none" stroke="rgb(179,179,179)" stroke-linejoin="round" d="M 8709,8327 L 8709,8177"/>
 <path fill="none" stroke="rgb(179,179,179)" stroke-linejoin="round" d="M 9871,8327 L 9871,8177"/>
 <path fill="none" stroke="rgb(179,179,179)" stroke-linejoin="round" d="M 9871,8327 L 9871,8177"/>
 <path fill="none" stroke="rgb(179,179,179)" stroke-linejoin="round" d="M 11032,8327 L 11032,8177"/>
 <path fill="none" stroke="rgb(179,179,179)" stroke-linejoin="round" d="M 11032,8327 L 11032,8177"/>
 <path fill="none" stroke="rgb(179,179,179)" stroke-linejoin="round" d="M 12193,8327 L 12193,8177"/>
 <path fill="none" stroke="rgb(179,179,179)" stroke-linejoin="round" d="M 12193,8327 L 12193,8177"/>
 <path fill="none" stroke="rgb(179,179,179)" stroke-linejoin="round" d="M 13355,8327 L 13355,8177"/>
 <path fill="none" stroke="rgb(179,179,179)" stroke-linejoin="round" d="M 13355,8327 L 13355,8177"/>
 <path fill="none" stroke="rgb(179,179,179)" stroke-linejoin="round" d="M 14516,8327 L 14516,8177"/>
 <path fill="none" stroke="rgb(179,179,179)" stroke-linejoin="round" d="M 14516,8327 L 14516,8177"/>
 <path fill="none" stroke="rgb(179,179,179)" stroke-linejoin="round" d="M 15678,8327 L 15678,8177"/>
 <path fill="none" stroke="rgb(179,179,179)" stroke-linejoin="round" d="M 15678,8327 L 15678,8177"/>
 <path fill="none" stroke="rgb(179,179,179)" stroke-linejoin="round" d="M 2904,8177 L 15678,8177"/>
 <path fill="none" stroke="rgb(179,179,179)" stroke-linejoin="round" d="M 2754,8177 L 2904,8177"/>
 <path fill="none" stroke="rgb(179,179,179)" stroke-linejoin="round" d="M 2754,8177 L 2904,8177"/>
 <path fill="none" stroke="rgb(179,179,179)" stroke-linejoin="round" d="M 2754,7299 L 2904,7299"/>
 <path fill="none" stroke="rgb(179,179,179)" stroke-linejoin="round" d="M 2754,7299 L 2904,7299"/>
 <path fill="none" stroke="rgb(179,179,179)" stroke-linejoin="round" d="M 2754,6422 L 2904,6422"/>
 <path fill="none" stroke="rgb(179,179,179)" stroke-linejoin="round" d="M 2754,6422 L 2904,6422"/>
 <path fill="none" stroke="rgb(179,179,179)" stroke-linejoin="round" d="M 2754,5545 L 2904,5545"/>
 <path fill="none" stroke="rgb(179,179,179)" stroke-linejoin="round" d="M 2754,5545 L 2904,5545"/>
 <path fill="none" stroke="rgb(179,179,179)" stroke-linejoin="round" d="M 2754,4668 L 2904,4668"/>
 <path fill="none" stroke="rgb(179,179,179)" stroke-linejoin="round" d="M 2754,4668 L 2904,4668"/>
 <path fill="none" stroke="rgb(179,179,179)" stroke-linejoin="round" d="M 2754,3792 L 2904,3792"/>
 <path fill="none" stroke="rgb(179,179,179)" stroke-linejoin="round" d="M 2754,3792 L 2904,3792"/>
 <path fill="none" stroke="rgb(179,179,179)" stroke-linejoin="round" d="M 2754,2915 L 2904,2915"/>
 <path fill="none" stroke="rgb(179,179,179)" stroke-linejoin="round" d="M 2754,2915 L 2904,2915"/>
 <path fill="none" stroke="rgb(179,179,179)" stroke-linejoin="round" d="M 2754,2038 L 2904,2038"/>
 <path fill="none" stroke="rgb(179,179,179)" stroke-linejoin="round" d="M 2754,2038 L 2904,2038"/>
 <path fill="none" stroke="rgb(179,179,179)" stroke-linejoin="round" d="M 2754,1161 L 2904,1161"/>
 <path fill="none" stroke="rgb(179,179,179)" stroke-linejoin="round" d="M 2754,1161 L 2904,1161"/>
 <path fill="none" stroke="rgb(179,179,179)" stroke-linejoin="round" d="M 2904,8177 L 2904,1161"/>
 <path fill="rgb(0,69,134)" stroke="none" d="M 14806,8177 L 15387,8177 15387,7854 14806,7854 14806,8177 Z"/>
 <path fill="rgb(0,69,134)" stroke="none" d="M 13645,8177 L 14226,8177 14226,7850 13645,7850 13645,8177 Z"/>
 <path fill="rgb(0,69,134)" stroke="none" d="M 12484,8177 L 13064,8177 13064,8014 12484,8014 12484,8177 Z"/>
 <path fill="rgb(0,69,134)" stroke="none" d="M 11322,8177 L 11903,8177 11903,7845 11322,7845 11322,8177 Z"/>
 <path fill="rgb(0,69,134)" stroke="none" d="M 10161,8177 L 10742,8177 10742,8011 10161,8011 10161,8177 Z"/>
 <path fill="rgb(0,69,134)" stroke="none" d="M 9000,8177 L 9580,8177 9580,7847 9000,7847 9000,8177 Z"/>
 <path fill="rgb(0,69,134)" stroke="none" d="M 7839,8177 L 8419,8177 8419,7854 7839,7854 7839,8177 Z"/>
 <path fill="rgb(0,69,134)" stroke="none" d="M 6678,8177 L 7259,8177 7259,8014 6678,8014 6678,8177 Z"/>
 <path fill="rgb(0,69,134)" stroke="none" d="M 5517,8177 L 6097,8177 6097,8011 5517,8011 5517,8177 Z"/>
 <path fill="rgb(0,69,134)" stroke="none" d="M 4355,8177 L 4936,8177 4936,7850 4355,7850 4355,8177 Z"/>
 <path fill="rgb(0,69,134)" stroke="none" d="M 3194,8177 L 3775,8177 3775,7932 3194,7932 3194,8177 Z"/>
 <path fill="rgb(255,66,14)" stroke="none" d="M 14806,7854 L 15387,7854 15387,7127 14806,7127 14806,7854 Z"/>
 <path fill="rgb(255,66,14)" stroke="none" d="M 13645,7850 L 14226,7850 14226,7523 13645,7523 13645,7850 Z"/>
 <path fill="rgb(255,66,14)" stroke="none" d="M 12484,8014 L 13064,8014 13064,7769 12484,7769 12484,8014 Z"/>
 <path fill="rgb(255,66,14)" stroke="none" d="M 11322,7845 L 11903,7845 11903,7343 11322,7343 11322,7845 Z"/>
 <path fill="rgb(255,66,14)" stroke="none" d="M 10161,8011 L 10742,8011 10742,7845 10161,7845 10161,8011 Z"/>
 <path fill="rgb(255,66,14)" stroke="none" d="M 9000,7847 L 9580,7847 9580,7430 9000,7430 9000,7847 Z"/>
 <path fill="rgb(255,66,14)" stroke="none" d="M 7839,7854 L 8419,7854 8419,7371 7839,7371 7839,7854 Z"/>
 <path fill="rgb(255,66,14)" stroke="none" d="M 6678,8014 L 7259,8014 7259,7851 6678,7851 6678,8014 Z"/>
 <path fill="rgb(255,66,14)" stroke="none" d="M 5517,8011 L 6097,8011 6097,7763 5517,7763 5517,8011 Z"/>
 <path fill="rgb(255,66,14)" stroke="none" d="M 4355,7850 L 4936,7850 4936,7523 4355,7523 4355,7850 Z"/>
 <path fill="rgb(255,66,14)" stroke="none" d="M 3194,7932 L 3775,7932 3775,7441 3194,7441 3194,7932 Z"/>
 <path fill="rgb(255,211,32)" stroke="none" d="M 14806,7127 L 15387,7127 15387,2004 14806,2004 14806,7127 Z"/>
 <path fill="rgb(255,211,32)" stroke="none" d="M 13645,7523 L 14226,7523 14226,6059 13645,6059 13645,7523 Z"/>
 <path fill="rgb(255,211,32)" stroke="none" d="M 12484,7769 L 13064,7769 13064,7033 12484,7033 12484,7769 Z"/>
 <path fill="rgb(255,211,32)" stroke="none" d="M 11322,7343 L 11903,7343 11903,6356 11322,6356 11322,7343 Z"/>
 <path fill="rgb(255,211,32)" stroke="none" d="M 10161,7845 L 10742,7845 10742,7344 10161,7344 10161,7845 Z"/>
 <path fill="rgb(255,211,32)" stroke="none" d="M 9000,7430 L 9580,7430 9580,6178 9000,6178 9000,7430 Z"/>
 <path fill="rgb(255,211,32)" stroke="none" d="M 7839,7371 L 8419,7371 8419,6083 7839,6083 7839,7371 Z"/>
 <path fill="rgb(255,211,32)" stroke="none" d="M 6678,7851 L 7259,7851 7259,7199 6678,7199 6678,7851 Z"/>
 <path fill="rgb(255,211,32)" stroke="none" d="M 5517,7763 L 6097,7763 6097,6426 5517,6426 5517,7763 Z"/>
 <path fill="rgb(255,211,32)" stroke="none" d="M 4355,7523 L 4936,7523 4936,5805 4355,5805 4355,7523 Z"/>
 <path fill="rgb(255,211,32)" stroke="none" d="M 3194,7441 L 3775,7441 3775,6293 3194,6293 3194,7441 Z"/>
 <text class="TextShape"><tspan class="TextParagraph" font-family="Liberation Sans, sans-serif" font-size="353px" font-weight="400"><tspan class="TextPosition" x="3074" y="8745"><tspan fill="rgb(0,0,0)" stroke="none">DM 1</tspan></tspan></tspan></text>
 <text class="TextShape"><tspan class="TextParagraph" font-family="Liberation Sans, sans-serif" font-size="353px" font-weight="400"><tspan class="TextPosition" x="4236" y="8745"><tspan fill="rgb(0,0,0)" stroke="none">DM 2</tspan></tspan></tspan></text>
 <text class="TextShape"><tspan class="TextParagraph" font-family="Liberation Sans, sans-serif" font-size="353px" font-weight="400"><tspan class="TextPosition" x="5397" y="8745"><tspan fill="rgb(0,0,0)" stroke="none">DM 3</tspan></tspan></tspan></text>
 <text class="TextShape"><tspan class="TextParagraph" font-family="Liberation Sans, sans-serif" font-size="353px" font-weight="400"><tspan class="TextPosition" x="6558" y="8745"><tspan fill="rgb(0,0,0)" stroke="none">DM 4</tspan></tspan></tspan></text>
 <text class="TextShape"><tspan class="TextParagraph" font-family="Liberation Sans, sans-serif" font-size="353px" font-weight="400"><tspan class="TextPosition" x="7720" y="8745"><tspan fill="rgb(0,0,0)" stroke="none">DM 5</tspan></tspan></tspan></text>
 <text class="TextShape"><tspan class="TextParagraph" font-family="Liberation Sans, sans-serif" font-size="353px" font-weight="400"><tspan class="TextPosition" x="8881" y="8745"><tspan fill="rgb(0,0,0)" stroke="none">DM 6</tspan></tspan></tspan></text>
 <text class="TextShape"><tspan class="TextParagraph" font-family="Liberation Sans, sans-serif" font-size="353px" font-weight="400"><tspan class="TextPosition" x="10042" y="8745"><tspan fill="rgb(0,0,0)" stroke="none">DM 7</tspan></tspan></tspan></text>
 <text class="TextShape"><tspan class="TextParagraph" font-family="Liberation Sans, sans-serif" font-size="353px" font-weight="400"><tspan class="TextPosition" x="11204" y="8745"><tspan fill="rgb(0,0,0)" stroke="none">DM 8</tspan></tspan></tspan></text>
 <text class="TextShape"><tspan class="TextParagraph" font-family="Liberation Sans, sans-serif" font-size="353px" font-weight="400"><tspan class="TextPosition" x="12365" y="8745"><tspan fill="rgb(0,0,0)" stroke="none">DM 9</tspan></tspan></tspan></text>
 <text class="TextShape"><tspan class="TextParagraph" font-family="Liberation Sans, sans-serif" font-size="353px" font-weight="400"><tspan class="TextPosition" x="13433" y="8745"><tspan fill="rgb(0,0,0)" stroke="none">DM 10</tspan></tspan></tspan></text>
 <text class="TextShape"><tspan class="TextParagraph" font-family="Liberation Sans, sans-serif" font-size="353px" font-weight="400"><tspan class="TextPosition" x="14595" y="8745"><tspan fill="rgb(0,0,0)" stroke="none">DM 11</tspan></tspan></tspan></text>
 <text class="TextShape"><tspan class="TextParagraph" font-family="Liberation Sans, sans-serif" font-size="353px" font-weight="400"><tspan class="TextPosition" x="1993" y="8298"><tspan fill="rgb(0,0,0)" stroke="none">0.00</tspan></tspan></tspan></text>
 <text class="TextShape"><tspan class="TextParagraph" font-family="Liberation Sans, sans-serif" font-size="353px" font-weight="400"><tspan class="TextPosition" x="1622" y="7420"><tspan fill="rgb(0,0,0)" stroke="none">500.00</tspan></tspan></tspan></text>
 <text class="TextShape"><tspan class="TextParagraph" font-family="Liberation Sans, sans-serif" font-size="353px" font-weight="400"><tspan class="TextPosition" x="1331" y="6543"><tspan fill="rgb(0,0,0)" stroke="none">1,000.00</tspan></tspan></tspan></text>
 <text class="TextShape"><tspan class="TextParagraph" font-family="Liberation Sans, sans-serif" font-size="353px" font-weight="400"><tspan class="TextPosition" x="1331" y="5666"><tspan fill="rgb(0,0,0)" stroke="none">1,500.00</tspan></tspan></tspan></text>
 <text class="TextShape"><tspan class="TextParagraph" font-family="Liberation Sans, sans-serif" font-size="353px" font-weight="400"><tspan class="TextPosition" x="1331" y="4789"><tspan fill="rgb(0,0,0)" stroke="none">2,000.00</tspan></tspan></tspan></text>
 <text class="TextShape"><tspan class="TextParagraph" font-family="Liberation Sans, sans-serif" font-size="353px" font-weight="400"><tspan class="TextPosition" x="1331" y="3912"><tspan fill="rgb(0,0,0)" stroke="none">2,500.00</tspan></tspan></tspan></text>
 <text class="TextShape"><tspan class="TextParagraph" font-family="Liberation Sans, sans-serif" font-size="353px" font-weight="400"><tspan class="TextPosition" x="1331" y="3035"><tspan fill="rgb(0,0,0)" stroke="none">3,000.00</tspan></tspan></tspan></text>
 <text class="TextShape"><tspan class="TextParagraph" font-family="Liberation Sans, sans-serif" font-size="353px" font-weight="400"><tspan class="TextPosition" x="1331" y="2158"><tspan fill="rgb(0,0,0)" stroke="none">3,500.00</tspan></tspan></tspan></text>
 <text class="TextShape"><tspan class="TextParagraph" font-family="Liberation Sans, sans-serif" font-size="353px" font-weight="400"><tspan class="TextPosition" x="1331" y="1281"><tspan fill="rgb(0,0,0)" stroke="none">4,000.00</tspan></tspan></tspan></text>
 <path fill="rgb(0,69,134)" stroke="none" d="M 4108,589 L 4003,589 4003,378 4214,378 4214,589 4108,589 Z"/>
 <path fill="rgb(255,66,14)" stroke="none" d="M 6823,589 L 6718,589 6718,378 6929,378 6929,589 6823,589 Z"/>
 <path fill="rgb(255,211,32)" stroke="none" d="M 9617,589 L 9511,589 9511,378 9722,378 9722,589 9617,589 Z"/>
 <text class="TextShape"><tspan class="TextParagraph" font-family="Liberation Sans, sans-serif" font-size="353px" font-weight="400"><tspan class="TextPosition" x="4314" y="603"><tspan fill="rgb(0,0,0)" stroke="none">1st interaction</tspan></tspan></tspan></text>
 <text class="TextShape"><tspan class="TextParagraph" font-family="Liberation Sans, sans-serif" font-size="353px" font-weight="400"><tspan class="TextPosition" x="7029" y="603"><tspan fill="rgb(0,0,0)" stroke="none">2nd interaction</tspan></tspan></tspan></text>
 <text class="TextShape"><tspan class="TextParagraph" font-family="Liberation Sans, sans-serif" font-size="353px" font-weight="400"><tspan class="TextPosition" x="9822" y="603"><tspan fill="rgb(0,0,0)" stroke="none">3rd interaction</tspan></tspan></tspan></text>
 <text class="TextShape" transform="rotate(-90 837 6348)"><tspan class="TextParagraph" font-family="Liberation Sans, sans-serif" font-size="318px" font-weight="400"><tspan class="TextPosition" x="837" y="6348"><tspan fill="rgb(0,0,0)" stroke="none">number of instances</tspan></tspan></tspan></text>
</svg>