<?xml version="1.0" encoding="UTF-8"?>
<!DOCTYPE svg PUBLIC "-//W3C//DTD SVG 1.1//EN" "http://www.w3.org/Graphics/SVG/1.1/DTD/svg11.dtd">
<svg width="160mm" height="90mm" viewBox="0 0 16000 9000" version="1.1" xmlns="http://www.w3.org/2000/svg" xmlns:xlink="http://www.w3.org/1999/xlink" stroke-width="28.222" stroke-linejoin="round" xml:space="preserve">
 <path fill="rgb(255,255,255)" stroke="none" d="M 7998,8992 L 0,8992 0,0 15996,0 15996,8992 7998,8992 Z"/>
 <path fill="none" stroke="rgb(179,179,179)" stroke-linejoin="round" d="M 8907,8166 L 2137,8166 2137,1161 15677,1161 15677,8166 8907,8166 Z"/>
 <path fill="none" stroke="rgb(179,179,179)" stroke-linejoin="round" d="M 15677,8165 L 2137,8165"/>
 <path fill="none" stroke="rgb(179,179,179)" stroke-linejoin="round" d="M 15677,7464 L 2137,7464"/>
 <path fill="none" stroke="rgb(179,179,179)" stroke-linejoin="round" d="M 15677,6763 L 2137,6763"/>
 <path fill="none" stroke="rgb(179,179,179)" stroke-linejoin="round" d="M 15677,6063 L 2137,6063"/>
 <path fill="none" stroke="rgb(179,179,179)" stroke-linejoin="round" d="M 15677,5362 L 2137,5362"/>
 <path fill="none" stroke="rgb(179,179,179)" stroke-linejoin="round" d="M 15677,4662 L 2137,4662"/>
 <path fill="none" stroke="rgb(179,179,179)" stroke-linejoin="round" d="M 15677,3962 L 2137,3962"/>
 <path fill="none" stroke="rgb(179,179,179)" stroke-linejoin="round" d="M 15677,3261 L 2137,3261"/>
 <path fill="none" stroke="rgb(179,179,179)" stroke-linejoin="round" d="M 15677,2561 L 2137,2561"/>
 <path fill="none" stroke="rgb(179,179,179)" stroke-linejoin="round" d="M 15677,1860 L 2137,1860"/>
 <path fill="none" stroke="rgb(179,179,179)" stroke-linejoin="round" d="M 15677,1160 L 2137,1160"/>
 <path fill="none" stroke="rgb(179,179,179)" stroke-linejoin="round" d="M 2137,8315 L 2137,8165"/>
 <path fill="none" stroke="rgb(179,179,179)" stroke-linejoin="round" d="M 2137,8315 L 2137,8165"/>
 <path fill="none" stroke="rgb(179,179,179)" stroke-linejoin="round" d="M 3368,8315 L 3368,8165"/>
 <path fill="none" stroke="rgb(179,179,179)" stroke-linejoin="round" d="M 3368,8315 L 3368,8165"/>
 <path fill="none" stroke="rgb(179,179,179)" stroke-linejoin="round" d="M 4599,8315 L 4599,8165"/>
 <path fill="none" stroke="rgb(179,179,179)" stroke-linejoin="round" d="M 4599,8315 L 4599,8165"/>
 <path fill="none" stroke="rgb(179,179,179)" stroke-linejoin="round" d="M 5830,8315 L 5830,8165"/>
 <path fill="none" stroke="rgb(179,179,179)" stroke-linejoin="round" d="M 5830,8315 L 5830,8165"/>
 <path fill="none" stroke="rgb(179,179,179)" stroke-linejoin="round" d="M 7061,8315 L 7061,8165"/>
 <path fill="none" stroke="rgb(179,179,179)" stroke-linejoin="round" d="M 7061,8315 L 7061,8165"/>
 <path fill="none" stroke="rgb(179,179,179)" stroke-linejoin="round" d="M 8291,8315 L 8291,8165"/>
 <path fill="none" stroke="rgb(179,179,179)" stroke-linejoin="round" d="M 8291,8315 L 8291,8165"/>
 <path fill="none" stroke="rgb(179,179,179)" stroke-linejoin="round" d="M 9522,8315 L 9522,8165"/>
 <path fill="none" stroke="rgb(179,179,179)" stroke-linejoin="round" d="M 9522,8315 L 9522,8165"/>
 <path fill="none" stroke="rgb(179,179,179)" stroke-linejoin="round" d="M 10753,8315 L 10753,8165"/>
 <path fill="none" stroke="rgb(179,179,179)" stroke-linejoin="round" d="M 10753,8315 L 10753,8165"/>
 <path fill="none" stroke="rgb(179,179,179)" stroke-linejoin="round" d="M 11984,8315 L 11984,8165"/>
 <path fill="none" stroke="rgb(179,179,179)" stroke-linejoin="round" d="M 11984,8315 L 11984,8165"/>
 <path fill="none" stroke="rgb(179,179,179)" stroke-linejoin="round" d="M 13215,8315 L 13215,8165"/>
 <path fill="none" stroke="rgb(179,179,179)" stroke-linejoin="round" d="M 13215,8315 L 13215,8165"/>
 <path fill="none" stroke="rgb(179,179,179)" stroke-linejoin="round" d="M 14446,8315 L 14446,8165"/>
 <path fill="none" stroke="rgb(179,179,179)" stroke-linejoin="round" d="M 14446,8315 L 14446,8165"/>
 <path fill="none" stroke="rgb(179,179,179)" stroke-linejoin="round" d="M 15677,8315 L 15677,8165"/>
 <path fill="none" stroke="rgb(179,179,179)" stroke-linejoin="round" d="M 15677,8315 L 15677,8165"/>
 <path fill="none" stroke="rgb(179,179,179)" stroke-linejoin="round" d="M 2137,8165 L 15677,8165"/>
 <path fill="none" stroke="rgb(179,179,179)" stroke-linejoin="round" d="M 1987,8165 L 2137,8165"/>
 <path fill="none" stroke="rgb(179,179,179)" stroke-linejoin="round" d="M 1987,8165 L 2137,8165"/>
 <path fill="none" stroke="rgb(179,179,179)" stroke-linejoin="round" d="M 1987,7464 L 2137,7464"/>
 <path fill="none" stroke="rgb(179,179,179)" stroke-linejoin="round" d="M 1987,7464 L 2137,7464"/>
 <path fill="none" stroke="rgb(179,179,179)" stroke-linejoin="round" d="M 1987,6763 L 2137,6763"/>
 <path fill="none" stroke="rgb(179,179,179)" stroke-linejoin="round" d="M 1987,6763 L 2137,6763"/>
 <path fill="none" stroke="rgb(179,179,179)" stroke-linejoin="round" d="M 1987,6063 L 2137,6063"/>
 <path fill="none" stroke="rgb(179,179,179)" stroke-linejoin="round" d="M 1987,6063 L 2137,6063"/>
 <path fill="none" stroke="rgb(179,179,179)" stroke-linejoin="round" d="M 1987,5362 L 2137,5362"/>
 <path fill="none" stroke="rgb(179,179,179)" stroke-linejoin="round" d="M 1987,5362 L 2137,5362"/>
 <path fill="none" stroke="rgb(179,179,179)" stroke-linejoin="round" d="M 1987,4662 L 2137,4662"/>
 <path fill="none" stroke="rgb(179,179,179)" stroke-linejoin="round" d="M 1987,4662 L 2137,4662"/>
 <path fill="none" stroke="rgb(179,179,179)" stroke-linejoin="round" d="M 1987,3962 L 2137,3962"/>
 <path fill="none" stroke="rgb(179,179,179)" stroke-linejoin="round" d="M 1987,3962 L 2137,3962"/>
 <path fill="none" stroke="rgb(179,179,179)" stroke-linejoin="round" d="M 1987,3261 L 2137,3261"/>
 <path fill="none" stroke="rgb(179,179,179)" stroke-linejoin="round" d="M 1987,3261 L 2137,3261"/>
 <path fill="none" stroke="rgb(179,179,179)" stroke-linejoin="round" d="M 1987,2561 L 2137,2561"/>
 <path fill="none" stroke="rgb(179,179,179)" stroke-linejoin="round" d="M 1987,2561 L 2137,2561"/>
 <path fill="none" stroke="rgb(179,179,179)" stroke-linejoin="round" d="M 1987,1860 L 2137,1860"/>
 <path fill="none" stroke="rgb(179,179,179)" stroke-linejoin="round" d="M 1987,1860 L 2137,1860"/>
 <path fill="none" stroke="rgb(179,179,179)" stroke-linejoin="round" d="M 1987,1160 L 2137,1160"/>
 <path fill="none" stroke="rgb(179,179,179)" stroke-linejoin="round" d="M 1987,1160 L 2137,1160"/>
 <path fill="none" stroke="rgb(179,179,179)" stroke-linejoin="round" d="M 2137,8165 L 2137,1160"/>
 <path fill="rgb(0,69,134)" stroke="none" d="M 14599,8165 L 14907,8165 14907,4879 14599,4879 14599,8165 Z"/>
 <path fill="rgb(0,69,134)" stroke="none" d="M 13368,8165 L 13676,8165 13676,1843 13368,1843 13368,8165 Z"/>
 <path fill="rgb(0,69,134)" stroke="none" d="M 12137,8165 L 12445,8165 12445,2116 12137,2116 12137,8165 Z"/>
 <path fill="rgb(0,69,134)" stroke="none" d="M 10906,8165 L 11214,8165 11214,2494 10906,2494 10906,8165 Z"/>
 <path fill="rgb(0,69,134)" stroke="none" d="M 9675,8165 L 9983,8165 9983,4042 9675,4042 9675,8165 Z"/>
 <path fill="rgb(0,69,134)" stroke="none" d="M 8444,8165 L 8752,8165 8752,5782 8444,5782 8444,8165 Z"/>
 <path fill="rgb(0,69,134)" stroke="none" d="M 7214,8165 L 7522,8165 7522,7194 7214,7194 7214,8165 Z"/>
 <path fill="rgb(0,69,134)" stroke="none" d="M 4752,8165 L 5060,8165 5060,6501 4752,6501 4752,8165 Z"/>
 <path fill="rgb(0,69,134)" stroke="none" d="M 3521,8165 L 3829,8165 3829,6613 3521,6613 3521,8165 Z"/>
 <path fill="rgb(0,69,134)" stroke="none" d="M 2290,8165 L 2598,8165 2598,3559 2290,3559 2290,8165 Z"/>
 <path fill="rgb(255,66,14)" stroke="none" d="M 14907,8165 L 15215,8165 15215,2639 14907,2639 14907,8165 Z"/>
 <path fill="rgb(255,66,14)" stroke="none" d="M 13676,8165 L 13984,8165 13984,2928 13676,2928 13676,8165 Z"/>
 <path fill="rgb(255,66,14)" stroke="none" d="M 12445,8165 L 12753,8165 12753,2176 12445,2176 12445,8165 Z"/>
 <path fill="rgb(255,66,14)" stroke="none" d="M 11214,8165 L 11522,8165 11522,2911 11214,2911 11214,8165 Z"/>
 <path fill="rgb(255,66,14)" stroke="none" d="M 9983,8165 L 10291,8165 10291,3652 9983,3652 9983,8165 Z"/>
 <path fill="rgb(255,66,14)" stroke="none" d="M 8752,8165 L 9060,8165 9060,3110 8752,3110 8752,8165 Z"/>
 <path fill="rgb(255,66,14)" stroke="none" d="M 7522,8165 L 7830,8165 7830,3958 7522,3958 7522,8165 Z"/>
 <path fill="rgb(255,66,14)" stroke="none" d="M 6291,8165 L 6599,8165 6599,6538 6291,6538 6291,8165 Z"/>
 <path fill="rgb(255,66,14)" stroke="none" d="M 5060,8165 L 5368,8165 5368,2608 5060,2608 5060,8165 Z"/>
 <path fill="rgb(255,66,14)" stroke="none" d="M 3829,8165 L 4137,8165 4137,3532 3829,3532 3829,8165 Z"/>
 <path fill="rgb(255,66,14)" stroke="none" d="M 2598,8165 L 2906,8165 2906,2828 2598,2828 2598,8165 Z"/>
 <path fill="rgb(255,211,32)" stroke="none" d="M 15215,8165 L 15523,8165 15523,1955 15215,1955 15215,8165 Z"/>
 <path fill="rgb(255,211,32)" stroke="none" d="M 13984,8165 L 14292,8165 14292,2249 13984,2249 13984,8165 Z"/>
 <path fill="rgb(255,211,32)" stroke="none" d="M 12753,8165 L 13061,8165 13061,1482 12753,1482 12753,8165 Z"/>
 <path fill="rgb(255,211,32)" stroke="none" d="M 11522,8165 L 11830,8165 11830,2231 11522,2231 11522,8165 Z"/>
 <path fill="rgb(255,211,32)" stroke="none" d="M 10291,8165 L 10599,8165 10599,2988 10291,2988 10291,8165 Z"/>
 <path fill="rgb(255,211,32)" stroke="none" d="M 9060,8165 L 9368,8165 9368,2435 9060,2435 9060,8165 Z"/>
 <path fill="rgb(255,211,32)" stroke="none" d="M 7830,8165 L 8137,8165 8137,3300 7830,3300 7830,8165 Z"/>
 <path fill="rgb(255,211,32)" stroke="none" d="M 6599,8165 L 6907,8165 6907,5933 6599,5933 6599,8165 Z"/>
 <path fill="rgb(255,211,32)" stroke="none" d="M 5368,8165 L 5676,8165 5676,1923 5368,1923 5368,8165 Z"/>
 <path fill="rgb(255,211,32)" stroke="none" d="M 4137,8165 L 4445,8165 4445,2865 4137,2865 4137,8165 Z"/>
 <path fill="rgb(255,211,32)" stroke="none" d="M 2906,8165 L 3214,8165 3214,2147 2906,2147 2906,8165 Z"/>
 <text class="TextShape"><tspan class="TextParagraph" font-family="Liberation Sans, sans-serif" font-size="353px" font-weight="400"><tspan class="TextPosition" x="2342" y="8733"><tspan fill="rgb(0,0,0)" stroke="none">DM 1</tspan></tspan></tspan></text>
 <text class="TextShape"><tspan class="TextParagraph" font-family="Liberation Sans, sans-serif" font-size="353px" font-weight="400"><tspan class="TextPosition" x="3573" y="8733"><tspan fill="rgb(0,0,0)" stroke="none">DM 2</tspan></tspan></tspan></text>
 <text class="TextShape"><tspan class="TextParagraph" font-family="Liberation Sans, sans-serif" font-size="353px" font-weight="400"><tspan class="TextPosition" x="4804" y="8733"><tspan fill="rgb(0,0,0)" stroke="none">DM 3</tspan></tspan></tspan></text>
 <text class="TextShape"><tspan class="TextParagraph" font-family="Liberation Sans, sans-serif" font-size="353px" font-weight="400"><tspan class="TextPosition" x="6035" y="8733"><tspan fill="rgb(0,0,0)" stroke="none">DM 4</tspan></tspan></tspan></text>
 <text class="TextShape"><tspan class="TextParagraph" font-family="Liberation Sans, sans-serif" font-size="353px" font-weight="400"><tspan class="TextPosition" x="7266" y="8733"><tspan fill="rgb(0,0,0)" stroke="none">DM 5</tspan></tspan></tspan></text>
 <text class="TextShape"><tspan class="TextParagraph" font-family="Liberation Sans, sans-serif" font-size="353px" font-weight="400"><tspan class="TextPosition" x="8497" y="8733"><tspan fill="rgb(0,0,0)" stroke="none">DM 6</tspan></tspan></tspan></text>
 <text class="TextShape"><tspan class="TextParagraph" font-family="Liberation Sans, sans-serif" font-size="353px" font-weight="400"><tspan class="TextPosition" x="9728" y="8733"><tspan fill="rgb(0,0,0)" stroke="none">DM 7</tspan></tspan></tspan></text>
 <text class="TextShape"><tspan class="TextParagraph" font-family="Liberation Sans, sans-serif" font-size="353px" font-weight="400"><tspan class="TextPosition" x="10959" y="8733"><tspan fill="rgb(0,0,0)" stroke="none">DM 8</tspan></tspan></tspan></text>
 <text class="TextShape"><tspan class="TextParagraph" font-family="Liberation Sans, sans-serif" font-size="353px" font-weight="400"><tspan class="TextPosition" x="12190" y="8733"><tspan fill="rgb(0,0,0)" stroke="none">DM 9</tspan></tspan></tspan></text>
 <text class="TextShape"><tspan class="TextParagraph" font-family="Liberation Sans, sans-serif" font-size="353px" font-weight="400"><tspan class="TextPosition" x="13328" y="8733"><tspan fill="rgb(0,0,0)" stroke="none">DM 10</tspan></tspan></tspan></text>
 <text class="TextShape"><tspan class="TextParagraph" font-family="Liberation Sans, sans-serif" font-size="353px" font-weight="400"><tspan class="TextPosition" x="14559" y="8733"><tspan fill="rgb(0,0,0)" stroke="none">DM 11</tspan></tspan></tspan></text>
 <text class="TextShape"><tspan class="TextParagraph" font-family="Liberation Sans, sans-serif" font-size="353px" font-weight="400"><tspan class="TextPosition" x="1517" y="8286"><tspan fill="rgb(0,0,0)" stroke="none">80</tspan></tspan></tspan></text>
 <text class="TextShape"><tspan class="TextParagraph" font-family="Liberation Sans, sans-serif" font-size="353px" font-weight="400"><tspan class="TextPosition" x="1517" y="7585"><tspan fill="rgb(0,0,0)" stroke="none">82</tspan></tspan></tspan></text>
 <text class="TextShape"><tspan class="TextParagraph" font-family="Liberation Sans, sans-serif" font-size="353px" font-weight="400"><tspan class="TextPosition" x="1517" y="6884"><tspan fill="rgb(0,0,0)" stroke="none">84</tspan></tspan></tspan></text>
 <text class="TextShape"><tspan class="TextParagraph" font-family="Liberation Sans, sans-serif" font-size="353px" font-weight="400"><tspan class="TextPosition" x="1517" y="6184"><tspan fill="rgb(0,0,0)" stroke="none">86</tspan></tspan></tspan></text>
 <text class="TextShape"><tspan class="TextParagraph" font-family="Liberation Sans, sans-serif" font-size="353px" font-weight="400"><tspan class="TextPosition" x="1517" y="5483"><tspan fill="rgb(0,0,0)" stroke="none">88</tspan></tspan></tspan></text>
 <text class="TextShape"><tspan class="TextParagraph" font-family="Liberation Sans, sans-serif" font-size="353px" font-weight="400"><tspan class="TextPosition" x="1517" y="4783"><tspan fill="rgb(0,0,0)" stroke="none">90</tspan></tspan></tspan></text>
 <text class="TextShape"><tspan class="TextParagraph" font-family="Liberation Sans, sans-serif" font-size="353px" font-weight="400"><tspan class="TextPosition" x="1517" y="4082"><tspan fill="rgb(0,0,0)" stroke="none">92</tspan></tspan></tspan></text>
 <text class="TextShape"><tspan class="TextParagraph" font-family="Liberation Sans, sans-serif" font-size="353px" font-weight="400"><tspan class="TextPosition" x="1517" y="3381"><tspan fill="rgb(0,0,0)" stroke="none">94</tspan></tspan></tspan></text>
 <text class="TextShape"><tspan class="TextParagraph" font-family="Liberation Sans, sans-serif" font-size="353px" font-weight="400"><tspan class="TextPosition" x="1517" y="2681"><tspan fill="rgb(0,0,0)" stroke="none">96</tspan></tspan></tspan></text>
 <text class="TextShape"><tspan class="TextParagraph" font-family="Liberation Sans, sans-serif" font-size="353px" font-weight="400"><tspan class="TextPosition" x="1517" y="1980"><tspan fill="rgb(0,0,0)" stroke="none">98</tspan></tspan></tspan></text>
 <text class="TextShape"><tspan class="TextParagraph" font-family="Liberation Sans, sans-serif" font-size="353px" font-weight="400"><tspan class="TextPosition" x="1331" y="1280"><tspan fill="rgb(0,0,0)" stroke="none">100</tspan></tspan></tspan></text>
 <path fill="rgb(0,69,134)" stroke="none" d="M 4107,589 L 4002,589 4002,378 4213,378 4213,589 4107,589 Z"/>
 <path fill="rgb(255,66,14)" stroke="none" d="M 6822,589 L 6717,589 6717,378 6928,378 6928,589 6822,589 Z"/>
 <path fill="rgb(255,211,32)" stroke="none" d="M 9616,589 L 9510,589 9510,378 9721,378 9721,589 9616,589 Z"/>
 <text class="TextShape"><tspan class="TextParagraph" font-family="Liberation Sans, sans-serif" font-size="353px" font-weight="400"><tspan class="TextPosition" x="4313" y="603"><tspan fill="rgb(0,0,0)" stroke="none">1st interaction</tspan></tspan></tspan></text>
 <text class="TextShape"><tspan class="TextParagraph" font-family="Liberation Sans, sans-serif" font-size="353px" font-weight="400"><tspan class="TextPosition" x="7028" y="603"><tspan fill="rgb(0,0,0)" stroke="none">2nd interaction</tspan></tspan></tspan></text>
 <text class="TextShape"><tspan class="TextParagraph" font-family="Liberation Sans, sans-serif" font-size="353px" font-weight="400"><tspan class="TextPosition" x="9821" y="603"><tspan fill="rgb(0,0,0)" stroke="none">3rd interaction</tspan></tspan></tspan></text>
 <text class="TextShape" transform="rotate(-90 837 7295)"><tspan class="TextParagraph" font-family="Liberation Sans, sans-serif" font-size="318px" font-weight="400"><tspan class="TextPosition" x="837" y="7295"><tspan fill="rgb(0,0,0)" stroke="none">% of correctly classified instances</tspan></tspan></tspan></text>
</svg>