<?xml version="1.0" encoding="UTF-8"?>
<!DOCTYPE svg PUBLIC "-//W3C//DTD SVG 1.1//EN" "http://www.w3.org/Graphics/SVG/1.1/DTD/svg11.dtd">
<svg width="160mm" height="90mm" viewBox="0 0 16000 9000" version="1.1" xmlns="http://www.w3.org/2000/svg" xmlns:xlink="http://www.w3.org/1999/xlink" stroke-width="28.222" stroke-linejoin="round" xml:space="preserve">
 <path fill="rgb(255,255,255)" stroke="none" d="M 7998,8992 L 0,8992 0,0 15996,0 15996,8992 7998,8992 Z"/>
 <path fill="none" stroke="rgb(179,179,179)" stroke-linejoin="round" d="M 8907,8166 L 2137,8166 2137,1161 15677,1161 15677,8166 8907,8166 Z"/>
 <path fill="none" stroke="rgb(179,179,179)" stroke-linejoin="round" d="M 15677,8165 L 2137,8165"/>
 <path fill="none" stroke="rgb(179,179,179)" stroke-linejoin="round" d="M 15677,7164 L 2137,7164"/>
 <path fill="none" stroke="rgb(179,179,179)" stroke-linejoin="round" d="M 15677,6163 L 2137,6163"/>
 <path fill="none" stroke="rgb(179,179,179)" stroke-linejoin="round" d="M 15677,5162 L 2137,5162"/>
 <path fill="none" stroke="rgb(179,179,179)" stroke-linejoin="round" d="M 15677,4162 L 2137,4162"/>
 <path fill="none" stroke="rgb(179,179,179)" stroke-linejoin="round" d="M 15677,3161 L 2137,3161"/>
 <path fill="none" stroke="rgb(179,179,179)" stroke-linejoin="round" d="M 15677,2160 L 2137,2160"/>
 <path fill="none" stroke="rgb(179,179,179)" stroke-linejoin="round" d="M 15677,1160 L 2137,1160"/>
 <path fill="none" stroke="rgb(179,179,179)" stroke-linejoin="round" d="M 2137,8315 L 2137,8165"/>
 <path fill="none" stroke="rgb(179,179,179)" stroke-linejoin="round" d="M 2137,8315 L 2137,8165"/>
 <path fill="none" stroke="rgb(179,179,179)" stroke-linejoin="round" d="M 3368,8315 L 3368,8165"/>
 <path fill="none" stroke="rgb(179,179,179)" stroke-linejoin="round" d="M 3368,8315 L 3368,8165"/>
 <path fill="none" stroke="rgb(179,179,179)" stroke-linejoin="round" d="M 4599,8315 L 4599,8165"/>
 <path fill="none" stroke="rgb(179,179,179)" stroke-linejoin="round" d="M 4599,8315 L 4599,8165"/>
 <path fill="none" stroke="rgb(179,179,179)" stroke-linejoin="round" d="M 5830,8315 L 5830,8165"/>
 <path fill="none" stroke="rgb(179,179,179)" stroke-linejoin="round" d="M 5830,8315 L 5830,8165"/>
 <path fill="none" stroke="rgb(179,179,179)" stroke-linejoin="round" d="M 7061,8315 L 7061,8165"/>
 <path fill="none" stroke="rgb(179,179,179)" stroke-linejoin="round" d="M 7061,8315 L 7061,8165"/>
 <path fill="none" stroke="rgb(179,179,179)" stroke-linejoin="round" d="M 8291,8315 L 8291,8165"/>
 <path fill="none" stroke="rgb(179,179,179)" stroke-linejoin="round" d="M 8291,8315 L 8291,8165"/>
 <path fill="none" stroke="rgb(179,179,179)" stroke-linejoin="round" d="M 9522,8315 L 9522,8165"/>
 <path fill="none" stroke="rgb(179,179,179)" stroke-linejoin="round" d="M 9522,8315 L 9522,8165"/>
 <path fill="none" stroke="rgb(179,179,179)" stroke-linejoin="round" d="M 10753,8315 L 10753,8165"/>
 <path fill="none" stroke="rgb(179,179,179)" stroke-linejoin="round" d="M 10753,8315 L 10753,8165"/>
 <path fill="none" stroke="rgb(179,179,179)" stroke-linejoin="round" d="M 11984,8315 L 11984,8165"/>
 <path fill="none" stroke="rgb(179,179,179)" stroke-linejoin="round" d="M 11984,8315 L 11984,8165"/>
 <path fill="none" stroke="rgb(179,179,179)" stroke-linejoin="round" d="M 13215,8315 L 13215,8165"/>
 <path fill="none" stroke="rgb(179,179,179)" stroke-linejoin="round" d="M 13215,8315 L 13215,8165"/>
 <path fill="none" stroke="rgb(179,179,179)" stroke-linejoin="round" d="M 14446,8315 L 14446,8165"/>
 <path fill="none" stroke="rgb(179,179,179)" stroke-linejoin="round" d="M 14446,8315 L 14446,8165"/>
 <path fill="none" stroke="rgb(179,179,179)" stroke-linejoin="round" d="M 15677,8315 L 15677,8165"/>
 <path fill="none" stroke="rgb(179,179,179)" stroke-linejoin="round" d="M 15677,8315 L 15677,8165"/>
 <path fill="none" stroke="rgb(179,179,179)" stroke-linejoin="round" d="M 2137,8165 L 15677,8165"/>
 <path fill="none" stroke="rgb(179,179,179)" stroke-linejoin="round" d="M 1987,8165 L 2137,8165"/>
 <path fill="none" stroke="rgb(179,179,179)" stroke-linejoin="round" d="M 1987,8165 L 2137,8165"/>
 <path fill="none" stroke="rgb(179,179,179)" stroke-linejoin="round" d="M 1987,7164 L 2137,7164"/>
 <path fill="none" stroke="rgb(179,179,179)" stroke-linejoin="round" d="M 1987,7164 L 2137,7164"/>
 <path fill="none" stroke="rgb(179,179,179)" stroke-linejoin="round" d="M 1987,6163 L 2137,6163"/>
 <path fill="none" stroke="rgb(179,179,179)" stroke-linejoin="round" d="M 1987,6163 L 2137,6163"/>
 <path fill="none" stroke="rgb(179,179,179)" stroke-linejoin="round" d="M 1987,5162 L 2137,5162"/>
 <path fill="none" stroke="rgb(179,179,179)" stroke-linejoin="round" d="M 1987,5162 L 2137,5162"/>
 <path fill="none" stroke="rgb(179,179,179)" stroke-linejoin="round" d="M 1987,4162 L 2137,4162"/>
 <path fill="none" stroke="rgb(179,179,179)" stroke-linejoin="round" d="M 1987,4162 L 2137,4162"/>
 <path fill="none" stroke="rgb(179,179,179)" stroke-linejoin="round" d="M 1987,3161 L 2137,3161"/>
 <path fill="none" stroke="rgb(179,179,179)" stroke-linejoin="round" d="M 1987,3161 L 2137,3161"/>
 <path fill="none" stroke="rgb(179,179,179)" stroke-linejoin="round" d="M 1987,2160 L 2137,2160"/>
 <path fill="none" stroke="rgb(179,179,179)" stroke-linejoin="round" d="M 1987,2160 L 2137,2160"/>
 <path fill="none" stroke="rgb(179,179,179)" stroke-linejoin="round" d="M 1987,1160 L 2137,1160"/>
 <path fill="none" stroke="rgb(179,179,179)" stroke-linejoin="round" d="M 1987,1160 L 2137,1160"/>
 <path fill="none" stroke="rgb(179,179,179)" stroke-linejoin="round" d="M 2137,8165 L 2137,1160"/>
 <path fill="rgb(0,69,134)" stroke="none" d="M 14599,8165 L 14907,8165 14907,2866 14599,2866 14599,8165 Z"/>
 <path fill="rgb(0,69,134)" stroke="none" d="M 13368,8165 L 13676,8165 13676,6129 13368,6129 13368,8165 Z"/>
 <path fill="rgb(0,69,134)" stroke="none" d="M 12137,8165 L 12445,8165 12445,6622 12137,6622 12137,8165 Z"/>
 <path fill="rgb(0,69,134)" stroke="none" d="M 10906,8165 L 11214,8165 11214,4580 10906,4580 10906,8165 Z"/>
 <path fill="rgb(0,69,134)" stroke="none" d="M 9675,8165 L 9983,8165 9983,4496 9675,4496 9675,8165 Z"/>
 <path fill="rgb(0,69,134)" stroke="none" d="M 8444,8165 L 8752,8165 8752,2903 8444,2903 8444,8165 Z"/>
 <path fill="rgb(0,69,134)" stroke="none" d="M 7214,8165 L 7522,8165 7522,2662 7214,2662 7214,8165 Z"/>
 <path fill="rgb(0,69,134)" stroke="none" d="M 5983,8165 L 6291,8165 6291,2151 5983,2151 5983,8165 Z"/>
 <path fill="rgb(0,69,134)" stroke="none" d="M 4752,8165 L 5060,8165 5060,2896 4752,2896 4752,8165 Z"/>
 <path fill="rgb(0,69,134)" stroke="none" d="M 3521,8165 L 3829,8165 3829,2653 3521,2653 3521,8165 Z"/>
 <path fill="rgb(0,69,134)" stroke="none" d="M 2290,8165 L 2598,8165 2598,3510 2290,3510 2290,8165 Z"/>
 <path fill="rgb(255,66,14)" stroke="none" d="M 14907,8165 L 15215,8165 15215,2867 14907,2867 14907,8165 Z"/>
 <path fill="rgb(255,66,14)" stroke="none" d="M 13676,8165 L 13984,8165 13984,4114 13676,4114 13676,8165 Z"/>
 <path fill="rgb(255,66,14)" stroke="none" d="M 12445,8165 L 12753,8165 12753,4595 12445,4595 12445,8165 Z"/>
 <path fill="rgb(255,66,14)" stroke="none" d="M 11214,8165 L 11522,8165 11522,3097 11214,3097 11214,8165 Z"/>
 <path fill="rgb(255,66,14)" stroke="none" d="M 9983,8165 L 10291,8165 10291,3016 9983,3016 9983,8165 Z"/>
 <path fill="rgb(255,66,14)" stroke="none" d="M 8752,8165 L 9060,8165 9060,2920 8752,2920 8752,8165 Z"/>
 <path fill="rgb(255,66,14)" stroke="none" d="M 7522,8165 L 7830,8165 7830,2626 7522,2626 7522,8165 Z"/>
 <path fill="rgb(255,66,14)" stroke="none" d="M 6291,8165 L 6599,8165 6599,2144 6291,2144 6291,8165 Z"/>
 <path fill="rgb(255,66,14)" stroke="none" d="M 5060,8165 L 5368,8165 5368,2839 5060,2839 5060,8165 Z"/>
 <path fill="rgb(255,66,14)" stroke="none" d="M 3829,8165 L 4137,8165 4137,2646 3829,2646 3829,8165 Z"/>
 <path fill="rgb(255,66,14)" stroke="none" d="M 2598,8165 L 2906,8165 2906,3016 2598,3016 2598,8165 Z"/>
 <path fill="rgb(255,211,32)" stroke="none" d="M 15215,8165 L 15523,8165 15523,2894 15215,2894 15215,8165 Z"/>
 <path fill="rgb(255,211,32)" stroke="none" d="M 13984,8165 L 14292,8165 14292,3005 13984,3005 13984,8165 Z"/>
 <path fill="rgb(255,211,32)" stroke="none" d="M 12753,8165 L 13061,8165 13061,3110 12753,3110 12753,8165 Z"/>
 <path fill="rgb(255,211,32)" stroke="none" d="M 11522,8165 L 11830,8165 11830,3086 11522,3086 11522,8165 Z"/>
 <path fill="rgb(255,211,32)" stroke="none" d="M 10291,8165 L 10599,8165 10599,3001 10291,3001 10291,8165 Z"/>
 <path fill="rgb(255,211,32)" stroke="none" d="M 9060,8165 L 9368,8165 9368,2949 9060,2949 9060,8165 Z"/>
 <path fill="rgb(255,211,32)" stroke="none" d="M 7830,8165 L 8137,8165 8137,2603 7830,2603 7830,8165 Z"/>
 <path fill="rgb(255,211,32)" stroke="none" d="M 6599,8165 L 6907,8165 6907,1941 6599,1941 6599,8165 Z"/>
 <path fill="rgb(255,211,32)" stroke="none" d="M 5368,8165 L 5676,8165 5676,2762 5368,2762 5368,8165 Z"/>
 <path fill="rgb(255,211,32)" stroke="none" d="M 4137,8165 L 4445,8165 4445,2753 4137,2753 4137,8165 Z"/>
 <path fill="rgb(255,211,32)" stroke="none" d="M 2906,8165 L 3214,8165 3214,3013 2906,3013 2906,8165 Z"/>
 <text class="TextShape"><tspan class="TextParagraph" font-family="Liberation Sans, sans-serif" font-size="353px" font-weight="400"><tspan class="TextPosition" x="2342" y="8733"><tspan fill="rgb(0,0,0)" stroke="none">DM 1</tspan></tspan></tspan></text>
 <text class="TextShape"><tspan class="TextParagraph" font-family="Liberation Sans, sans-serif" font-size="353px" font-weight="400"><tspan class="TextPosition" x="3573" y="8733"><tspan fill="rgb(0,0,0)" stroke="none">DM 2</tspan></tspan></tspan></text>
 <text class="TextShape"><tspan class="TextParagraph" font-family="Liberation Sans, sans-serif" font-size="353px" font-weight="400"><tspan class="TextPosition" x="4804" y="8733"><tspan fill="rgb(0,0,0)" stroke="none">DM 3</tspan></tspan></tspan></text>
 <text class="TextShape"><tspan class="TextParagraph" font-family="Liberation Sans, sans-serif" font-size="353px" font-weight="400"><tspan class="TextPosition" x="6035" y="8733"><tspan fill="rgb(0,0,0)" stroke="none">DM 4</tspan></tspan></tspan></text>
 <text class="TextShape"><tspan class="TextParagraph" font-family="Liberation Sans, sans-serif" font-size="353px" font-weight="400"><tspan class="TextPosition" x="7266" y="8733"><tspan fill="rgb(0,0,0)" stroke="none">DM 5</tspan></tspan></tspan></text>
 <text class="TextShape"><tspan class="TextParagraph" font-family="Liberation Sans, sans-serif" font-size="353px" font-weight="400"><tspan class="TextPosition" x="8497" y="8733"><tspan fill="rgb(0,0,0)" stroke="none">DM 6</tspan></tspan></tspan></text>
 <text class="TextShape"><tspan class="TextParagraph" font-family="Liberation Sans, sans-serif" font-size="353px" font-weight="400"><tspan class="TextPosition" x="9728" y="8733"><tspan fill="rgb(0,0,0)" stroke="none">DM 7</tspan></tspan></tspan></text>
 <text class="TextShape"><tspan class="TextParagraph" font-family="Liberation Sans, sans-serif" font-size="353px" font-weight="400"><tspan class="TextPosition" x="10959" y="8733"><tspan fill="rgb(0,0,0)" stroke="none">DM 8</tspan></tspan></tspan></text>
 <text class="TextShape"><tspan class="TextParagraph" font-family="Liberation Sans, sans-serif" font-size="353px" font-weight="400"><tspan class="TextPosition" x="12190" y="8733"><tspan fill="rgb(0,0,0)" stroke="none">DM 9</tspan></tspan></tspan></text>
 <text class="TextShape"><tspan class="TextParagraph" font-family="Liberation Sans, sans-serif" font-size="353px" font-weight="400"><tspan class="TextPosition" x="13328" y="8733"><tspan fill="rgb(0,0,0)" stroke="none">DM 10</tspan></tspan></tspan></text>
 <text class="TextShape"><tspan class="TextParagraph" font-family="Liberation Sans, sans-serif" font-size="353px" font-weight="400"><tspan class="TextPosition" x="14559" y="8733"><tspan fill="rgb(0,0,0)" stroke="none">DM 11</tspan></tspan></tspan></text>
 <text class="TextShape"><tspan class="TextParagraph" font-family="Liberation Sans, sans-serif" font-size="353px" font-weight="400"><tspan class="TextPosition" x="1702" y="8286"><tspan fill="rgb(0,0,0)" stroke="none">0</tspan></tspan></tspan></text>
 <text class="TextShape"><tspan class="TextParagraph" font-family="Liberation Sans, sans-serif" font-size="353px" font-weight="400"><tspan class="TextPosition" x="1517" y="7285"><tspan fill="rgb(0,0,0)" stroke="none">20</tspan></tspan></tspan></text>
 <text class="TextShape"><tspan class="TextParagraph" font-family="Liberation Sans, sans-serif" font-size="353px" font-weight="400"><tspan class="TextPosition" x="1517" y="6284"><tspan fill="rgb(0,0,0)" stroke="none">40</tspan></tspan></tspan></text>
 <text class="TextShape"><tspan class="TextParagraph" font-family="Liberation Sans, sans-serif" font-size="353px" font-weight="400"><tspan class="TextPosition" x="1517" y="5283"><tspan fill="rgb(0,0,0)" stroke="none">60</tspan></tspan></tspan></text>
 <text class="TextShape"><tspan class="TextParagraph" font-family="Liberation Sans, sans-serif" font-size="353px" font-weight="400"><tspan class="TextPosition" x="1517" y="4282"><tspan fill="rgb(0,0,0)" stroke="none">80</tspan></tspan></tspan></text>
 <text class="TextShape"><tspan class="TextParagraph" font-family="Liberation Sans, sans-serif" font-size="353px" font-weight="400"><tspan class="TextPosition" x="1331" y="3281"><tspan fill="rgb(0,0,0)" stroke="none">100</tspan></tspan></tspan></text>
 <text class="TextShape"><tspan class="TextParagraph" font-family="Liberation Sans, sans-serif" font-size="353px" font-weight="400"><tspan class="TextPosition" x="1331" y="2280"><tspan fill="rgb(0,0,0)" stroke="none">120</tspan></tspan></tspan></text>
 <text class="TextShape"><tspan class="TextParagraph" font-family="Liberation Sans, sans-serif" font-size="353px" font-weight="400"><tspan class="TextPosition" x="1331" y="1280"><tspan fill="rgb(0,0,0)" stroke="none">140</tspan></tspan></tspan></text>
 <path fill="rgb(0,69,134)" stroke="none" d="M 4107,589 L 4002,589 4002,378 4213,378 4213,589 4107,589 Z"/>
 <path fill="rgb(255,66,14)" stroke="none" d="M 6822,589 L 6717,589 6717,378 6928,378 6928,589 6822,589 Z"/>
 <path fill="rgb(255,211,32)" stroke="none" d="M 9616,589 L 9510,589 9510,378 9721,378 9721,589 9616,589 Z"/>
 <text class="TextShape"><tspan class="TextParagraph" font-family="Liberation Sans, sans-serif" font-size="353px" font-weight="400"><tspan class="TextPosition" x="4313" y="603"><tspan fill="rgb(0,0,0)" stroke="none">1st interaction</tspan></tspan></tspan></text>
 <text class="TextShape"><tspan class="TextParagraph" font-family="Liberation Sans, sans-serif" font-size="353px" font-weight="400"><tspan class="TextPosition" x="7028" y="603"><tspan fill="rgb(0,0,0)" stroke="none">2nd interaction</tspan></tspan></tspan></text>
 <text class="TextShape"><tspan class="TextParagraph" font-family="Liberation Sans, sans-serif" font-size="353px" font-weight="400"><tspan class="TextPosition" x="9821" y="603"><tspan fill="rgb(0,0,0)" stroke="none">3rd interaction</tspan></tspan></tspan></text>
 <text class="TextShape" transform="rotate(-90 837 7044)"><tspan class="TextParagraph" font-family="Liberation Sans, sans-serif" font-size="318px" font-weight="400"><tspan class="TextPosition" x="837" y="7044"><tspan fill="rgb(0,0,0)" stroke="none">relative root squared error (%)</tspan></tspan></tspan></text>
</svg>