<?xml version="1.0" encoding="UTF-8"?>
<!DOCTYPE svg PUBLIC "-//W3C//DTD SVG 1.1//EN" "http://www.w3.org/Graphics/SVG/1.1/DTD/svg11.dtd">
<svg width="160mm" height="90mm" viewBox="0 0 16000 9000" version="1.1" xmlns="http://www.w3.org/2000/svg" xmlns:xlink="http://www.w3.org/1999/xlink" stroke-width="28.222" stroke-linejoin="round" xml:space="preserve">
 <path fill="rgb(255,255,255)" stroke="none" d="M 8000,9003 L 0,9003 0,0 16000,0 16000,9003 8000,9003 Z"/>
 <path fill="none" stroke="rgb(179,179,179)" stroke-linejoin="round" d="M 8909,8176 L 2138,8176 2138,1660 15680,1660 15680,8176 8909,8176 Z"/>
 <path fill="none" stroke="rgb(179,179,179)" stroke-linejoin="round" d="M 15680,8175 L 2138,8175"/>
 <path fill="none" stroke="rgb(179,179,179)" stroke-linejoin="round" d="M 15680,7450 L 2138,7450"/>
 <path fill="none" stroke="rgb(179,179,179)" stroke-linejoin="round" d="M 15680,6726 L 2138,6726"/>
 <path fill="none" stroke="rgb(179,179,179)" stroke-linejoin="round" d="M 15680,6002 L 2138,6002"/>
 <path fill="none" stroke="rgb(179,179,179)" stroke-linejoin="round" d="M 15680,5278 L 2138,5278"/>
 <path fill="none" stroke="rgb(179,179,179)" stroke-linejoin="round" d="M 15680,4554 L 2138,4554"/>
 <path fill="none" stroke="rgb(179,179,179)" stroke-linejoin="round" d="M 15680,3831 L 2138,3831"/>
 <path fill="none" stroke="rgb(179,179,179)" stroke-linejoin="round" d="M 15680,3107 L 2138,3107"/>
 <path fill="none" stroke="rgb(179,179,179)" stroke-linejoin="round" d="M 15680,2383 L 2138,2383"/>
 <path fill="none" stroke="rgb(179,179,179)" stroke-linejoin="round" d="M 15680,1659 L 2138,1659"/>
 <path fill="none" stroke="rgb(179,179,179)" stroke-linejoin="round" d="M 2138,8325 L 2138,8175"/>
 <path fill="none" stroke="rgb(179,179,179)" stroke-linejoin="round" d="M 2138,8325 L 2138,8175"/>
 <path fill="none" stroke="rgb(179,179,179)" stroke-linejoin="round" d="M 6652,8325 L 6652,8175"/>
 <path fill="none" stroke="rgb(179,179,179)" stroke-linejoin="round" d="M 6652,8325 L 6652,8175"/>
 <path fill="none" stroke="rgb(179,179,179)" stroke-linejoin="round" d="M 11165,8325 L 11165,8175"/>
 <path fill="none" stroke="rgb(179,179,179)" stroke-linejoin="round" d="M 11165,8325 L 11165,8175"/>
 <path fill="none" stroke="rgb(179,179,179)" stroke-linejoin="round" d="M 15680,8325 L 15680,8175"/>
 <path fill="none" stroke="rgb(179,179,179)" stroke-linejoin="round" d="M 15680,8325 L 15680,8175"/>
 <path fill="none" stroke="rgb(179,179,179)" stroke-linejoin="round" d="M 2138,8175 L 15680,8175"/>
 <path fill="none" stroke="rgb(179,179,179)" stroke-linejoin="round" d="M 1988,8175 L 2288,8175"/>
 <path fill="none" stroke="rgb(179,179,179)" stroke-linejoin="round" d="M 1988,8175 L 2288,8175"/>
 <path fill="none" stroke="rgb(179,179,179)" stroke-linejoin="round" d="M 1988,7450 L 2288,7450"/>
 <path fill="none" stroke="rgb(179,179,179)" stroke-linejoin="round" d="M 1988,7450 L 2288,7450"/>
 <path fill="none" stroke="rgb(179,179,179)" stroke-linejoin="round" d="M 1988,6726 L 2288,6726"/>
 <path fill="none" stroke="rgb(179,179,179)" stroke-linejoin="round" d="M 1988,6726 L 2288,6726"/>
 <path fill="none" stroke="rgb(179,179,179)" stroke-linejoin="round" d="M 1988,6002 L 2288,6002"/>
 <path fill="none" stroke="rgb(179,179,179)" stroke-linejoin="round" d="M 1988,6002 L 2288,6002"/>
 <path fill="none" stroke="rgb(179,179,179)" stroke-linejoin="round" d="M 1988,5278 L 2288,5278"/>
 <path fill="none" stroke="rgb(179,179,179)" stroke-linejoin="round" d="M 1988,5278 L 2288,5278"/>
 <path fill="none" stroke="rgb(179,179,179)" stroke-linejoin="round" d="M 1988,4554 L 2288,4554"/>
 <path fill="none" stroke="rgb(179,179,179)" stroke-linejoin="round" d="M 1988,4554 L 2288,4554"/>
 <path fill="none" stroke="rgb(179,179,179)" stroke-linejoin="round" d="M 1988,3831 L 2288,3831"/>
 <path fill="none" stroke="rgb(179,179,179)" stroke-linejoin="round" d="M 1988,3831 L 2288,3831"/>
 <path fill="none" stroke="rgb(179,179,179)" stroke-linejoin="round" d="M 1988,3107 L 2288,3107"/>
 <path fill="none" stroke="rgb(179,179,179)" stroke-linejoin="round" d="M 1988,3107 L 2288,3107"/>
 <path fill="none" stroke="rgb(179,179,179)" stroke-linejoin="round" d="M 1988,2383 L 2288,2383"/>
 <path fill="none" stroke="rgb(179,179,179)" stroke-linejoin="round" d="M 1988,2383 L 2288,2383"/>
 <path fill="none" stroke="rgb(179,179,179)" stroke-linejoin="round" d="M 1988,1659 L 2288,1659"/>
 <path fill="none" stroke="rgb(179,179,179)" stroke-linejoin="round" d="M 1988,1659 L 2288,1659"/>
 <path fill="none" stroke="rgb(179,179,179)" stroke-linejoin="round" d="M 2138,8175 L 2138,1659"/>
 <path fill="rgb(0,69,134)" stroke="none" d="M 11447,8175 L 12012,8175 12012,5859 11447,5859 11447,8175 Z"/>
 <path fill="rgb(0,69,134)" stroke="none" d="M 6934,8175 L 7498,8175 7498,5173 6934,5173 6934,8175 Z"/>
 <path fill="rgb(0,69,134)" stroke="none" d="M 2420,8175 L 2984,8175 2984,4306 2420,4306 2420,8175 Z"/>
 <path fill="rgb(255,66,14)" stroke="none" d="M 12012,8175 L 12576,8175 12576,6351 12012,6351 12012,8175 Z"/>
 <path fill="rgb(255,66,14)" stroke="none" d="M 7498,8175 L 8062,8175 8062,6234 7498,6234 7498,8175 Z"/>
 <path fill="rgb(255,66,14)" stroke="none" d="M 2984,8175 L 3548,8175 3548,3584 2984,3584 2984,8175 Z"/>
 <path fill="rgb(255,211,32)" stroke="none" d="M 12576,8175 L 13140,8175 13140,4314 12576,4314 12576,8175 Z"/>
 <path fill="rgb(255,211,32)" stroke="none" d="M 8062,8175 L 8626,8175 8626,4496 8062,4496 8062,8175 Z"/>
 <path fill="rgb(255,211,32)" stroke="none" d="M 3548,8175 L 4113,8175 4113,4994 3548,4994 3548,8175 Z"/>
 <path fill="rgb(87,157,28)" stroke="none" d="M 13140,8175 L 13704,8175 13704,5952 13140,5952 13140,8175 Z"/>
 <path fill="rgb(87,157,28)" stroke="none" d="M 8626,8175 L 9190,8175 9190,6862 8626,6862 8626,8175 Z"/>
 <path fill="rgb(87,157,28)" stroke="none" d="M 4113,8175 L 4677,8175 4677,4994 4113,4994 4113,8175 Z"/>
 <path fill="rgb(126,0,33)" stroke="none" d="M 13704,8175 L 14269,8175 14269,7014 13704,7014 13704,8175 Z"/>
 <path fill="rgb(126,0,33)" stroke="none" d="M 9190,8175 L 9754,8175 9754,7707 9190,7707 9190,8175 Z"/>
 <path fill="rgb(126,0,33)" stroke="none" d="M 4677,8175 L 5241,8175 5241,4277 4677,4277 4677,8175 Z"/>
 <path fill="rgb(131,202,255)" stroke="none" d="M 14269,8175 L 14833,8175 14833,6684 14269,6684 14269,8175 Z"/>
 <path fill="rgb(131,202,255)" stroke="none" d="M 9754,8175 L 10319,8175 10319,7497 9754,7497 9754,8175 Z"/>
 <path fill="rgb(131,202,255)" stroke="none" d="M 5241,8175 L 5805,8175 5805,1986 5241,1986 5241,8175 Z"/>
 <path fill="rgb(49,64,4)" stroke="none" d="M 14833,8175 L 15397,8175 15397,6815 14833,6815 14833,8175 Z"/>
 <path fill="rgb(49,64,4)" stroke="none" d="M 10319,8175 L 10883,8175 10883,7438 10319,7438 10319,8175 Z"/>
 <path fill="rgb(49,64,4)" stroke="none" d="M 5805,8175 L 6370,8175 6370,4241 5805,4241 5805,8175 Z"/>
 <text class="TextShape"><tspan class="TextParagraph" font-family="Liberation Sans, sans-serif" font-size="353px" font-weight="400"><tspan class="TextPosition" x="3310" y="8743"><tspan fill="rgb(0,0,0)" stroke="none">1st interaction</tspan></tspan></tspan></text>
 <text class="TextShape"><tspan class="TextParagraph" font-family="Liberation Sans, sans-serif" font-size="353px" font-weight="400"><tspan class="TextPosition" x="7784" y="8743"><tspan fill="rgb(0,0,0)" stroke="none">2nd interaction</tspan></tspan></tspan></text>
 <text class="TextShape"><tspan class="TextParagraph" font-family="Liberation Sans, sans-serif" font-size="353px" font-weight="400"><tspan class="TextPosition" x="12338" y="8743"><tspan fill="rgb(0,0,0)" stroke="none">3rd interaction</tspan></tspan></tspan></text>
 <text class="TextShape"><tspan class="TextParagraph" font-family="Liberation Sans, sans-serif" font-size="353px" font-weight="400"><tspan class="TextPosition" x="1703" y="8296"><tspan fill="rgb(0,0,0)" stroke="none">0</tspan></tspan></tspan></text>
 <text class="TextShape"><tspan class="TextParagraph" font-family="Liberation Sans, sans-serif" font-size="353px" font-weight="400"><tspan class="TextPosition" x="1518" y="7571"><tspan fill="rgb(0,0,0)" stroke="none">20</tspan></tspan></tspan></text>
 <text class="TextShape"><tspan class="TextParagraph" font-family="Liberation Sans, sans-serif" font-size="353px" font-weight="400"><tspan class="TextPosition" x="1518" y="6847"><tspan fill="rgb(0,0,0)" stroke="none">40</tspan></tspan></tspan></text>
 <text class="TextShape"><tspan class="TextParagraph" font-family="Liberation Sans, sans-serif" font-size="353px" font-weight="400"><tspan class="TextPosition" x="1518" y="6123"><tspan fill="rgb(0,0,0)" stroke="none">60</tspan></tspan></tspan></text>
 <text class="TextShape"><tspan class="TextParagraph" font-family="Liberation Sans, sans-serif" font-size="353px" font-weight="400"><tspan class="TextPosition" x="1518" y="5399"><tspan fill="rgb(0,0,0)" stroke="none">80</tspan></tspan></tspan></text>
 <text class="TextShape"><tspan class="TextParagraph" font-family="Liberation Sans, sans-serif" font-size="353px" font-weight="400"><tspan class="TextPosition" x="1332" y="4675"><tspan fill="rgb(0,0,0)" stroke="none">100</tspan></tspan></tspan></text>
 <text class="TextShape"><tspan class="TextParagraph" font-family="Liberation Sans, sans-serif" font-size="353px" font-weight="400"><tspan class="TextPosition" x="1332" y="3951"><tspan fill="rgb(0,0,0)" stroke="none">120</tspan></tspan></tspan></text>
 <text class="TextShape"><tspan class="TextParagraph" font-family="Liberation Sans, sans-serif" font-size="353px" font-weight="400"><tspan class="TextPosition" x="1332" y="3227"><tspan fill="rgb(0,0,0)" stroke="none">140</tspan></tspan></tspan></text>
 <text class="TextShape"><tspan class="TextParagraph" font-family="Liberation Sans, sans-serif" font-size="353px" font-weight="400"><tspan class="TextPosition" x="1332" y="2503"><tspan fill="rgb(0,0,0)" stroke="none">160</tspan></tspan></tspan></text>
 <text class="TextShape"><tspan class="TextParagraph" font-family="Liberation Sans, sans-serif" font-size="353px" font-weight="400"><tspan class="TextPosition" x="1332" y="1779"><tspan fill="rgb(0,0,0)" stroke="none">180</tspan></tspan></tspan></text>
 <path fill="rgb(0,69,134)" stroke="none" d="M 4353,589 L 4248,589 4248,378 4459,378 4459,589 4353,589 Z"/>
 <path fill="rgb(255,66,14)" stroke="none" d="M 6856,589 L 6751,589 6751,378 6962,378 6962,589 6856,589 Z"/>
 <path fill="rgb(255,211,32)" stroke="none" d="M 9174,589 L 9068,589 9068,378 9279,378 9279,589 9174,589 Z"/>
 <path fill="rgb(87,157,28)" stroke="none" d="M 10486,589 L 10380,589 10380,378 10591,378 10591,589 10486,589 Z"/>
 <path fill="rgb(126,0,33)" stroke="none" d="M 4353,1087 L 4248,1087 4248,876 4459,876 4459,1087 4353,1087 Z"/>
 <path fill="rgb(131,202,255)" stroke="none" d="M 6856,1087 L 6751,1087 6751,876 6962,876 6962,1087 6856,1087 Z"/>
 <path fill="rgb(49,64,4)" stroke="none" d="M 9174,1087 L 9068,1087 9068,876 9279,876 9279,1087 9174,1087 Z"/>
 <text class="TextShape"><tspan class="TextParagraph" font-family="Liberation Sans, sans-serif" font-size="353px" font-weight="400"><tspan class="TextPosition" x="4559" y="603"><tspan fill="rgb(0,0,0)" stroke="none">MLP (500)</tspan></tspan></tspan></text>
 <text class="TextShape"><tspan class="TextParagraph" font-family="Liberation Sans, sans-serif" font-size="353px" font-weight="400"><tspan class="TextPosition" x="7062" y="603"><tspan fill="rgb(0,0,0)" stroke="none">MLP (2500)</tspan></tspan></tspan></text>
 <text class="TextShape"><tspan class="TextParagraph" font-family="Liberation Sans, sans-serif" font-size="353px" font-weight="400"><tspan class="TextPosition" x="9379" y="603"><tspan fill="rgb(0,0,0)" stroke="none">LMS</tspan></tspan></tspan></text>
 <text class="TextShape"><tspan class="TextParagraph" font-family="Liberation Sans, sans-serif" font-size="353px" font-weight="400"><tspan class="TextPosition" x="10691" y="603"><tspan fill="rgb(0,0,0)" stroke="none">C-SVC</tspan></tspan></tspan></text>
 <text class="TextShape"><tspan class="TextParagraph" font-family="Liberation Sans, sans-serif" font-size="353px" font-weight="400"><tspan class="TextPosition" x="4559" y="1101"><tspan fill="rgb(0,0,0)" stroke="none">RandomTree</tspan></tspan></tspan></text>
 <text class="TextShape"><tspan class="TextParagraph" font-family="Liberation Sans, sans-serif" font-size="353px" font-weight="400"><tspan class="TextPosition" x="7062" y="1101"><tspan fill="rgb(0,0,0)" stroke="none">KStar</tspan></tspan></tspan></text>
 <text class="TextShape"><tspan class="TextParagraph" font-family="Liberation Sans, sans-serif" font-size="353px" font-weight="400"><tspan class="TextPosition" x="9379" y="1101"><tspan fill="rgb(0,0,0)" stroke="none">MCS</tspan></tspan></tspan></text>
 <text class="TextShape" transform="rotate(-90 837 7298)"><tspan class="TextParagraph" font-family="Liberation Sans, sans-serif" font-size="318px" font-weight="400"><tspan class="TextPosition" x="837" y="7298"><tspan fill="rgb(0,0,0)" stroke="none">relative root squared error (%)</tspan></tspan></tspan></text>
</svg>